<svg width="434" height="400" viewBox="0 0 434 400" fill="none" xmlns="http://www.w3.org/2000/svg">
<path d="M45.2521 274.505C44.0451 277.454 42.8031 280.393 41.8071 283.418C27.7661 326.07 67.4871 364.016 105.109 375.418C126.185 381.805 148.293 380.921 169.164 374.31C189.285 367.937 209.842 360.292 231.314 361.588C262.731 363.485 281.941 388.848 310.427 396.855C320.232 399.611 330.888 400.094 340.51 396.752C362.152 389.235 377.722 362.858 382.948 341.631C389.821 313.713 379.921 285.641 367.83 260.679C350.051 223.974 343.882 186.216 371.281 152.167C400.132 116.313 415.947 67.928 377.633 31.654C349.26 4.79201 304.616 -2.26499 267.331 4.91201C259.2 6.47701 251.197 8.77801 243.556 11.981C223.296 20.474 206.766 35.849 195.385 54.5C182.376 75.819 179.159 101.386 166.082 122.57C144.578 157.407 102.406 146.879 73.2701 168.987C59.2721 179.609 49.9281 196.019 47.4571 213.374C44.5301 233.939 53.4811 254.395 45.2521 274.505Z" fill="#CBD18F"/>
<path d="M91.1771 6.97499C60.1721 21.793 40.0781 58.395 52.8931 93.179C67.0891 131.714 109.205 124.495 132.914 99.869C144.808 87.515 156.412 72.082 162.373 55.872C166.515 44.61 167.283 31.538 161.661 20.937C153.934 6.36599 136.001 -0.140004 119.51 0.165996C109.527 0.351996 99.9191 2.79799 91.1771 6.97499Z" fill="#CBD18F"/>
<path d="M410.054 229.887C424.593 214.466 428.008 188.941 412.899 171.783C396.16 152.775 373.54 166.296 365.38 185.737C361.287 195.489 358.045 206.948 358.222 217.599C358.345 224.999 360.811 232.689 366.403 237.536C374.089 244.199 385.852 243.952 395.27 240.107C400.972 237.78 405.955 234.235 410.054 229.887Z" fill="#CBD18F"/>
<path d="M37.185 305.546H396.912V285.933C396.912 260.839 376.569 240.496 351.475 240.496C346.836 240.496 342.362 241.195 338.146 242.487C324.824 218.475 299.224 202.215 269.818 202.215C262.974 202.215 256.338 203.102 250.013 204.755C246.05 178.547 223.43 158.459 196.116 158.459C166.732 158.459 142.79 181.71 141.656 210.816C132.411 206.688 122.177 204.374 111.398 204.374C70.357 204.374 37.087 237.644 37.087 278.685C37.087 279.968 37.12 281.243 37.184 282.51L37.185 305.546Z" fill="#3A6B35"/>
<path d="M405.442 305.546H28.5591V309.123H405.442V305.546Z" fill="#FFDFEE"/>
<path d="M77.1521 221.586C77.1521 221.586 56.9181 250.631 19.3301 236.996C19.3301 236.996 41.7421 206.143 77.1521 221.586Z" fill="#7DBF8D"/>
<path d="M20.404 184.324L13.862 190.125C19.822 198.896 28.245 207.845 39.974 214.216L47.181 207.608L46.872 217.484C50.348 218.906 54.073 220.105 58.061 221.03L63.435 217.258L62.435 221.92C67.659 222.822 73.303 223.266 79.402 223.146C79.402 223.146 74.625 205.429 61.373 188.839L53.598 190.934L57.744 184.574C53.983 180.429 49.65 176.465 44.682 172.991L40.055 176.893L41.016 170.592C30.372 164.091 17.09 159.896 0.655029 160.585C0.655029 160.585 3.09803 172.446 11.125 185.839L20.404 184.324Z" fill="#A0DAB0"/>
<path d="M0.655029 160.585C7.74903 165.089 14.616 169.921 21.391 174.871C24.795 177.325 28.124 179.878 31.477 182.399C34.807 184.95 38.107 187.54 41.406 190.132C44.68 192.755 47.94 195.395 51.183 198.057C54.392 200.76 57.639 203.416 60.791 206.187C67.154 211.657 73.379 217.29 79.403 223.146C72.638 218.16 66.04 212.994 59.431 207.842L49.549 200.079L39.699 192.28L29.881 184.441L20.091 176.563C13.571 171.299 7.07503 166.003 0.655029 160.585Z" fill="#7DBF8D"/>
<path d="M81.356 218.015C81.356 218.015 51.059 199.708 62.226 161.315C62.226 161.315 94.469 181.678 81.356 218.015Z" fill="#7DBF8D"/>
<path d="M82.8401 220.003C82.8401 220.003 85.3861 255.309 47.5911 268.359C47.5911 268.359 45.6001 230.277 82.8401 220.003Z" fill="#A0DAB0"/>
<path d="M356.848 221.586C356.848 221.586 377.082 250.631 414.67 236.996C414.67 236.996 392.258 206.143 356.848 221.586Z" fill="#7DBF8D"/>
<path d="M413.596 184.324L420.138 190.125C414.178 198.896 405.755 207.845 394.026 214.216L386.818 207.608L387.127 217.484C383.651 218.906 379.926 220.105 375.938 221.03L370.564 217.258L371.564 221.92C366.34 222.822 360.696 223.266 354.597 223.146C354.597 223.146 359.374 205.429 372.626 188.839L380.401 190.934L376.255 184.574C380.016 180.429 384.349 176.465 389.317 172.991L393.944 176.893L392.983 170.592C403.627 164.091 416.91 159.896 433.344 160.585C433.344 160.585 430.901 172.446 422.874 185.839L413.596 184.324Z" fill="#A0DAB0"/>
<path d="M433.345 160.585C426.251 165.089 419.384 169.921 412.609 174.871C409.205 177.325 405.876 179.878 402.523 182.399C399.192 184.95 395.893 187.54 392.594 190.132C389.32 192.755 386.06 195.395 382.817 198.057C379.608 200.76 376.361 203.416 373.209 206.187C366.847 211.657 360.621 217.29 354.597 223.146C361.362 218.16 367.96 212.994 374.569 207.842L384.451 200.079L394.301 192.28L404.119 184.441L413.909 176.563C420.429 171.299 426.925 166.003 433.345 160.585Z" fill="#7DBF8D"/>
<path d="M352.644 218.015C352.644 218.015 382.941 199.708 371.774 161.315C371.774 161.315 339.531 181.678 352.644 218.015Z" fill="#7DBF8D"/>
<path d="M351.16 220.003C351.16 220.003 348.614 255.309 386.409 268.359C386.409 268.359 388.4 230.277 351.16 220.003Z" fill="#A0DAB0"/>
<path d="M337.979 249.113H96.021C83.034 249.113 72.506 238.585 72.506 225.598V50.459C72.506 37.472 83.034 26.944 96.021 26.944H337.979C350.966 26.944 361.494 37.472 361.494 50.459V225.598C361.494 238.585 350.966 249.113 337.979 249.113Z" fill="#CBD18F"/>
<path d="M96.021 243.603C86.093 243.603 78.016 235.526 78.016 225.598V50.459C78.016 40.531 86.093 32.454 96.021 32.454H337.978C347.907 32.454 355.983 40.531 355.983 50.459V225.598C355.983 235.526 347.906 243.603 337.978 243.603H96.021Z" fill="#F7F7F7"/>
<path d="M355.984 77.577V50.459C355.984 40.531 347.907 32.454 337.979 32.454H96.021C86.093 32.454 78.016 40.531 78.016 50.459V77.577H355.984Z" fill="#3A6B35"/>
<path d="M115.783 35.656C118.781 35.656 121.211 38.0861 121.211 41.084C121.211 44.0818 118.78 46.512 115.783 46.512C112.785 46.512 110.355 44.0819 110.355 41.084C110.355 38.0862 112.785 35.656 115.783 35.656Z" fill="#3A6B35" stroke="#3A6B35"/>
<path d="M141.087 35.656C144.085 35.656 146.515 38.0861 146.515 41.084C146.515 44.0819 144.085 46.512 141.087 46.512C138.089 46.512 135.659 44.0819 135.659 41.084C135.659 38.0862 138.089 35.656 141.087 35.656Z" fill="#3A6B35" stroke="#3A6B35"/>
<path d="M166.391 35.656C169.389 35.656 171.819 38.0861 171.819 41.084C171.819 44.0819 169.389 46.512 166.391 46.512C163.393 46.512 160.963 44.0819 160.963 41.084C160.963 38.0862 163.393 35.656 166.391 35.656Z" fill="#3A6B35" stroke="#3A6B35"/>
<path d="M191.696 35.656C194.694 35.656 197.124 38.0861 197.124 41.084C197.124 44.0819 194.694 46.512 191.696 46.512C188.698 46.512 186.268 44.0819 186.268 41.084C186.268 38.0861 188.698 35.656 191.696 35.656Z" fill="#3A6B35" stroke="#3A6B35"/>
<path d="M217 35.656C219.998 35.656 222.428 38.0861 222.428 41.084C222.428 44.0819 219.998 46.512 217 46.512C214.002 46.512 211.572 44.0819 211.572 41.084C211.572 38.0861 214.002 35.656 217 35.656Z" fill="#3A6B35" stroke="#3A6B35"/>
<path d="M242.304 35.656C245.302 35.656 247.732 38.0862 247.732 41.084C247.732 44.0819 245.302 46.512 242.304 46.512C239.306 46.512 236.876 44.0819 236.876 41.084C236.876 38.0861 239.306 35.656 242.304 35.656Z" fill="#3A6B35" stroke="#3A6B35"/>
<path d="M267.609 35.656C270.607 35.656 273.037 38.0861 273.037 41.084C273.037 44.0819 270.607 46.512 267.609 46.512C264.611 46.512 262.181 44.0819 262.181 41.084C262.181 38.0862 264.611 35.656 267.609 35.656Z" fill="#3A6B35" stroke="#3A6B35"/>
<path d="M292.913 35.656C295.911 35.656 298.341 38.0862 298.341 41.084C298.341 44.0819 295.911 46.512 292.913 46.512C289.915 46.512 287.485 44.0819 287.485 41.084C287.485 38.0862 289.915 35.656 292.913 35.656Z" fill="#3A6B35" stroke="#3A6B35"/>
<path d="M318.217 35.656C321.215 35.656 323.645 38.0861 323.645 41.084C323.645 44.0819 321.215 46.512 318.217 46.512C315.219 46.512 312.789 44.0819 312.789 41.084C312.789 38.0862 315.219 35.656 318.217 35.656Z" fill="#3A6B35" stroke="#3A6B35"/>
<path d="M115.783 40.584C113.999 40.584 112.553 39.1378 112.553 37.354V25.949C112.553 24.1651 113.999 22.719 115.783 22.719C117.567 22.719 119.013 24.1651 119.013 25.949V37.354C119.013 39.1378 117.567 40.584 115.783 40.584Z" fill="#CBD18F" stroke="#3A6B35"/>
<path d="M141.087 40.584C139.303 40.584 137.857 39.1378 137.857 37.354V25.949C137.857 24.1651 139.303 22.719 141.087 22.719C142.871 22.719 144.317 24.1651 144.317 25.949V37.354C144.317 39.1378 142.871 40.584 141.087 40.584Z" fill="#CBD18F" stroke="#3A6B35"/>
<path d="M169.621 37.354V37.3542C169.622 39.1377 168.175 40.584 166.391 40.584C164.607 40.584 163.161 39.1378 163.161 37.354V25.949C163.161 24.1651 164.607 22.719 166.391 22.719C168.175 22.719 169.621 24.1651 169.621 25.949V37.354Z" fill="#CBD18F" stroke="#3A6B35"/>
<path d="M191.696 40.584C189.912 40.584 188.466 39.1378 188.466 37.354V25.949C188.466 24.1651 189.912 22.719 191.696 22.719C193.48 22.719 194.926 24.1651 194.926 25.949V37.354C194.926 39.1378 193.48 40.584 191.696 40.584Z" fill="#CBD18F" stroke="#3A6B35"/>
<path d="M217 40.584C215.216 40.584 213.77 39.1378 213.77 37.354V25.949C213.77 24.1651 215.216 22.719 217 22.719C218.784 22.719 220.23 24.1651 220.23 25.949V37.354C220.23 39.1378 218.784 40.584 217 40.584Z" fill="#CBD18F" stroke="#3A6B35"/>
<path d="M245.534 37.354V37.3542C245.535 39.1378 244.089 40.584 242.304 40.584C240.52 40.584 239.074 39.1378 239.074 37.354V25.949C239.074 24.1651 240.52 22.719 242.304 22.719C244.088 22.719 245.534 24.1651 245.534 25.949V37.354Z" fill="#CBD18F" stroke="#3A6B35"/>
<path d="M267.609 40.584C265.825 40.584 264.379 39.1378 264.379 37.354V25.949C264.379 24.1651 265.825 22.719 267.609 22.719C269.393 22.719 270.839 24.1651 270.839 25.949V37.354C270.839 39.1378 269.393 40.584 267.609 40.584Z" fill="#CBD18F" stroke="#3A6B35"/>
<path d="M292.913 40.584C291.129 40.584 289.683 39.1378 289.683 37.354V25.949C289.683 24.1651 291.129 22.719 292.913 22.719C294.697 22.719 296.143 24.1651 296.143 25.949V37.354C296.143 39.1378 294.697 40.584 292.913 40.584Z" fill="#CBD18F" stroke="#3A6B35"/>
<path d="M321.447 37.354V37.3542C321.448 39.1378 320.002 40.584 318.217 40.584C316.433 40.584 314.987 39.1378 314.987 37.354V25.949C314.987 24.1651 316.433 22.719 318.217 22.719C320.001 22.719 321.447 24.1651 321.447 25.949V37.354Z" fill="#CBD18F" stroke="#3A6B35"/>
<path d="M118.643 129.835H92.843V155.635H118.643V129.835Z" fill="#CBD18F"/>
<path d="M118.643 163.557H92.843V189.357H118.643V163.557Z" fill="#CBD18F"/>
<path d="M118.643 197.278H92.843V223.078H118.643V197.278Z" fill="#CBD18F"/>
<path d="M155.729 129.835H129.929V155.635H155.729V129.835Z" fill="#CBD18F"/>
<path d="M155.729 163.557H129.929V189.357H155.729V163.557Z" fill="#B9DDFF"/>
<path d="M155.729 197.278H129.929V223.078H155.729V197.278Z" fill="#B9DDFF"/>
<path d="M192.814 96.113H167.014V121.913H192.814V96.113Z" fill="#3A6B35"/>
<path d="M192.814 129.835H167.014V155.635H192.814V129.835Z" fill="#CBD18F"/>
<path d="M192.814 163.557H167.014V189.357H192.814V163.557Z" fill="#CBD18F"/>
<path d="M192.814 197.278H167.014V223.078H192.814V197.278Z" fill="#CBD18F"/>
<path d="M229.9 96.113H204.1V121.913H229.9V96.113Z" fill="#CBD18F"/>
<path d="M229.9 129.835H204.1V155.635H229.9V129.835Z" fill="#B9DDFF"/>
<path d="M229.9 163.557H204.1V189.357H229.9V163.557Z" fill="#B9DDFF"/>
<path d="M229.9 197.278H204.1V223.078H229.9V197.278Z" fill="#CBD18F"/>
<path d="M266.985 96.113H241.185V121.913H266.985V96.113Z" fill="#CBD18F"/>
<path d="M266.985 129.835H241.185V155.635H266.985V129.835Z" fill="#FCBA06"/>
<path d="M266.985 163.557H241.185V189.357H266.985V163.557Z" fill="#B9DDFF"/>
<path d="M266.985 197.278H241.185V223.078H266.985V197.278Z" fill="#CBD18F"/>
<path d="M304.071 96.113H278.271V121.913H304.071V96.113Z" fill="#CBD18F"/>
<path d="M304.071 129.835H278.271V155.635H304.071V129.835Z" fill="#CBD18F"/>
<path d="M304.071 163.557H278.271V189.357H304.071V163.557Z" fill="#CBD18F"/>
<path d="M304.071 197.278H278.271V223.078H304.071V197.278Z" fill="#CBD18F"/>
<path d="M341.156 96.113H315.356V121.913H341.156V96.113Z" fill="#3A6B35"/>
<path d="M341.156 129.835H315.356V155.635H341.156V129.835Z" fill="#3A6B35"/>
<path d="M341.156 163.557H315.356V189.357H341.156V163.557Z" fill="#3A6B35"/>
<path d="M341.156 197.278H315.356V223.078H341.156V197.278Z" fill="#3A6B35"/>
<path d="M184.397 59.704V68.217H182.038L178.803 64.35V68.217H176.006V59.704H178.365L181.6 63.571V59.704H184.397Z" fill="white"/>
<path d="M188.247 63.96C188.247 61.382 190.278 59.509 193.051 59.509C195.824 59.509 197.855 61.382 197.855 63.96C197.855 66.538 195.825 68.411 193.051 68.411C190.278 68.411 188.247 66.538 188.247 63.96ZM194.961 63.96C194.961 62.634 194.109 61.832 193.051 61.832C191.993 61.832 191.142 62.635 191.142 63.96C191.142 65.285 191.994 66.088 193.051 66.088C194.11 66.088 194.961 65.286 194.961 63.96Z" fill="white"/>
<path d="M210.499 59.704L206.899 68.217H204.078L200.478 59.704H203.567L205.597 64.678L207.677 59.704H210.499Z" fill="white"/>
<path d="M220.663 66.052V68.216H213.585V59.703H220.505V61.868H216.406V62.865H220.006V64.932H216.406V66.051L220.663 66.052Z" fill="white"/>
<path d="M232.176 68.216L232.152 64.337L230.303 67.45H229.038L227.189 64.471V68.217H224.575V59.704H226.934L229.706 64.24L232.406 59.704H234.765L234.788 68.217L232.176 68.216Z" fill="white"/>
<path d="M247.373 65.869C247.373 67.353 246.121 68.216 243.773 68.216H238.982V59.703H243.53C245.878 59.703 246.972 60.639 246.972 61.928C246.972 62.719 246.571 63.375 245.792 63.764C246.79 64.13 247.373 64.86 247.373 65.869ZM241.804 61.71V62.975H243.142C243.787 62.975 244.078 62.756 244.078 62.343C244.078 61.93 243.786 61.711 243.142 61.711L241.804 61.71ZM244.48 65.541C244.48 65.103 244.164 64.872 243.531 64.872H241.804V66.209H243.531C244.163 66.21 244.48 65.979 244.48 65.541Z" fill="white"/>
<path d="M258.268 66.052V68.216H251.19V59.703H258.11V61.868H254.011V62.865H257.611V64.932H254.011V66.051L258.268 66.052Z" fill="white"/>
<path d="M265.828 66.076H265.05V68.216H262.18V59.703H266.279C268.65 59.703 270.158 60.943 270.158 62.914C270.158 64.142 269.574 65.066 268.553 65.589L270.341 68.216H267.277L265.828 66.076ZM266.096 61.917H265.05V63.911H266.096C266.886 63.911 267.263 63.534 267.263 62.914C267.263 62.294 266.886 61.917 266.096 61.917Z" fill="white"/>
<path d="M182.447 125.612C171.102 125.612 161.872 116.382 161.872 105.036C161.872 93.69 171.102 84.46 182.447 84.46C193.793 84.46 203.023 93.69 203.023 105.036C203.023 116.382 193.793 125.612 182.447 125.612ZM182.447 85.638C171.751 85.638 163.05 94.34 163.05 105.036C163.05 115.732 171.751 124.434 182.447 124.434C193.143 124.434 201.845 115.732 201.845 105.036C201.845 94.34 193.144 85.638 182.447 85.638Z" fill="#1F75FE"/>
<path d="M182.447 119.858C174.274 119.858 167.625 113.209 167.625 105.036C167.625 96.863 174.274 90.214 182.447 90.214C190.621 90.214 197.27 96.863 197.27 105.036C197.271 113.209 190.621 119.858 182.447 119.858ZM182.447 91.391C174.924 91.391 168.802 97.512 168.802 105.036C168.802 112.559 174.923 118.681 182.447 118.681C189.971 118.681 196.093 112.56 196.093 105.036C196.093 97.512 189.972 91.391 182.447 91.391Z" fill="#1F75FE"/>
<path d="M182.447 115.036C176.933 115.036 172.448 110.55 172.448 105.036C172.448 99.522 176.933 95.037 182.447 95.037C187.961 95.037 192.447 99.523 192.447 105.036C192.447 110.55 187.961 115.036 182.447 115.036ZM182.447 96.214C177.583 96.214 173.626 100.171 173.626 105.036C173.626 109.901 177.583 113.858 182.447 113.858C187.311 113.858 191.269 109.9 191.269 105.036C191.27 100.171 187.312 96.214 182.447 96.214Z" fill="#1F75FE"/>
<path d="M121.288 378.206C156.56 378.206 185.153 373.156 185.153 366.927C185.153 360.698 156.56 355.648 121.288 355.648C86.0163 355.648 57.423 360.698 57.423 366.927C57.423 373.156 86.0163 378.206 121.288 378.206Z" fill="#3A6B35"/>
<path d="M183.524 117.317C183.524 117.698 183.376 118.08 183.081 118.369C181.709 119.698 179.052 121.66 175.582 121.205V121.211C175.582 121.211 173.454 123.592 171.688 125.406C171.307 125.8 170.944 126.218 170.605 126.649L157.989 142.864L148.534 155.013L148.337 155.038C148.269 154.386 148.103 153.74 147.876 153.125C147.494 152.092 147.07 151.132 147.39 150.025C147.482 149.711 147.599 149.422 147.716 149.139L148.233 149.237C149.599 148.45 150.724 147.379 151.585 146.37C152.711 145.054 153.363 143.399 153.455 141.689C153.48 141.234 153.467 140.785 153.412 140.33C153.123 137.839 152.551 135.286 151.991 133.17L171.928 114.39C172.211 114.119 172.488 113.843 172.746 113.547L180.718 104.517C181.253 103.908 182.17 103.834 182.797 104.345C183.16 104.64 183.345 105.077 183.345 105.514C183.345 105.815 183.259 106.117 183.068 106.381L179.303 111.64L177.888 113.608L177.623 113.977C177.051 114.783 177.168 115.884 177.906 116.542C178.275 116.874 178.736 117.04 179.198 117.04C179.598 117.04 179.998 116.917 180.342 116.665L181.123 116.093C181.51 115.804 182.003 115.73 182.445 115.859V115.865C182.666 115.926 182.882 116.056 183.06 116.228C183.371 116.523 183.524 116.923 183.524 117.317Z" fill="#D9844B"/>
<path d="M182.448 115.859C182.005 115.73 181.513 115.804 181.126 116.093L180.345 116.665C180.087 113.798 177.891 113.608 177.891 113.608L179.306 111.64C179.306 111.64 182.442 111.885 182.448 115.859Z" fill="#C56F3E"/>
<path d="M180.344 116.665C180 116.917 179.6 117.04 179.2 117.04C178.739 117.04 178.277 116.874 177.908 116.542C177.17 115.884 177.053 114.783 177.625 113.977L177.889 113.608C177.889 113.608 180.086 113.798 180.344 116.665Z" fill="#C56F3E"/>
<path d="M151.433 205.823C151.082 204.34 150.762 202.815 150.461 201.271C149.784 197.783 149.225 194.234 148.782 191.004C148.69 190.376 148.61 189.761 148.53 189.165H148.536C148.536 189.165 153.223 184.705 162.506 185.554L164.29 201.554C164.29 201.554 165.729 207.422 166.837 210.412C166.837 210.412 168.719 218.378 169.051 224.794C169.051 224.794 170.158 243.383 175.135 253.675C175.135 253.675 176.384 256.338 174.028 259.648L169.051 266.347C168.651 266.882 167.888 266.968 167.378 266.538C167.114 266.31 166.972 265.984 166.972 265.658C166.972 265.43 167.04 265.203 167.175 265.006L168.94 262.453L167.618 263.695C167.452 263.855 167.23 263.935 167.015 263.935C166.787 263.935 166.566 263.849 166.394 263.677C166.056 263.345 166.05 262.804 166.369 262.459L169.143 259.463C169.604 258.971 169.9 258.343 169.986 257.673C170.103 256.769 169.992 255.846 169.66 254.997L168.934 253.145L167.704 257.728C167.507 258.479 166.824 258.983 166.08 258.983C165.945 258.983 165.816 258.965 165.68 258.934C164.807 258.719 164.253 257.87 164.413 256.99C165.096 253.256 165.176 248.144 165.176 248.144C165.176 244.016 164.475 240.664 164.136 239.292C164.038 238.892 163.908 238.498 163.755 238.111L163.072 236.438L161.325 232.144L156.509 220.303V220.297L153.298 212.411C153.175 212.11 153.064 211.808 152.972 211.501C152.411 209.741 151.9 207.822 151.433 205.823Z" fill="#D9844B"/>
<path d="M129.78 251.853L132.794 264.248C133.071 265.392 133.169 266.567 133.089 267.736L131.957 284.388C126.218 295.608 118.627 307.105 118.627 307.105C110.55 321.315 103.722 341.036 101.379 348.141C97.221 346.898 87.329 342.408 87.329 342.408C91.02 331.538 107.087 296.636 110.532 289.18C110.969 288.245 111.264 287.249 111.424 286.227L114.93 263.295C115.133 261.954 115.059 260.582 114.77 259.254C111.645 244.934 119.531 234.649 119.833 234.261C119.839 234.261 119.839 234.255 119.839 234.255C121.617 233.591 125.283 232.403 130.469 231.641C133.729 231.161 137.592 230.854 141.96 230.946C143.239 230.977 144.519 231.1 145.786 231.309C147.791 231.641 151.507 232.176 155.517 232.318C157.387 232.38 159.325 232.361 161.182 232.201L161.324 232.146L163.071 236.44C163.575 255.928 156.268 290.843 156.268 290.843C152.356 314.464 151.771 338.504 151.691 347.319C144.26 349.091 137.457 348.402 137.457 348.402C136.43 334.223 137.457 296.097 137.457 296.097C138.134 285.947 137.986 277.79 137.519 271.516C136.701 260.505 134.911 255.295 134.911 255.295C132.788 254.443 131.109 253.243 129.78 251.853Z" fill="#018389"/>
<path d="M162.222 182.976L162.505 185.553C153.223 184.704 148.535 189.164 148.535 189.164H148.529C148.394 188.081 148.265 187.042 148.148 186.07C148.148 186.07 152.977 182.41 162.216 182.976H162.222Z" fill="white"/>
<path d="M134.849 172.119C136.338 171.615 137.722 170.76 138.595 169.474C139.019 168.847 139.321 168.065 139.918 167.573C140.828 166.823 142.114 166.829 142.981 165.931C143.485 165.402 143.787 164.713 143.978 164.006C144.132 163.452 144.224 162.868 144.156 162.302C144.101 161.841 143.941 161.385 144.008 160.924C144.076 160.45 144.426 160.217 144.851 160.063L144.876 160.494C145.559 160.463 148.21 160.408 151.187 161.318C149.661 161.902 148.154 162.93 147.182 163.988C144.918 166.455 144.611 172.071 148.24 173.559C149.79 174.193 151.574 173.614 153.057 174.531C154.416 175.38 154.472 176.85 155.382 177.945C157.117 180.043 159.756 179.477 161.656 177.908L162.222 182.977H162.216C152.977 182.411 148.148 186.071 148.148 186.071C148.265 187.043 148.394 188.083 148.529 189.165C148.609 189.762 148.689 190.377 148.781 191.004C146.191 193.138 142.79 194.75 141.627 197.795C140.674 200.292 141.861 203.38 144.807 203.608C146.929 203.768 148.676 202.501 150.46 201.271C150.761 202.815 151.081 204.34 151.432 205.823C150.392 206.297 149.384 206.924 148.732 208.247C146.358 213.1 148.621 218.114 147.274 223.023C146.179 227.015 141.799 226.554 138.514 227.397C136.909 227.809 134.756 227.938 133.279 228.72C131.92 229.44 131.034 230.455 130.468 231.642C125.282 232.405 121.616 233.592 119.838 234.256C119.838 234.256 119.838 234.262 119.832 234.262C119.038 234.557 118.626 234.748 118.626 234.748C121.462 230.762 123.338 227.004 124.55 223.602C124.851 222.759 125.116 221.904 125.337 221.043C127.115 220.902 129.015 221.271 130.627 221.763C133.58 222.667 135.327 222.335 137.357 219.874C138.987 217.887 138.858 214.492 138.181 212.099C137.351 209.128 134.878 206.827 134.65 203.708C134.312 199.113 137.775 193.946 133.863 189.923C131.636 187.629 127.527 187.622 124.771 188.631C123.424 189.123 122.058 189.781 120.853 190.575C119.586 184.953 119.038 180.124 118.805 176.697C120.158 176.187 121.499 176.168 122.939 176.568C123.111 176.611 123.283 176.66 123.462 176.722C126.95 177.891 129.33 181.655 131.896 184.141C133.76 185.943 137.149 188.207 139.85 186.811C142.452 185.47 141.702 180.819 139.752 179.196C138.682 178.304 137.113 178.033 135.883 177.406C133.724 176.311 132.801 174.626 132.746 172.596C133.091 172.553 133.435 172.491 133.773 172.418C134.135 172.335 134.492 172.236 134.849 172.119Z" fill="#FE769C"/>
<path d="M162.044 362.412C162.13 362.972 161.995 363.858 160.488 364.319C160.488 364.319 157.056 366.078 149.127 365.685C148.487 365.654 147.854 365.753 147.251 365.962C146.144 366.35 144.157 366.928 142.213 366.928H136.892C136.892 366.928 136.517 363.76 137.163 360.512C137.378 359.435 137.458 358.341 137.458 357.24V356.637C137.458 355.887 138.061 355.284 138.805 355.284H139.986H141.302C141.862 355.284 142.397 355.505 142.809 355.899C143.492 356.551 144.919 357.363 147.33 356.287C147.33 356.287 148.019 355.764 149.065 355.549C149.889 355.383 150.941 355.408 152.048 356.047L154.133 358.157C154.613 358.649 155.185 359.037 155.819 359.307L161.534 361.755C161.804 361.87 162.001 362.116 162.044 362.412Z" fill="white"/>
<path d="M161.183 173.669L161.657 177.907C159.756 179.476 157.117 180.042 155.383 177.944C154.473 176.849 154.417 175.379 153.058 174.53C151.575 173.613 149.792 174.192 148.241 173.558C144.612 172.069 144.919 166.453 147.183 163.987C148.155 162.929 149.662 161.902 151.188 161.317C155.394 162.591 160.266 165.783 161.183 173.669Z" fill="#EF4E8C"/>
<path d="M156.508 220.303L161.324 232.144L161.182 232.199C159.324 232.359 157.387 232.377 155.517 232.316L156.508 220.303Z" fill="#B72963"/>
<path d="M156.508 220.297V220.303L155.518 232.317C151.507 232.176 147.792 231.64 145.787 231.308C144.52 231.099 143.24 230.976 141.961 230.945C137.594 230.853 133.731 231.16 130.47 231.64C131.036 230.453 131.922 229.438 133.281 228.718C134.757 227.937 136.91 227.808 138.516 227.395C141.801 226.552 146.181 227.014 147.276 223.021C148.623 218.112 146.359 213.099 148.734 208.245C149.386 206.922 150.395 206.295 151.434 205.821C151.901 207.82 152.412 209.739 152.972 211.499C153.064 211.807 153.175 212.108 153.298 212.409L156.508 220.297Z" fill="#EF4E8C"/>
<path d="M153.413 140.329C153.665 142.507 153.013 144.709 151.586 146.37C150.725 147.379 149.599 148.449 148.234 149.237L147.717 149.139C148.006 148.432 148.301 147.761 148.215 146.906C148.11 145.934 147.963 145.75 148.682 144.974C149.482 144.113 150.306 143.338 150.558 142.144C150.687 141.523 150.761 140.723 150.583 140.102C150.423 139.561 149.986 139.21 149.808 138.699C149.507 137.85 150.239 137.303 150.509 136.423C151.106 134.485 149.365 133.021 149.888 131.157C150.14 130.253 150.509 129.152 150.411 128.192L150.479 128.186C150.479 128.186 151.229 130.271 151.992 133.169C152.552 135.285 153.124 137.838 153.413 140.329Z" fill="#D9844B"/>
<path d="M151.691 347.316C151.679 349.574 151.691 350.828 151.691 350.828L149.003 351.123L139.985 352.126L137.912 352.354C137.727 351.45 137.574 350.096 137.457 348.399C137.457 348.399 144.26 349.088 151.691 347.316Z" fill="#06B7B7"/>
<path d="M149.003 355.282L149.065 355.546C148.019 355.761 147.33 356.284 147.33 356.284C144.919 357.36 143.491 356.548 142.809 355.896C142.397 355.502 141.862 355.281 141.302 355.281H139.986V352.125L149.004 351.122L149.003 355.282Z" fill="#D9844B"/>
<path d="M148.781 191.004C149.224 194.233 149.784 197.783 150.46 201.271C148.676 202.501 146.929 203.768 144.807 203.608C141.86 203.38 140.673 200.292 141.627 197.795C142.79 194.75 146.192 193.138 148.781 191.004Z" fill="#EF4E8C"/>
<path d="M139.751 179.193C141.701 180.817 142.451 185.467 139.849 186.808C137.149 188.204 133.759 185.941 131.895 184.138C129.33 181.653 126.949 177.888 123.461 176.719C123.283 176.658 123.11 176.608 122.938 176.565C122.169 174.935 121.277 173.329 120.668 171.669C121.234 171.706 121.8 171.687 122.36 171.62C123.178 171.528 124.119 171.036 124.944 171.165C125.817 171.3 126.74 171.971 127.62 172.217C129.281 172.691 131.034 172.826 132.744 172.592C132.799 174.622 133.722 176.307 135.881 177.402C137.112 178.031 138.681 178.301 139.751 179.193Z" fill="#EF4E8C"/>
<path d="M138.183 212.097C138.86 214.49 138.989 217.885 137.359 219.872C135.329 222.333 133.582 222.665 130.629 221.761C129.017 221.269 127.117 220.9 125.339 221.041C125.776 219.356 126.059 217.639 126.194 215.911C126.975 216.36 134.062 214.115 134.062 214.115C130.359 211.974 123.838 201.019 123.838 201.019C122.552 197.347 121.581 193.828 120.855 190.574C122.061 189.78 123.426 189.122 124.773 188.63C127.529 187.621 131.638 187.627 133.865 189.922C137.777 193.945 134.314 199.112 134.652 203.707C134.879 206.825 137.352 209.126 138.183 212.097Z" fill="#EF4E8C"/>
<path d="M137.518 271.513L137.456 271.519C136.373 275.222 134.319 279.78 131.957 284.388L133.089 267.736C133.169 266.567 133.07 265.392 132.794 264.248L129.78 251.853C131.109 253.243 132.788 254.443 134.91 255.292C134.91 255.292 136.7 260.502 137.518 271.513Z" fill="#004E4A"/>
<path d="M123.838 201.018C123.838 201.018 130.359 211.974 134.062 214.114C134.062 214.114 126.976 216.359 126.194 215.91C126.563 211.321 125.893 206.658 124.287 202.278C124.133 201.855 123.979 201.437 123.838 201.018Z" fill="#B72963"/>
<path d="M122.94 176.567C121.501 176.167 120.16 176.186 118.806 176.696C118.585 173.528 118.634 171.553 118.646 171.234C119.298 171.492 119.981 171.628 120.67 171.671C121.279 173.331 122.171 174.936 122.94 176.567Z" fill="#EF4E8C"/>
<path d="M101.742 362.122C102.849 362.645 105.986 364.38 105.599 367.295C105.599 367.295 104.849 367.812 103.317 368.002C101.816 368.199 99.571 368.07 96.55 366.827C96.55 366.827 94.059 365.018 92.65 362.035C92.65 362.035 90.528 358.11 84.327 360.073C84.327 360.073 82.998 358.455 84.844 355.785C84.973 355.594 85.096 355.404 85.207 355.201C85.539 354.574 86.302 353.091 86.923 351.399C87.304 350.359 88.362 349.72 89.464 349.873C89.569 349.885 89.679 349.904 89.79 349.922C91.845 350.23 94.822 351.023 96.809 353.01C96.809 353.01 98.224 354.265 98.224 357.716C98.224 357.716 98.507 361.253 101.023 361.893C101.268 361.956 101.514 362.018 101.742 362.122Z" fill="white"/>
<path d="M103.317 368.003L103.323 368.077C100.087 369.947 94.748 369.338 94.748 369.338C88.215 369.024 87.779 364.866 87.779 364.866C86.918 362.27 84.328 360.074 84.328 360.074C90.529 358.112 92.651 362.036 92.651 362.036C94.06 365.019 96.551 366.828 96.551 366.828C99.571 368.071 101.816 368.2 103.317 368.003Z" fill="#939393"/>
<path d="M101.379 348.14C100.813 349.85 100.512 350.828 100.512 350.828L98.224 349.85L91.242 346.873L86.616 344.898C86.714 344.344 86.96 343.495 87.33 342.407C87.33 342.407 97.221 346.898 101.379 348.14Z" fill="#06B7B7"/>
<path d="M98.2229 349.85L96.8079 353.012C94.8209 351.025 91.8439 350.232 89.7889 349.924L91.2409 346.873L98.2229 349.85Z" fill="#D9844B"/>
<path d="M182.448 115.865C183.022 115.958 183.521 116.456 183.656 117.07C183.721 117.377 183.694 117.709 183.574 118.011C183.463 118.322 183.208 118.566 183.015 118.759C182.194 119.584 181.225 120.272 180.159 120.773C179.088 121.261 177.905 121.539 176.726 121.506C176.137 121.492 175.556 121.405 174.992 121.261C174.433 121.098 173.889 120.895 173.387 120.613C174.486 120.947 175.614 121.076 176.719 121.026C177.823 120.962 178.902 120.68 179.902 120.214C180.906 119.755 181.837 119.129 182.691 118.407C182.916 118.218 183.095 118.068 183.209 117.844C183.327 117.627 183.379 117.371 183.36 117.114C183.337 116.593 182.975 116.091 182.448 115.865Z" fill="#964712"/>
<path d="M124.742 237.865C124.804 239.188 124.961 240.502 125.232 241.791C125.481 243.083 125.837 244.353 126.304 245.576C127.217 248.022 128.572 250.323 130.466 252.104C132.325 253.92 134.715 255.131 137.24 255.78C138.503 256.116 139.807 256.309 141.119 256.399C142.432 256.515 143.754 256.488 145.078 256.437C143.767 256.627 142.437 256.715 141.105 256.701C139.774 256.672 138.439 256.529 137.128 256.241C134.509 255.671 132.01 254.408 130.041 252.55C129.547 252.087 129.13 251.553 128.686 251.046C128.475 250.783 128.291 250.5 128.092 250.228L127.799 249.816L127.542 249.382C126.831 248.239 126.277 247.005 125.859 245.734C125.012 243.195 124.621 240.514 124.742 237.865Z" fill="#003834"/>
<path d="M177.89 113.607C178.641 113.461 179.436 113.879 179.905 114.499C180.127 114.821 180.293 115.177 180.362 115.551C180.407 115.735 180.405 115.926 180.418 116.11C180.406 116.298 180.387 116.483 180.344 116.664C180.251 116.495 180.19 116.329 180.121 116.167C180.041 116.009 179.982 115.849 179.906 115.7C179.758 115.399 179.597 115.121 179.411 114.865C179.03 114.36 178.546 113.952 177.89 113.607Z" fill="#964712"/>
<path d="M167.758 250.143C168.192 251.061 168.589 251.994 169.005 252.919L169.6 254.318C169.793 254.778 170.019 255.256 170.138 255.776C170.263 256.29 170.316 256.823 170.286 257.354C170.266 257.878 170.14 258.445 169.88 258.929C169.753 259.174 169.593 259.403 169.409 259.609L168.892 260.174L167.865 261.294L166.828 262.404L166.575 262.676C166.519 262.739 166.478 262.813 166.454 262.893C166.403 263.054 166.433 263.235 166.52 263.376C166.698 263.682 167.157 263.751 167.422 263.508L168.55 262.494L169.685 261.483C170.073 261.147 170.423 260.819 170.731 260.425C171.045 260.042 171.312 259.618 171.529 259.166C171.747 258.716 171.894 258.229 172.07 257.753C171.887 258.744 171.569 259.748 170.973 260.605C170.684 261.032 170.309 261.419 169.951 261.766L168.874 262.839C168.514 263.198 168.159 263.549 167.786 263.906C167.543 264.136 167.198 264.246 166.867 264.207C166.531 264.171 166.223 263.976 166.035 263.699C165.843 263.418 165.788 263.051 165.885 262.726C165.932 262.563 166.015 262.41 166.126 262.283L166.388 261.996L167.416 260.876L168.454 259.766L168.968 259.215C169.123 259.045 169.256 258.856 169.369 258.655C169.826 257.855 169.829 256.822 169.678 255.877C169.598 255.4 169.413 254.945 169.24 254.461L168.726 253.03C168.405 252.066 168.063 251.112 167.758 250.143Z" fill="#964712"/>
<path d="M150.584 140.101C150.424 139.56 149.987 139.209 149.809 138.699C149.508 137.85 150.24 137.303 150.51 136.423C151.107 134.485 149.366 133.021 149.889 131.157C150.141 130.253 150.51 129.152 150.412 128.192C150.412 128.173 150.406 128.149 150.406 128.13C150.301 127.318 149.754 127.078 149.33 126.444C148.819 125.675 148.936 124.691 148.672 123.744C148.352 122.587 147.7 121.597 146.722 120.896C145.725 120.176 144.52 119.801 143.326 119.666C142.194 119.537 140.939 120.201 139.918 120.023C139.352 119.925 138.774 119.685 138.189 119.451C137.635 119.23 137.069 119.014 136.491 118.916C135.261 118.713 133.975 118.596 132.739 118.787C132.278 118.855 131.816 118.972 131.373 119.138C128.925 120.055 127.461 121.826 125.941 123.862C125.074 125.025 123.511 125.603 122.213 126.126C120.7 126.741 119.5 127.43 118.541 128.802C117.889 129.731 117.44 130.783 117.114 131.859C116.763 133.015 116.61 133.545 116.081 133.938C115.281 134.535 114.211 134.713 113.368 135.273C112.408 135.913 111.59 136.743 110.908 137.666C109.862 139.087 108.89 140.902 108.491 142.63C108.128 144.199 108.423 145.706 108.35 147.28C108.252 149.248 107.304 151.26 107.415 153.179C107.563 155.64 108.073 158.236 109.753 160.136C109.79 160.185 109.827 160.228 109.87 160.271C110.854 161.323 112.251 161.944 113.149 163.082C114.25 164.472 114.226 166.681 115.204 168.243C116.016 169.547 117.191 170.648 118.612 171.22C118.624 171.226 118.637 171.232 118.649 171.232C119.301 171.49 119.984 171.626 120.673 171.669C121.239 171.706 121.805 171.687 122.365 171.62C123.183 171.528 124.124 171.036 124.949 171.165C125.822 171.3 126.745 171.971 127.625 172.217C129.286 172.691 131.039 172.826 132.749 172.592C133.094 172.549 133.438 172.487 133.776 172.414C134.139 172.334 134.496 172.235 134.852 172.119C136.341 171.615 137.725 170.76 138.598 169.474C139.022 168.847 139.324 168.065 139.921 167.573C140.831 166.823 142.117 166.829 142.984 165.931C143.488 165.402 143.79 164.713 143.981 164.006C144.135 163.452 144.227 162.868 144.159 162.302C144.104 161.841 143.944 161.385 144.011 160.924C144.079 160.45 144.429 160.217 144.854 160.063C145.285 159.903 145.783 159.829 146.14 159.663C147.266 159.146 148.028 157.996 148.274 156.778C148.391 156.206 148.409 155.622 148.342 155.037C148.274 154.385 148.108 153.739 147.881 153.124C147.5 152.091 147.075 151.131 147.395 150.024C147.487 149.71 147.604 149.421 147.721 149.138C148.01 148.431 148.305 147.76 148.219 146.905C148.114 145.933 147.967 145.749 148.686 144.974C149.486 144.113 150.31 143.338 150.562 142.144C150.688 141.522 150.762 140.723 150.584 140.101Z" fill="#1E3135"/>
<path d="M134.937 172.089C134.929 172.089 134.912 172.072 134.903 172.064C133.365 170.408 132.377 167.755 132.106 164.604C131.878 161.824 132.224 158.8 133.052 156.502C134.007 153.832 135.865 152.286 137.657 150.791C140.039 148.806 142.287 146.93 142.033 142.731C141.949 141.193 141.729 139.749 141.509 138.346C141.036 135.203 140.58 132.238 141.678 128.723C142.903 124.803 144.517 122.336 146.756 120.967C146.764 120.959 146.781 120.95 146.79 120.95L146.646 120.849C144.382 122.252 142.76 124.735 141.535 128.681C140.42 132.229 140.876 135.212 141.358 138.372C141.578 139.766 141.797 141.211 141.882 142.74C142.127 146.863 139.905 148.713 137.565 150.673C135.749 152.185 133.881 153.748 132.91 156.452C132.074 158.767 131.719 161.817 131.955 164.613C132.225 167.79 133.222 170.468 134.768 172.149L134.937 172.089ZM120.752 171.667C120.752 171.659 120.744 171.65 120.744 171.642C119.848 169.217 119.772 167.249 120.499 165.263C120.769 164.52 121.217 163.86 121.648 163.218C122.003 162.694 122.375 162.154 122.636 161.57C123.616 159.407 123.354 157.067 123.109 154.803C122.94 153.231 122.763 151.601 122.991 150.03C123.346 147.563 124.258 145.662 125.695 144.369C126.388 143.752 127.292 143.355 128.162 142.966C129.159 142.518 130.198 142.062 130.899 141.285C132.783 139.215 132.783 135.836 132.775 132.557C132.775 130.707 132.775 128.966 133.113 127.538C134.051 123.542 135.529 121.218 138.233 119.512C138.25 119.504 138.258 119.495 138.275 119.487L138.098 119.419C135.394 121.143 133.899 123.491 132.961 127.504C132.623 128.949 132.623 130.698 132.623 132.556C132.631 135.8 132.631 139.154 130.79 141.182C130.106 141.934 129.083 142.382 128.103 142.821C127.216 143.218 126.303 143.624 125.594 144.249C124.124 145.567 123.195 147.502 122.84 150.002C122.612 151.599 122.789 153.238 122.958 154.818C123.211 157.167 123.456 159.38 122.493 161.509C122.24 162.075 121.876 162.616 121.521 163.131C121.082 163.773 120.625 164.441 120.355 165.209C119.62 167.22 119.688 169.205 120.583 171.655L120.752 171.667ZM109.802 160.193C109.81 160.184 109.819 160.168 109.819 160.159C110.089 159.441 110.47 158.748 110.96 158.106C111.154 157.844 111.366 157.582 111.568 157.337C112.185 156.568 112.827 155.782 113.182 154.819C113.782 153.172 113.697 151.355 113.621 149.606C113.52 147.485 113.418 145.297 114.534 143.405C115.514 141.732 117.162 140.896 118.758 140.085C120.186 139.358 121.664 138.615 122.636 137.272C123.54 136.022 123.692 134.442 123.836 132.904C123.904 132.203 123.98 131.468 124.123 130.8C124.63 128.46 125.694 126.339 127.384 124.311C129.251 122.072 131.017 120.281 132.791 118.845C132.825 118.82 132.85 118.794 132.884 118.769L132.588 118.811C130.848 120.239 129.107 122.005 127.265 124.21C125.558 126.263 124.485 128.4 123.97 130.766C123.826 131.442 123.75 132.177 123.683 132.887C123.539 134.399 123.387 135.962 122.509 137.187C121.554 138.488 120.169 139.198 118.69 139.95C117.076 140.77 115.403 141.614 114.398 143.33C113.266 145.265 113.367 147.478 113.469 149.616C113.545 151.356 113.629 153.148 113.038 154.761C112.692 155.699 112.058 156.485 111.45 157.236C111.239 157.489 111.028 157.751 110.833 158.013C110.343 158.655 109.963 159.356 109.692 160.066L109.802 160.193Z" fill="#295154"/>
<path d="M157.99 142.863L148.535 155.012L148.338 155.037C148.27 154.385 148.104 153.739 147.877 153.124C147.495 152.091 147.071 151.131 147.391 150.024C147.483 149.71 147.6 149.421 147.717 149.138L148.234 149.236C149.6 148.449 150.725 147.378 151.586 146.369C152.712 145.053 153.364 143.398 153.456 141.688L157.99 142.863Z" fill="#C56F3E"/>
<path d="M150.479 128.186C151.242 129.99 151.85 131.855 152.384 133.741C152.921 135.627 153.338 137.549 153.617 139.498C153.762 140.456 153.835 141.507 153.661 142.501C153.494 143.498 153.148 144.469 152.614 145.324C152.086 146.19 151.385 146.908 150.663 147.572C149.918 148.219 149.116 148.806 148.235 149.236C149.045 148.687 149.793 148.062 150.454 147.355C151.124 146.657 151.763 145.922 152.205 145.087C153.123 143.411 153.363 141.474 153.009 139.583C152.75 137.662 152.354 135.757 151.929 133.858C151.716 132.908 151.483 131.961 151.234 131.018C151.003 130.069 150.737 129.13 150.479 128.186Z" fill="#964712"/>
<path d="M149.025 193.385C148.294 190.259 147.839 187.101 147.452 183.935C147.092 180.766 146.802 177.588 146.79 174.378C147.523 177.503 147.978 180.661 148.363 183.828C148.722 186.997 149.012 190.175 149.025 193.385Z" fill="#B22860"/>
<path d="M272.798 117.557V205.873C272.798 208.949 270.291 211.447 267.215 211.447H188.119C185.043 211.447 182.545 208.949 182.545 205.873V117.557C182.545 114.481 185.043 111.983 188.119 111.983H267.215C270.291 111.983 272.798 114.481 272.798 117.557Z" fill="#3A6B35"/>
<path d="M201.243 139.491L201.91 137.994C202.545 138.414 203.448 138.701 204.278 138.701C205.119 138.701 205.447 138.465 205.447 138.117C205.447 136.979 201.366 137.809 201.366 135.143C201.366 133.861 202.412 132.815 204.545 132.815C205.478 132.815 206.443 133.03 207.15 133.44L206.525 134.947C205.837 134.578 205.161 134.393 204.535 134.393C203.684 134.393 203.377 134.68 203.377 135.039C203.377 136.136 207.447 135.316 207.447 137.961C207.447 139.212 206.402 140.278 204.269 140.278C203.089 140.28 201.92 139.962 201.243 139.491Z" fill="white"/>
<path d="M209.527 136.938V132.959H211.557V136.876C211.557 138.106 212.07 138.599 212.921 138.599C213.761 138.599 214.275 138.107 214.275 136.876V132.959H216.274V136.938C216.274 139.081 215.023 140.281 212.9 140.281C210.777 140.28 209.527 139.081 209.527 136.938Z" fill="white"/>
<path d="M225.685 132.959V140.137H224.013L220.845 136.312V140.137H218.856V132.959H220.527L223.696 136.784V132.959H225.685Z" fill="white"/>
<path d="M228.327 132.959H231.722C234.101 132.959 235.731 134.343 235.731 136.548C235.731 138.753 234.101 140.137 231.722 140.137H228.327V132.959ZM231.64 138.517C232.86 138.517 233.68 137.789 233.68 136.548C233.68 135.307 232.86 134.579 231.64 134.579H230.358V138.517H231.64Z" fill="white"/>
<path d="M242.712 138.742H239.677L239.113 140.137H237.042L240.211 132.959H242.21L245.389 140.137H243.277L242.712 138.742ZM242.116 137.245L241.194 134.948L240.27 137.245H242.116Z" fill="white"/>
<path d="M250.564 137.563V140.137H248.535V137.533L245.797 132.96H247.94L249.643 135.811L251.344 132.96H253.313L250.564 137.563Z" fill="white"/>
<path d="M208.281 141.929V148.679H207.587V142.546H205.996V141.929H208.281Z" fill="white"/>
<path d="M215.627 146.905H214.277V148.679H213.583V146.905H209.773V146.404L213.351 141.929H214.122L210.669 146.288H213.601V144.725H214.277V146.288H215.627V146.905Z" fill="white"/>
<path d="M216.326 144.089C216.326 143.79 216.557 143.568 216.838 143.568C217.117 143.568 217.359 143.79 217.359 144.089C217.359 144.388 217.118 144.619 216.838 144.619C216.558 144.62 216.326 144.388 216.326 144.089ZM216.326 148.197C216.326 147.898 216.557 147.676 216.838 147.676C217.117 147.676 217.359 147.898 217.359 148.197C217.359 148.496 217.118 148.728 216.838 148.728C216.558 148.728 216.326 148.497 216.326 148.197Z" fill="white"/>
<path d="M222.825 146.741C222.825 147.869 222.005 148.737 220.375 148.737C219.401 148.737 218.466 148.4 217.945 147.869L218.282 147.319C218.717 147.773 219.498 148.1 220.375 148.1C221.494 148.1 222.111 147.579 222.111 146.74C222.111 145.93 221.542 145.4 220.288 145.4H219.806V144.889L221.676 142.546H218.224V141.929H222.564V142.421L220.655 144.822C222.102 144.9 222.825 145.661 222.825 146.741Z" fill="white"/>
<path d="M223.794 145.305C223.794 143.154 224.923 141.871 226.485 141.871C228.047 141.871 229.185 143.154 229.185 145.305C229.185 147.455 228.046 148.738 226.485 148.738C224.923 148.737 223.794 147.455 223.794 145.305ZM228.472 145.305C228.472 143.501 227.661 142.508 226.486 142.508C225.309 142.508 224.499 143.501 224.499 145.305C224.499 147.108 225.31 148.101 226.486 148.101C227.661 148.101 228.472 147.108 228.472 145.305Z" fill="white"/>
<path d="M238.581 144.244C238.581 145.681 237.54 146.549 235.823 146.549H234.01V148.68H233.296V141.93H235.822C237.54 141.929 238.581 142.797 238.581 144.244ZM237.868 144.244C237.868 143.164 237.154 142.547 235.804 142.547H234.011V145.923H235.804C237.154 145.922 237.868 145.305 237.868 144.244Z" fill="white"/>
<path d="M247.13 141.929V148.679H246.445V143.279L243.793 147.821H243.456L240.804 143.308V148.68H240.119V141.93H240.707L243.639 146.935L246.542 141.93L247.13 141.929Z" fill="white"/>
<path d="M250.884 199.826H204.458C200.337 199.826 196.996 196.485 196.996 192.364C196.996 188.243 200.337 184.902 204.458 184.902H250.884C255.005 184.902 258.346 188.243 258.346 192.364C258.346 196.485 255.005 199.826 250.884 199.826Z" fill="#CBD18F"/>
<path d="M210.213 193.022C210.213 193.752 209.673 194.169 208.6 194.169H206.624V189.875H208.477C209.434 189.875 209.986 190.28 209.986 190.979C209.986 191.469 209.722 191.795 209.33 191.954C209.881 192.077 210.213 192.44 210.213 193.022ZM207.078 190.25V191.808H208.446C209.133 191.808 209.531 191.544 209.531 191.029C209.531 190.514 209.133 190.25 208.446 190.25H207.078ZM209.759 192.986C209.759 192.427 209.348 192.182 208.593 192.182H207.078V193.795H208.593C209.348 193.795 209.759 193.55 209.759 192.986Z" fill="white"/>
<path d="M211.593 192.023C211.593 190.771 212.55 189.839 213.85 189.839C215.138 189.839 216.101 190.765 216.101 192.023C216.101 193.28 215.138 194.207 213.85 194.207C212.55 194.206 211.593 193.274 211.593 192.023ZM215.648 192.023C215.648 190.998 214.88 190.244 213.85 190.244C212.814 190.244 212.04 190.998 212.04 192.023C212.04 193.047 212.813 193.801 213.85 193.801C214.88 193.801 215.648 193.047 215.648 192.023Z" fill="white"/>
<path d="M217.462 192.023C217.462 190.771 218.419 189.839 219.719 189.839C221.007 189.839 221.97 190.765 221.97 192.023C221.97 193.28 221.007 194.207 219.719 194.207C218.419 194.206 217.462 193.274 217.462 192.023ZM221.517 192.023C221.517 190.998 220.749 190.244 219.719 190.244C218.683 190.244 217.91 190.998 217.91 192.023C217.91 193.047 218.683 193.801 219.719 193.801C220.749 193.801 221.517 193.047 221.517 192.023Z" fill="white"/>
<path d="M225.043 192.15L224.166 193.04V194.169H223.712V189.875H224.166V192.47L226.687 189.875H227.208L225.35 191.819L227.337 194.169H226.798L225.043 192.15Z" fill="white"/>
<path d="M234.713 189.875V194.169H234.338L231.578 190.685V194.169H231.124V189.875H231.498L234.265 193.359V189.875H234.713Z" fill="white"/>
<path d="M236.454 192.023C236.454 190.771 237.411 189.839 238.711 189.839C239.999 189.839 240.962 190.765 240.962 192.023C240.962 193.28 239.999 194.207 238.711 194.207C237.411 194.206 236.454 193.274 236.454 192.023ZM240.509 192.023C240.509 190.998 239.741 190.244 238.711 190.244C237.675 190.244 236.901 190.998 236.901 192.023C236.901 193.047 237.674 193.801 238.711 193.801C239.741 193.801 240.509 193.047 240.509 192.023Z" fill="white"/>
<path d="M248.47 189.875L247.023 194.169H246.544L245.286 190.507L244.022 194.169H243.55L242.102 189.875H242.569L243.808 193.567L245.089 189.875H245.513L246.777 193.586L248.034 189.875H248.47Z" fill="white"/>
<path d="M210.724 176.594H196.588C194.098 176.594 192.081 174.576 192.081 172.087V157.951C192.081 155.462 194.099 153.443 196.588 153.443H210.724C213.213 153.443 215.232 155.461 215.232 157.951V172.087C215.231 174.576 213.213 176.594 210.724 176.594Z" fill="white"/>
<path d="M203.871 156.1C201.044 155.996 198.518 158.065 197.989 160.844C197.818 161.74 197.887 162.593 198.103 163.384C198.957 165.883 200.596 169.075 203.656 173.941C206.45 169.024 208.765 165.899 209.209 163.384C209.342 162.898 209.419 162.388 209.419 161.859C209.419 158.748 206.954 156.213 203.871 156.1ZM203.656 164.653C202.113 164.653 200.862 163.402 200.862 161.859C200.862 160.316 202.113 159.065 203.656 159.065C205.199 159.065 206.45 160.316 206.45 161.859C206.45 163.402 205.199 164.653 203.656 164.653Z" fill="#FF654B"/>
<path d="M261.935 161.1H225.646C224.913 161.1 224.32 160.506 224.32 159.774C224.32 159.041 224.914 158.447 225.646 158.447H261.935C262.668 158.447 263.262 159.041 263.262 159.774C263.261 160.506 262.667 161.1 261.935 161.1Z" fill="white"/>
<path d="M261.935 166.345H225.646C224.913 166.345 224.32 165.751 224.32 165.019C224.32 164.286 224.914 163.693 225.646 163.693H261.935C262.668 163.693 263.262 164.287 263.262 165.019C263.261 165.751 262.667 166.345 261.935 166.345Z" fill="white"/>
<path d="M251.625 171.591H225.646C224.913 171.591 224.32 170.997 224.32 170.265C224.32 169.532 224.914 168.938 225.646 168.938H251.625C252.358 168.938 252.952 169.532 252.952 170.265C252.952 170.997 252.358 171.591 251.625 171.591Z" fill="white"/>
<path d="M272.798 117.557V124.206H182.544V117.557C182.544 114.481 185.042 111.983 188.118 111.983H267.214C270.291 111.983 272.798 114.481 272.798 117.557Z" fill="#CBD18F"/>
<path d="M205.112 120.513H190.312C189.072 120.513 188.066 119.508 188.066 118.267C188.066 117.027 189.071 116.021 190.312 116.021H205.112C206.352 116.021 207.358 117.026 207.358 118.267C207.358 119.507 206.352 120.513 205.112 120.513Z" fill="white"/>
<path d="M319.642 366.561C354.914 366.561 383.507 361.511 383.507 355.282C383.507 349.053 354.914 344.003 319.642 344.003C284.37 344.003 255.777 349.053 255.777 355.282C255.777 361.511 284.37 366.561 319.642 366.561Z" fill="#3A6B35"/>
<path d="M339.454 223.094C340.26 226.49 340.697 230.273 340.088 233.742C332.251 237.396 332.614 223.094 332.614 223.094C335.486 224.195 339.454 223.094 339.454 223.094Z" fill="#0041A0"/>
<path d="M318.072 224.711C318.072 224.711 320.274 238.681 309.946 239.29C309.946 239.29 299.864 239.911 301.82 225.24C301.82 225.24 309.294 227.369 318.072 224.711Z" fill="#0041A0"/>
<path d="M324.168 236.719L322.458 262.912L318.761 250.665V250.659C318.946 248.789 319.124 247.263 319.247 246.31C319.333 245.597 319.622 244.932 320.053 244.354C321.861 241.929 323.189 239.302 324.168 236.719Z" fill="#0041A0"/>
<path d="M338.765 206.725C342.037 202.278 343.262 193.235 343.262 193.235C343.65 190.147 345.144 187.108 346.621 184.74C347.119 183.953 347.617 183.233 348.066 182.618L344.135 169.915L345.857 167.799L349.031 163.905L358.701 178.158C360.35 180.594 360.639 183.706 359.458 186.407C357.311 191.285 353.707 199.196 350.655 204.498C349.425 206.639 347.844 208.552 345.998 210.188C345.586 210.557 345.254 211.006 345.014 211.504C344.571 212.408 343.698 214.008 342.344 215.392L335.627 212.532L335.621 212.526L332.09 212.901C331.955 212.895 331.819 212.889 331.684 212.883C331.155 212.791 330.712 212.397 330.571 211.862C330.362 211.105 330.811 210.324 331.568 210.121L334.016 209.45L335.234 209.118C336.089 209.038 336.864 208.65 337.565 208.048H337.571C337.996 207.678 338.396 207.235 338.765 206.725Z" fill="#FFB380"/>
<path d="M323.116 212.999C326.216 212.839 329.163 212.777 331.685 212.882C331.765 212.9 331.851 212.907 331.937 212.907C331.992 212.907 332.042 212.907 332.091 212.901L335.622 212.526L335.628 212.532C335.696 212.667 336.778 214.777 337.892 217.878C338.446 219.416 339.012 221.194 339.454 223.094C339.454 223.094 335.486 224.195 332.614 223.094C332.614 223.094 332.251 237.396 340.088 233.742C339.977 234.369 339.836 234.991 339.651 235.6C339.485 236.147 339.466 236.726 339.559 237.292C340.451 242.822 345.034 270.965 347.986 284.35C348.244 285.525 348.417 286.712 348.509 287.912L352.366 338.956C352.366 338.956 352.04 339.048 351.486 339.184C349.13 339.762 342.603 341.072 338.937 338.956L325.804 274.477C325.613 273.536 325.373 272.601 325.097 271.678L322.458 262.912L324.168 236.719C323.19 239.303 321.861 241.929 320.053 244.353C319.622 244.931 319.333 245.596 319.247 246.309C319.124 247.263 318.946 248.788 318.761 250.658V250.664C318.398 254.312 318.011 259.276 318.011 263.883L315.495 314.515L316.184 340.972C316.184 340.972 315.92 341.052 315.458 341.175C313.059 341.809 305.321 343.636 301.568 341.735C301.156 341.532 300.787 341.274 300.485 340.972L298.061 279.422C298 277.896 297.821 276.389 297.52 274.895C296.099 267.876 291.781 245.067 291.522 226.041C291.473 222.781 291.553 219.631 291.78 216.691L291.805 216.488L292.377 216.549C293.244 216.641 294.118 216.475 294.881 216.069C294.881 216.069 294.887 216.069 294.893 216.063C295.114 216.032 297.686 215.639 301.5 215.134C307.177 214.383 315.611 213.393 323.116 212.999ZM309.946 239.29C320.274 238.681 318.072 224.711 318.072 224.711C309.294 227.368 301.82 225.24 301.82 225.24C299.863 239.911 309.946 239.29 309.946 239.29Z" fill="#1F75FE"/>
<path d="M351.486 339.188C351.486 339.188 352.009 343.383 351.917 347.628C351.88 349.123 350.902 350.421 349.469 350.827C348.227 351.184 346.615 351.455 344.929 351.227C344.252 351.135 343.607 350.876 343.059 350.464C341.933 349.615 339.516 347.985 337.627 347.985C337.627 347.985 331.912 348.176 329.439 343.851C329.205 343.433 329.039 342.971 328.941 342.498C328.879 342.172 328.812 341.76 328.8 341.366C328.782 340.677 329.188 340.05 329.827 339.797C331.291 339.2 334.834 338.075 338.937 338.954C342.603 341.07 349.13 339.76 351.486 339.182V339.188Z" fill="#0F3772"/>
<path d="M344.135 169.915L348.066 182.618C347.617 183.233 347.119 183.953 346.621 184.74L346.486 184.679L340.033 174.948L344.135 169.915Z" fill="#ED8945"/>
<path d="M335.628 212.532L342.345 215.392C341.207 216.561 339.731 217.563 337.891 217.877C336.778 214.777 335.695 212.667 335.628 212.532Z" fill="#ED8945"/>
<path d="M316.509 131.032C317.512 130.946 318.379 130.62 319.068 130.251C319.222 130.165 319.376 130.073 319.517 129.968C319.517 129.968 320.876 133.794 321.405 135.184L321.411 135.264C321.066 135.283 320.716 135.332 320.377 135.406L310.818 137.479L305.331 138.666L305.27 138.389C305.221 138.038 305.165 137.7 305.098 137.386H305.104L306.63 128.122L306.489 128.497C306.046 129.703 305.068 130.638 303.838 131.025L300.818 131.972L299.452 132.396C294.949 133.288 294.906 129.769 294.906 129.769L295.49 122.492L296.05 115.455L296.124 114.539C296.284 112.509 296.671 110.504 297.262 108.554L298.012 106.094L298.024 106.069C298.325 106.143 298.695 106.161 299.125 106.094C299.125 106.094 302.127 104.839 302.127 106.451L300.343 111.052C300.128 111.612 300.183 112.245 300.497 112.756L301.217 113.937C301.475 114.355 301.623 114.841 301.641 115.333L301.709 117.197C301.721 117.621 301.893 118.009 302.164 118.298C302.441 118.593 302.816 118.784 303.234 118.827C304.071 118.913 304.846 118.372 305.055 117.56L305.129 117.265C305.271 116.724 305.793 116.373 306.347 116.459C307.387 116.625 308.888 117.222 308.918 119.319H308.924C309.164 119.694 309.736 121.244 310.019 122.032C310.13 122.333 310.179 122.653 310.191 122.973C310.253 124.948 310.683 126.578 311.132 127.759C311.372 128.392 311.723 128.958 312.178 129.438C312.971 130.305 314.06 130.884 315.272 131.019C315.703 131.069 316.115 131.069 316.509 131.032Z" fill="#FFB380"/>
<path d="M315.457 341.175C318.465 346.342 317.136 353.976 316.669 356.166C316.577 356.59 316.343 356.978 315.986 357.236C313.858 358.792 310.308 358.774 308.223 358.595C307.294 358.515 306.408 358.257 305.553 357.906C301.801 356.344 296.615 357.002 296.615 357.002C286.656 358.349 281.501 355.415 279.803 354.16C279.348 353.815 279.089 353.25 279.194 352.69C279.643 350.346 282.749 349.867 282.749 349.867C292.911 348.538 301.566 341.735 301.566 341.735C305.32 343.636 313.058 341.809 315.457 341.175Z" fill="#0F3772"/>
<path d="M306.63 128.123L305.104 137.387H305.098C304.071 132.497 300.817 131.974 300.817 131.974L303.837 131.027C305.067 130.64 306.045 129.705 306.488 128.499L306.63 128.123Z" fill="#ED8945"/>
<path d="M303.05 210.895C303.425 211.172 303.677 211.602 303.72 212.101C303.726 212.15 303.726 212.199 303.726 212.249C303.726 213.098 303.08 213.83 302.213 213.916L300.841 214.051C300.257 213.005 299.826 211.91 299.568 210.754L301.912 210.569C302.336 210.532 302.736 210.662 303.05 210.895Z" fill="#FFB380"/>
<path d="M291.805 216.487L291.78 216.69L287.935 224.182C286.655 222.878 285.616 221.131 284.933 219.802C284.336 218.646 284.035 217.366 284.035 216.062V213.405C284.035 212.907 283.986 212.409 283.893 211.916L279.384 192.379C278.141 187.003 278.769 181.368 281.156 176.398L283.069 172.406C284.471 172.83 286.391 173.292 288.894 173.642C289.46 173.728 290.057 173.802 290.684 173.87L292.954 186.72L291.933 190.503C291.638 191.592 291.478 192.705 291.459 193.831C291.434 195.381 291.428 197.768 291.564 200.253C291.767 204.257 292.321 208.508 293.705 209.892C293.705 209.892 294.326 210.975 296.818 210.975L299.568 210.754C299.826 211.91 300.257 213.005 300.841 214.051L298.971 214.236C298.442 214.291 297.925 214.445 297.452 214.697L294.893 216.063C294.887 216.069 294.881 216.069 294.881 216.069C294.118 216.475 293.245 216.641 292.377 216.549L291.805 216.487Z" fill="#FFB380"/>
<path d="M296.326 174.233V174.251L292.955 186.72L290.685 173.87C292.34 174.049 294.217 174.178 296.326 174.233Z" fill="#ED8945"/>
<path d="M296.05 115.457L295.49 122.494L292.82 121.83L296.05 115.457Z" fill="#ED8945"/>
<path d="M287.936 224.182L291.781 216.69C291.553 219.63 291.473 222.78 291.523 226.04H291.511C290.2 226.04 288.988 225.265 287.936 224.182Z" fill="#ED8945"/>
<path d="M330.571 211.861C330.362 211.104 330.811 210.323 331.567 210.12L334.015 209.45C328.614 209.087 323.902 209.013 319.898 209.105C308.979 209.357 303.289 210.827 303.049 210.895C303.424 211.172 303.676 211.602 303.719 212.101C303.725 212.15 303.725 212.199 303.725 212.249C303.725 213.098 303.079 213.83 302.212 213.916L300.84 214.051L298.97 214.236C298.441 214.291 297.924 214.445 297.451 214.697L294.892 216.063C295.113 216.032 297.685 215.639 301.499 215.134C307.177 214.383 315.61 213.393 323.115 213C326.215 212.84 329.162 212.778 331.684 212.883C331.155 212.79 330.713 212.396 330.571 211.861Z" fill="#BC1B1B"/>
<path d="M349.216 161.949L348.429 160.473C348.318 160.614 346.602 162.817 344.597 165.326C342.376 168.113 339.787 171.274 338.661 172.4H338.655C338.563 173.28 338.44 174.147 338.28 175.014L337.8 177.69L340.033 174.946L344.136 169.914L345.858 167.798L349.032 163.904C349.48 163.351 349.554 162.576 349.216 161.949Z" fill="#BC1B1B"/>
<path d="M305.203 166.31C304.04 165.818 302.822 165.51 301.574 165.271C299.07 164.791 296.468 164.6 294.045 163.825C291.043 162.859 287.574 160.749 285.55 157.901L281.183 168.272C281.183 168.272 286.326 170.228 292.766 171.489C294.513 170.738 296.395 170.136 297.982 169.865C298.708 169.742 299.421 169.711 300.117 169.773C304.011 170.117 307.099 173.285 306.957 177.339C306.785 182.309 304.256 184.764 300.517 187.581C298.598 189.027 296.826 190.546 295.461 192.299C295.344 193.056 295.246 193.812 295.166 194.569C294.729 198.721 294.625 210.809 293.708 209.892C293.708 209.892 294.329 210.975 296.821 210.975L299.571 210.754C299.147 208.915 299.14 206.916 299.602 204.67C300.408 200.764 302.524 197.953 305.089 195C307.55 192.17 310.791 190.208 312.569 186.77C314.427 183.19 314.402 177.986 312.772 174.307C311.336 171.071 308.531 167.7 305.203 166.31ZM346.928 157.637C346.184 157.256 345.403 156.948 344.584 156.733C342.991 156.321 341.305 156.401 339.663 156.241C339.405 156.216 339.146 156.186 338.888 156.143C334.625 155.479 331.568 154.162 328.818 150.816C325.576 146.861 325.195 141.54 327.557 137.523L325.718 136.354C324.654 135.677 323.442 135.308 322.212 135.259C320.945 136.969 320.139 139.221 319.856 141.281C319.13 146.553 321.185 151.855 324.974 155.405C328.862 159.047 333.309 159.188 338.021 160.935C338.458 161.095 338.907 161.267 339.356 161.458C340.605 161.975 341.866 162.608 342.881 163.42C343.57 163.974 344.13 164.62 344.597 165.327C346.602 162.817 348.318 160.615 348.429 160.474L346.928 157.637ZM328.879 198.636C327.397 194.521 329.568 189.194 330.558 185.158C332.121 178.797 333.474 171.508 328.651 166.218C324.616 161.801 319.381 158.812 314.651 155.176C310.899 152.291 308.863 146.49 309.441 141.84C309.632 140.284 310.185 138.863 310.819 137.479L305.332 138.666L299.814 139.859C297.698 140.32 295.773 141.421 294.308 143.021L292.044 145.482C291.638 145.925 291.257 146.38 290.9 146.854C292.696 148.816 295.403 150.428 296.861 151.332C303.498 155.429 311.698 157.286 317.228 163.155C323.109 169.399 324.019 178.22 321.245 186.02C318.944 192.491 316.398 202.37 319.898 209.106C323.903 209.014 328.614 209.088 334.015 209.451L335.233 209.119V205.736C332.355 204.467 330.153 202.154 328.879 198.636Z" fill="#FC4C4C"/>
<path d="M306.956 177.34C307.097 173.286 304.009 170.118 300.116 169.774C299.421 169.712 298.707 169.743 297.981 169.866C296.394 170.137 294.512 170.739 292.765 171.49C294.795 171.896 296.954 172.222 299.126 172.4C298.665 173.55 298.357 174.258 298.357 174.258C298.031 174.258 297.711 174.258 297.391 174.252C297.391 174.252 297.508 180.582 295.625 191.248C295.564 191.599 295.508 191.949 295.459 192.3C296.825 190.547 298.596 189.028 300.515 187.582C304.256 184.764 306.784 182.31 306.956 177.34ZM342.88 163.419C341.865 162.607 340.604 161.973 339.355 161.457C338.906 161.266 338.457 161.094 338.02 160.934C333.308 159.187 328.861 159.046 324.973 155.404C321.184 151.855 319.129 146.552 319.855 141.28C320.138 139.219 320.944 136.968 322.211 135.258C321.947 135.24 321.676 135.24 321.411 135.264C321.066 135.282 320.716 135.332 320.377 135.406L310.818 137.479C310.184 138.863 309.631 140.284 309.44 141.84C308.862 146.49 310.898 152.291 314.65 155.176C319.38 158.811 324.615 161.801 328.65 166.218C333.473 171.508 332.119 178.797 330.557 185.158C329.567 189.193 327.395 194.52 328.878 198.636C330.151 202.155 332.354 204.468 335.232 205.735V194.527C335.232 192.841 335.38 191.162 335.681 189.501L337.797 177.69L338.277 175.014C338.437 174.147 338.56 173.279 338.652 172.4H338.658C339.784 171.274 342.373 168.112 344.594 165.326C344.129 164.619 343.569 163.973 342.88 163.419ZM338.888 156.142C339.146 156.185 339.405 156.216 339.663 156.24C341.305 156.4 342.991 156.32 344.584 156.732C345.402 156.947 346.183 157.255 346.928 157.636L342.259 148.827C341.121 146.686 339.405 144.909 337.301 143.697L327.557 137.521C325.195 141.538 325.576 146.859 328.818 150.814C331.568 154.161 334.625 155.478 338.888 156.142ZM296.862 151.332C295.404 150.428 292.698 148.816 290.901 146.854C289.868 148.201 289.006 149.677 288.348 151.246L285.549 157.902C287.573 160.75 291.042 162.86 294.044 163.826C296.468 164.601 299.07 164.792 301.573 165.272C302.822 165.512 304.04 165.819 305.202 166.311C308.53 167.701 311.335 171.072 312.768 174.308C314.398 177.986 314.423 183.191 312.565 186.771C310.787 190.21 307.545 192.172 305.085 195.001C302.52 197.954 300.404 200.765 299.598 204.671C299.137 206.916 299.143 208.916 299.567 210.755L301.911 210.57C302.335 210.533 302.735 210.662 303.049 210.896C303.289 210.828 308.979 209.358 319.898 209.106C316.398 202.37 318.945 192.491 321.245 186.02C324.019 178.22 323.109 169.399 317.228 163.155C311.699 157.286 303.499 155.428 296.862 151.332Z" fill="#FF654B"/>
<path d="M292.765 171.49C286.325 170.229 281.182 168.273 281.182 168.273L280.475 169.958C280.18 170.659 280.506 171.465 281.213 171.754C281.687 171.945 282.302 172.172 283.071 172.4V172.406C284.473 172.83 286.393 173.292 288.896 173.642C289.462 173.728 290.059 173.802 290.686 173.87C292.341 174.049 294.217 174.178 296.327 174.233C296.672 174.239 297.028 174.245 297.391 174.251C297.711 174.257 298.031 174.257 298.357 174.257C298.357 174.257 298.665 173.55 299.126 172.399C296.954 172.222 294.795 171.896 292.765 171.49Z" fill="#BC1B1B"/>
<path d="M304.619 123.3C305.547 123.334 306.455 123.126 307.146 122.636C307.819 122.119 308.264 121.345 308.475 120.509C308.645 119.697 308.727 118.753 308.374 118.001C308.042 117.228 307.233 116.715 306.348 116.459C306.813 116.465 307.28 116.574 307.722 116.776C308.157 116.99 308.552 117.334 308.799 117.778C309.06 118.213 309.171 118.72 309.204 119.205C309.222 119.45 309.187 119.689 309.179 119.932C309.175 120.17 309.133 120.432 309.07 120.664C308.823 121.602 308.271 122.51 307.41 123.034C306.536 123.544 305.5 123.568 304.619 123.3Z" fill="#C46627"/>
<path d="M349.96 180.262C349.384 181.081 348.836 181.907 348.283 182.726C347.771 183.573 347.207 184.385 346.686 185.219C345.656 186.902 344.732 188.631 343.891 190.447C344.27 188.473 345.129 186.614 346.161 184.9C346.703 184.054 347.297 183.246 347.897 182.444C348.523 181.661 349.206 180.923 349.96 180.262Z" fill="#C46627"/>
<path d="M326.831 220.701C327.04 223.328 326.884 225.979 326.523 228.595C326.166 231.215 325.517 233.794 324.643 236.296C323.733 238.783 322.56 241.189 321.04 243.364C320.676 243.911 320.216 244.427 319.896 244.95C319.566 245.497 319.411 246.094 319.348 246.756C319.151 248.055 318.976 249.358 318.76 250.657C318.837 249.344 318.953 248.033 319.048 246.719C319.074 246.072 319.224 245.358 319.556 244.761C319.714 244.455 319.923 244.176 320.104 243.914C320.289 243.646 320.472 243.375 320.646 243.1C322.058 240.909 323.212 238.552 324.064 236.087C324.972 233.641 325.604 231.097 326.057 228.521C326.288 227.234 326.471 225.936 326.593 224.631C326.736 223.327 326.81 222.016 326.831 220.701Z" fill="#002F68"/>
<path d="M342.345 209.45C341.492 209.274 340.72 208.992 339.941 208.74C339.159 208.477 338.418 208.223 337.572 208.05L337.566 208.047L337.572 208.044C337.98 207.874 338.435 207.853 338.868 207.887C339.306 207.916 339.727 208.027 340.137 208.157C340.544 208.298 340.937 208.469 341.308 208.684C341.678 208.897 342.035 209.139 342.345 209.45Z" fill="#C46627"/>
<path d="M300.842 214.051C300.386 214.166 299.926 214.241 299.468 214.337C299 214.415 298.566 214.488 298.157 214.654C297.953 214.735 297.758 214.832 297.568 214.94L296.961 215.288L295.736 215.961C295.32 216.168 294.928 216.414 294.444 216.581C293.973 216.736 293.478 216.824 292.986 216.81C292.485 216.805 292.028 216.691 291.572 216.612C291.115 216.51 290.656 216.429 290.201 216.308C290.671 216.29 291.137 216.312 291.605 216.312C292.074 216.32 292.541 216.367 292.972 216.33C293.41 216.289 293.842 216.2 294.244 216.034C294.638 215.884 295.04 215.633 295.452 215.416L296.69 214.775L297.315 214.466C297.535 214.355 297.769 214.266 298.006 214.201C298.479 214.056 298.981 214.044 299.438 214.039C299.905 214.044 300.372 214.028 300.842 214.051Z" fill="#C46627"/>
<path d="M322.919 104.077C322.125 103.819 321.523 103.167 321.369 102.348C320.354 96.769 315.415 95.342 313.36 94.991C312.8 94.893 312.456 94.874 312.456 94.874C308.574 94.32 305.646 94.53 303.45 95.12C299.864 96.067 298.203 98.023 297.465 99.34C297.041 100.115 296.924 100.663 296.924 100.663C296.924 100.663 295.595 105.424 298.025 106.07C298.326 106.144 298.696 106.162 299.126 106.095C299.126 106.095 302.128 104.84 302.128 106.452L300.344 111.053C300.129 111.613 300.184 112.246 300.498 112.757L301.218 113.938C301.476 114.356 301.624 114.842 301.642 115.334L301.71 117.198C301.722 117.622 301.894 118.01 302.165 118.299C302.442 118.594 302.817 118.785 303.235 118.828C304.072 118.914 304.847 118.373 305.056 117.561L305.13 117.266C305.272 116.725 305.794 116.374 306.348 116.46C307.388 116.626 308.889 117.223 308.919 119.32H308.925C309.165 119.695 309.737 121.245 310.02 122.033C310.131 122.334 310.18 122.654 310.192 122.974C310.254 124.949 310.684 126.579 311.133 127.76C311.373 128.394 311.723 128.96 312.179 129.439C312.972 130.306 314.061 130.885 315.273 131.02C315.704 131.069 316.116 131.069 316.509 131.032C317.512 130.946 318.379 130.62 319.068 130.251C319.222 130.165 319.376 130.072 319.517 129.968C320.317 129.396 320.901 128.566 321.147 127.6C321.485 126.253 322.211 124.389 322.759 123.073C323.091 122.267 323.491 121.492 324.02 120.797C324.371 120.336 324.697 119.801 324.998 119.247C325.724 117.918 326.284 116.46 326.603 115.568C326.806 114.996 326.948 114.399 327.021 113.797C327.926 106.802 324.82 104.704 322.919 104.077Z" fill="#103772"/>
<path d="M325.076 119.1V119.092C325.169 116.397 324.814 113.786 324.028 111.505C323.58 110.187 322.668 108.877 321.333 107.627C321.105 107.407 320.851 107.213 320.615 107.036C320.116 106.656 319.643 106.293 319.356 105.71C318.849 104.696 318.646 103.598 318.452 102.542C318.182 101.063 317.903 99.543 316.83 98.191C315.926 97.059 314.676 95.8591 313.544 95.0311L313.189 94.972C313.231 94.997 313.273 95.0231 313.316 95.0571C314.71 96.0541 315.977 97.38 316.712 98.293C317.76 99.611 318.038 101.115 318.3 102.568C318.503 103.641 318.706 104.748 319.213 105.778C319.517 106.395 320.007 106.766 320.522 107.155C320.759 107.341 321.004 107.527 321.232 107.738C322.55 108.98 323.446 110.264 323.885 111.557C324.679 113.855 325.034 116.516 324.924 119.245C324.924 119.296 324.916 119.346 324.916 119.397V119.405L325.076 119.1ZM316.61 131.021C318.824 127.489 320.006 122.353 319.542 118.213C319.187 115.062 318.469 111.479 315.791 108.818C315.58 108.598 315.377 108.412 315.191 108.235C314.329 107.415 313.805 106.925 313.569 105.599C313.527 105.362 313.485 105.126 313.442 104.898C313.07 102.735 312.682 100.505 310.95 98.9921C309.074 97.3361 306.869 96.1201 304.225 95.2661C304.005 95.1901 303.803 95.131 303.608 95.08L303.304 95.165C303.346 95.173 303.389 95.1821 303.431 95.1991C303.668 95.2501 303.913 95.326 304.174 95.41C306.802 96.255 308.981 97.463 310.848 99.111C312.538 100.59 312.918 102.795 313.29 104.924C313.332 105.161 313.375 105.389 313.417 105.625C313.662 107.002 314.203 107.509 315.09 108.345C315.276 108.522 315.47 108.708 315.69 108.928C317.168 110.398 318.765 112.662 319.391 118.23C319.856 122.353 318.664 127.481 316.442 130.988C316.434 131.005 316.417 131.022 316.408 131.039L316.61 131.021ZM312.242 129.5C312.242 129.492 312.242 129.483 312.25 129.475C314.607 124.769 314.734 119.218 312.622 113.853C312.098 112.552 311.532 111.521 310.451 110.71C310.257 110.575 310.037 110.457 309.817 110.347C309.412 110.144 308.998 109.941 308.778 109.536C308.415 108.894 308.474 107.914 308.525 106.976C308.559 106.317 308.593 105.7 308.5 105.193C308.103 103.224 306.743 100.749 304.588 99.659C302.679 98.696 300.33 98.4931 297.981 99.0851C297.871 99.1101 297.727 99.161 297.525 99.237L297.516 99.262L297.415 99.448C297.44 99.431 297.466 99.423 297.491 99.414C297.736 99.321 297.897 99.27 298.015 99.236C300.338 98.653 302.645 98.8471 304.52 99.7941C306.632 100.867 307.959 103.292 308.347 105.226C308.44 105.708 308.406 106.316 308.372 106.966C308.313 107.929 308.262 108.926 308.642 109.61C308.887 110.049 309.326 110.269 309.749 110.489C309.969 110.599 310.18 110.7 310.357 110.835C311.422 111.621 311.954 112.592 312.478 113.91C314.573 119.224 314.447 124.708 312.123 129.371L312.242 129.5Z" fill="#0F55BA"/>
<path d="M339.355 161.457C339.376 163.505 339.272 165.546 339.138 167.584C339.014 169.623 338.801 171.654 338.57 173.683C338.318 175.709 338.038 177.734 337.67 179.744C337.306 181.755 336.898 183.76 336.357 185.735C336.425 184.712 336.562 183.702 336.64 182.683L336.971 179.644C337.173 177.616 337.428 175.597 337.659 173.574C337.912 171.553 338.148 169.531 338.438 167.513L338.862 164.484C339.034 163.475 339.169 162.464 339.355 161.457Z" fill="#840606"/>
<path d="M298.356 174.258C298.763 172.046 299.435 169.928 300.169 167.832C300.93 165.746 301.755 163.683 302.846 161.715C302.44 163.928 301.769 166.046 301.033 168.141C300.271 170.226 299.446 172.289 298.356 174.258Z" fill="#840606"/>
</svg>
