<svg width="324" height="215" viewBox="0 0 324 215" fill="none" xmlns="http://www.w3.org/2000/svg">
<g clip-path="url(#clip0_10_31)">
<path fill-rule="evenodd" clip-rule="evenodd" d="M82.8936 159.219C64.4818 141.352 54.2179 113.918 61.2048 89.291C68.1916 64.6635 94.8549 45.8863 119.833 51.7657C131.644 54.5445 142.19 62.149 154.281 63.1153C177.086 64.9385 195.589 43.0662 218.379 41.1502C240.335 39.3052 260.388 57.7948 265.897 79.1105C271.405 100.426 265.102 123.189 254.841 142.64C239.764 171.217 212.336 196.696 179.959 196.347C152.676 196.053 104.077 176.43 82.8936 159.219Z" fill="#CBD18F"/>
<path d="M150.856 175.344C146.124 152.466 140.21 144.839 140.21 144.839L137.95 143.087L135.233 140.976L135.246 140.705L134.602 140.486L134.45 140.368L134.202 140.177L134.162 140.22L134.078 140.308L121.783 136.128L106.184 130.83L98.9604 121.441C97.784 119.912 96.2695 118.676 94.5355 117.83C92.8015 116.984 90.8952 116.551 88.9659 116.566L65.8971 116.736C62.7779 116.759 59.7801 117.949 57.4932 120.07L42.3304 134.134L18.7038 145.418L18.6639 145.378L18.4158 145.556L14.7653 147.301L14.916 148.085L12.6565 149.716C12.6565 149.716 6.74214 156.813 2.01061 178.1C0.806964 183.517 0.214485 195.136 0.00063149 209.454C-0.0101103 210.178 0.123244 210.897 0.392938 211.57C0.662632 212.242 1.06329 212.854 1.57161 213.37C2.07992 213.886 2.68576 214.296 3.3539 214.576C4.02204 214.856 4.73914 215 5.46351 215H131.658L147.408 215C148.132 215 148.849 214.856 149.517 214.576C150.184 214.296 150.79 213.887 151.298 213.372C151.806 212.856 152.207 212.245 152.477 211.573C152.747 210.902 152.881 210.183 152.871 209.459C152.662 193.879 152.07 181.218 150.856 175.344Z" fill="#3A6B35"/>
<path d="M128.512 86C123.602 86 118.894 87.9504 115.422 91.422C111.95 94.8937 110 99.6023 110 104.512C110 109.422 111.95 114.13 115.422 117.602C118.894 121.074 123.602 123.024 128.512 123.024H266.471C271.38 123.024 276.089 121.074 279.561 117.602C283.032 114.13 284.983 109.422 284.983 104.512C284.983 99.6023 283.032 94.8937 279.561 91.422C276.089 87.9504 271.38 86 266.471 86H128.512Z" fill="#E5E5E5"/>
<path d="M128.512 89.7465C124.596 89.7465 120.84 91.3021 118.071 94.0712C115.302 96.8403 113.747 100.596 113.747 104.512C113.747 108.428 115.302 112.184 118.071 114.953C120.84 117.722 124.596 119.278 128.512 119.278H266.471C270.387 119.278 274.142 117.722 276.912 114.953C279.681 112.184 281.236 108.428 281.236 104.512C281.236 100.596 279.681 96.8403 276.912 94.0712C274.142 91.3021 270.387 89.7465 266.471 89.7465H128.512Z" fill="white"/>
<path d="M81.0542 107.899C97.7456 107.899 111.277 94.3681 111.277 77.6767C111.277 60.9853 97.7456 47.4543 81.0542 47.4543C64.3628 47.4543 50.8318 60.9853 50.8318 77.6767C50.8318 94.3681 64.3628 107.899 81.0542 107.899Z" fill="#FFAFA7"/>
<path d="M73.3227 106.419C73.1936 106.135 73.0649 105.85 72.9365 105.564C72.986 105.565 73.0349 105.572 73.0844 105.574L73.3227 106.419Z" fill="#2F2E41"/>
<path d="M49.9913 48.8286C51.5199 47.6092 53.3064 46.4873 55.2607 46.5503C57.215 46.6133 59.1968 48.3784 58.7919 50.2914C62.3816 43.9355 68.0953 39.0472 74.9301 36.4843C81.7649 33.9214 89.284 33.8479 96.1676 36.2765C101.025 37.9902 105.788 41.4186 106.904 46.447C107.19 47.7378 107.252 49.1531 108.058 50.2013C109.074 51.5229 111.018 51.8218 112.619 51.3569C112.635 51.3523 112.651 51.3476 112.667 51.3428C112.938 51.2504 113.23 51.2414 113.505 51.3167C113.781 51.3921 114.028 51.5485 114.213 51.7656C114.399 51.9827 114.516 52.2506 114.548 52.5346C114.58 52.8186 114.526 53.1056 114.393 53.3586L113.018 55.9218C114.751 56.3079 116.551 56.2696 118.265 55.8102C118.55 55.7355 118.851 55.7507 119.127 55.8538C119.403 55.9569 119.64 56.1428 119.806 56.386C119.972 56.6292 120.058 56.9178 120.054 57.2123C120.049 57.5067 119.954 57.7924 119.78 58.0304C115.249 64.2523 107.678 68.2701 99.9513 68.2229C94.4601 68.1894 88.9122 66.2968 83.568 67.5596C81.5005 68.0481 79.5686 68.9933 77.9141 70.3259C76.2595 71.6584 74.9243 73.3444 74.0064 75.2603C73.0884 77.1762 72.6111 79.2732 72.6093 81.3976C72.6076 83.5221 73.0814 85.6199 73.9962 87.5373C72.3544 85.7415 69.1807 86.1667 67.5013 87.9274C65.8219 89.6881 65.3871 92.316 65.5564 94.7434C65.8151 98.4558 67.2697 101.954 68.8031 105.359C55.9468 104.954 43.7868 95.9355 39.6938 83.7377C35.5836 71.4889 39.8912 56.8857 49.9913 48.8286Z" fill="#2F2E41"/>
<path opacity="0.2" d="M29.7467 168.437L38.2235 214.557L43.3097 215L29.7467 168.437Z" fill="black"/>
<path opacity="0.2" d="M123.119 164.959L114.643 214.524L109.557 215L123.119 164.959Z" fill="black"/>
<path d="M57.2213 33.3069C55.596 33.9856 53.9 33.2418 53.1888 31.5385C52.4667 29.8092 53.1411 28.0537 54.7925 27.3642C56.444 26.6745 58.1097 27.4201 58.8434 29.1774C59.5662 30.9082 58.8991 32.6063 57.2213 33.3069ZM54.1079 23.9602L52.8156 24.4999C52.4928 24.6331 52.1317 24.6403 51.8038 24.52C51.4759 24.3997 51.2051 24.1608 51.045 23.8504L50.9811 23.7254C49.5906 21.2177 49.4314 18.17 50.5104 14.6716C51.5099 11.5333 51.9251 9.32624 51.0902 7.32672C50.1248 5.0149 48.0635 4.29072 45.4348 5.33978C44.4153 5.7655 44.0909 5.75871 43.2886 6.55462C43.114 6.72986 42.906 6.86815 42.6769 6.96126C42.4478 7.05437 42.2022 7.10038 41.9549 7.09656C41.7159 7.09374 41.4798 7.04282 41.2609 6.94681C41.0419 6.85081 40.8446 6.71169 40.6805 6.53777C40.3645 6.20258 40.1875 5.75997 40.1851 5.29932C40.1828 4.83866 40.3554 4.39428 40.668 4.05592C42.0166 2.64424 43.6431 1.52742 45.445 0.775935C51.0929 -1.58243 53.9361 1.89936 55.2372 5.01524C56.5098 8.06293 55.7939 10.8907 54.6437 14.5529C53.6798 17.596 53.7359 19.8508 54.8309 22.0929C54.9099 22.2624 54.9539 22.4461 54.9602 22.633C54.9664 22.8199 54.9349 23.0062 54.8673 23.1806C54.7998 23.355 54.6977 23.514 54.5672 23.648C54.4367 23.7819 54.2805 23.8882 54.1079 23.9602Z" fill="#3A6B35"/>
<path d="M158.985 113.341H131.537C131.449 113.342 131.363 113.325 131.282 113.292C131.202 113.259 131.128 113.21 131.066 113.149C131.004 113.088 130.955 113.014 130.922 112.934C130.888 112.853 130.871 112.767 130.871 112.68C130.871 112.593 130.888 112.506 130.922 112.426C130.955 112.345 131.004 112.272 131.066 112.211C131.128 112.149 131.202 112.101 131.282 112.068C131.363 112.035 131.449 112.018 131.537 112.019H158.985C159.16 112.02 159.327 112.09 159.45 112.214C159.573 112.338 159.642 112.505 159.642 112.68C159.642 112.854 159.573 113.022 159.45 113.146C159.327 113.27 159.16 113.34 158.985 113.341Z" fill="#3A6B35"/>
<path d="M193.806 113.561H166.357C166.27 113.562 166.183 113.545 166.103 113.512C166.022 113.479 165.948 113.431 165.887 113.369C165.825 113.308 165.776 113.235 165.742 113.154C165.709 113.074 165.691 112.987 165.691 112.9C165.691 112.813 165.709 112.727 165.742 112.646C165.776 112.566 165.825 112.493 165.887 112.431C165.948 112.37 166.022 112.321 166.103 112.288C166.183 112.255 166.27 112.238 166.357 112.239H193.806C193.893 112.238 193.979 112.255 194.06 112.288C194.141 112.321 194.214 112.37 194.276 112.431C194.338 112.493 194.387 112.566 194.421 112.646C194.454 112.727 194.471 112.813 194.471 112.9C194.471 112.987 194.454 113.074 194.421 113.154C194.387 113.235 194.338 113.308 194.276 113.369C194.214 113.431 194.141 113.479 194.06 113.512C193.979 113.545 193.893 113.562 193.806 113.561Z" fill="#3A6B35"/>
<path d="M229.105 113.322H201.657C201.482 113.321 201.315 113.251 201.192 113.127C201.069 113.003 201 112.836 201 112.661C201 112.487 201.069 112.319 201.192 112.195C201.315 112.071 201.482 112.001 201.657 112H229.105C229.193 111.999 229.279 112.016 229.36 112.049C229.44 112.082 229.514 112.131 229.576 112.192C229.638 112.254 229.687 112.327 229.72 112.407C229.754 112.488 229.771 112.574 229.771 112.661C229.771 112.748 229.754 112.835 229.72 112.915C229.687 112.996 229.638 113.069 229.576 113.13C229.514 113.192 229.44 113.24 229.36 113.273C229.279 113.306 229.193 113.323 229.105 113.322Z" fill="#3A6B35"/>
<path d="M263.926 113.543H236.477C236.302 113.541 236.135 113.471 236.012 113.347C235.889 113.224 235.82 113.056 235.82 112.882C235.82 112.707 235.889 112.539 236.012 112.416C236.135 112.292 236.302 112.222 236.477 112.22H263.926C264.1 112.222 264.267 112.292 264.39 112.416C264.513 112.539 264.582 112.707 264.582 112.882C264.582 113.056 264.513 113.224 264.39 113.347C264.267 113.471 264.1 113.541 263.926 113.543Z" fill="#3A6B35"/>
<path d="M145.201 107.256C148.018 107.256 150.302 104.972 150.302 102.155C150.302 99.3374 148.018 97.0533 145.201 97.0533C142.383 97.0533 140.099 99.3374 140.099 102.155C140.099 104.972 142.383 107.256 145.201 107.256Z" fill="#3A6B35"/>
<path d="M180.231 107.256C183.049 107.256 185.333 104.972 185.333 102.155C185.333 99.3374 183.049 97.0533 180.231 97.0533C177.414 97.0533 175.13 99.3374 175.13 102.155C175.13 104.972 177.414 107.256 180.231 107.256Z" fill="#3A6B35"/>
<path d="M215.262 107.256C218.079 107.256 220.363 104.972 220.363 102.155C220.363 99.3374 218.079 97.0533 215.262 97.0533C212.444 97.0533 210.16 99.3374 210.16 102.155C210.16 104.972 212.444 107.256 215.262 107.256Z" fill="#3A6B35"/>
<path d="M250.292 107.256C253.11 107.256 255.394 104.972 255.394 102.155C255.394 99.3374 253.11 97.0533 250.292 97.0533C247.475 97.0533 245.191 99.3374 245.191 102.155C245.191 104.972 247.475 107.256 250.292 107.256Z" fill="#3A6B35"/>
<path fill-rule="evenodd" clip-rule="evenodd" d="M104.722 78.9601C104.484 79.1036 103.998 78.852 103.526 78.339C103.058 77.832 102.856 77.1952 103.112 77.0399C103.348 76.8964 103.836 77.148 104.306 77.661C104.774 78.168 104.976 78.8048 104.722 78.9601Z" fill="#241352"/>
<path fill-rule="evenodd" clip-rule="evenodd" d="M105.982 94.7369C106.063 94.822 105.878 95.4964 105.239 96.1477C104.622 96.7922 103.488 97.3169 102.296 96.7737C101.109 96.2099 100.397 94.8197 100.154 93.7771C99.8976 92.7046 100.017 92.0003 100.116 92.0003C100.242 91.9842 100.34 92.6079 100.682 93.4158C101.013 94.2144 101.651 95.2064 102.548 95.6322C103.448 96.0465 104.364 95.7795 104.955 95.4089C105.556 95.043 105.887 94.6195 105.982 94.7369Z" fill="#241352"/>
<path fill-rule="evenodd" clip-rule="evenodd" d="M107.151 90.6593C107.208 90.6548 107.258 90.8272 107.478 90.9336C107.694 91.0341 108.094 91.0039 108.306 90.6971C108.549 90.4052 108.655 89.9397 108.783 89.4025C108.935 88.8309 109.086 88.2664 109.244 87.6742C109.937 85.2346 110.66 83.3115 110.861 83.3787C111.061 83.4459 110.66 85.4762 109.968 87.9164C109.791 88.5021 109.621 89.0616 109.45 89.6259C109.285 90.1412 109.121 90.6502 108.752 90.9819C108.422 91.3496 107.682 91.3719 107.334 91.0916C107.005 90.8109 107.126 90.6464 107.151 90.6593Z" fill="#241352"/>
</g>
<defs>
<clipPath id="clip0_10_31">
<rect width="323.518" height="215" fill="white"/>
</clipPath>
</defs>
</svg>
