<svg width="540" height="362" viewBox="0 0 540 362" fill="none" xmlns="http://www.w3.org/2000/svg">
<path d="M507.594 272.98H507.596C494.443 265.634 485.005 257.15 487.457 242.252C489.298 231.078 496.254 221.959 501.411 212.943C526.73 168.687 522.695 138.535 503.17 119.064C470.891 86.8753 396.28 83.8723 341.967 94.5823C298.077 103.239 273.449 121.759 256.156 138.556C244.62 149.761 236.353 160.203 227.809 166.43C223.144 169.828 218.401 171.974 212.999 172.306C182.857 174.156 123.463 137.278 54.3902 203.836C31.5137 225.881 19.7143 252.824 19.2465 283.557C18.6634 322.08 34.8168 350.232 39.6925 360.552L523.953 360.496C553.792 299.587 507.594 272.98 507.594 272.98Z" fill="#CBD18F"/>
<path d="M296.29 360.519H445.156C445.156 360.519 468.8 351.496 467.556 339.83C466.31 328.163 428.044 343.096 428.044 343.096C428.044 343.096 430.844 331.273 420.733 328.163C410.623 325.053 376.09 359.43 362.867 344.34C349.644 329.253 363.098 305.763 333.971 305.607C304.844 305.453 296.29 360.519 296.29 360.519Z" fill="#A8D29F"/>
<path d="M215.664 359.614H336.309C340.091 359.614 343.187 356.52 343.187 352.738V111.476C343.187 107.693 340.091 104.599 336.309 104.599H215.664C211.881 104.599 208.787 107.693 208.787 111.476V352.738C208.787 356.52 211.881 359.614 215.664 359.614Z" fill="#A0A854"/>
<path d="M202.637 359.264H323.282C326.871 359.264 329.808 356.327 329.808 352.738V111.476C329.808 107.887 326.871 104.949 323.282 104.949H202.637C199.048 104.949 196.11 107.887 196.11 111.476V352.738C196.11 356.327 199.048 359.264 202.637 359.264Z" fill="#CBD18F" stroke="#A0A854" stroke-width="0.7"/>
<path d="M243.262 114.252H278.199C278.948 114.252 279.56 114.864 279.56 115.61C279.56 116.359 278.948 116.971 278.199 116.971H243.262C242.516 116.971 241.902 116.359 241.902 115.61C241.902 114.864 242.516 114.252 243.262 114.252Z" fill="#4A75CB"/>
<path d="M284.404 114.252C285.153 114.252 285.764 114.864 285.764 115.61C285.764 116.359 285.153 116.971 284.404 116.971C283.657 116.971 283.046 116.359 283.046 115.61C283.046 114.864 283.657 114.252 284.404 114.252Z" fill="#4A75CB"/>
<path d="M270.061 345.525C270.061 340.681 266.136 336.757 261.294 336.757C256.453 336.757 252.528 340.681 252.528 345.525C252.528 350.367 256.453 354.292 261.294 354.292C266.136 354.292 270.061 350.367 270.061 345.525Z" fill="#3A6B35"/>
<path d="M207.231 331.087H318.972V124.82H207.231V331.087Z" fill="#D5E7F7"/>
<path d="M207.231 331.103H318.972V307.158H207.231V331.103Z" fill="#D5E7F7"/>
<path d="M420.346 192.001C420.346 192.001 421.331 187.276 423.79 186.194C426.252 185.111 427.726 180.783 428.711 181.963C429.696 183.144 428.415 191.017 426.546 192.001C424.677 192.984 423.79 194.001 423.79 194.001L420.346 192.001Z" fill="#F4AC75"/>
<path d="M378.115 173.202C378.115 173.202 393.797 200.553 399.486 205.586L420.346 190.034C420.346 190.034 423.375 190.963 424.7 194.001C424.7 194.001 412.032 219.81 399.558 220.904C387.087 221.999 369.582 189.969 369.582 189.969L378.115 173.202Z" fill="#E58638"/>
<path d="M329.586 342.436C329.586 342.436 325.96 345.798 326.667 348.185C327.374 350.572 330.646 352.164 331.089 355.083C331.532 358.002 333.299 359.593 334.892 359.593C336.484 359.593 342.48 359.593 342.48 359.593C342.48 359.593 343.652 357.54 340.821 356.919C337.993 356.301 336.925 352.873 337.102 349.688C337.279 346.505 336.836 342.261 336.836 342.261L330.823 340.845L329.586 342.436Z" fill="#1F4B1A"/>
<path d="M374.774 359.469C374.879 359.523 375.063 359.572 375.313 359.614H395.326C395.169 358.916 394.553 357.479 392.106 357.08C388.937 356.567 383.442 354.726 382.219 350.67C382.18 350.54 382.145 350.409 382.114 350.274C381.141 345.938 374.067 351.599 374.067 351.599C374.067 351.599 374.046 351.772 374.015 352.066C373.85 353.657 373.43 358.797 374.774 359.469Z" fill="#1F4B1A"/>
<path d="M391.263 243.573C391.263 243.573 390.19 256.978 388.928 273.092C387.21 294.981 385.148 321.868 384.942 326.961C384.59 335.805 383.174 349.954 383.174 349.954C383.174 349.954 379.814 353.314 373.091 351.898C373.091 351.898 367.102 331.7 365.391 310.332C365.363 309.982 365.338 309.629 365.312 309.277C363.718 287.523 361.245 241.715 361.245 241.715L391.263 243.573Z" fill="#3A6B35"/>
<path d="M391.263 243.573C391.263 243.573 390.19 256.978 388.928 273.092L365.391 310.332C365.363 309.982 365.338 309.629 365.312 309.277C363.718 287.523 361.245 241.715 361.245 241.715L391.263 243.573Z" fill="#1F4B1A"/>
<path d="M386.359 245.164C386.359 245.164 366.992 293.711 354.257 316.527C341.524 339.342 337.543 345.71 337.543 345.71C337.543 345.71 330.249 342.791 329.586 340.8C329.586 340.8 334.456 296.756 342.982 286.018C347.8 279.952 353.461 261.745 353.727 255.377C353.993 249.012 355.451 236.409 355.451 236.409L386.359 245.164Z" fill="#3A6B35"/>
<path d="M376.426 170.224C377.287 165.142 377.312 162.128 377.312 162.128L367.487 154.208C367.853 165.098 360.874 170.334 360.874 170.334C360.874 170.334 373.969 176.779 381.538 174.392C381.538 174.392 379.674 172.009 376.426 170.224Z" fill="#F4AC75"/>
<path d="M379.552 165.184C379.552 165.184 366.88 165.14 367.032 157.249C367.181 149.357 365.646 144.037 373.742 143.732C381.839 143.428 383.353 146.469 383.944 149.115C384.534 151.761 382.852 164.993 379.552 165.184Z" fill="#F4AC75"/>
<path d="M392.099 244.688C391.872 244.877 391.606 244.991 391.303 244.991C388.463 244.954 380.175 246.531 373.164 245.81C367.251 245.243 362.02 243.493 356.401 240.973C355.654 240.64 353.937 239.723 353.977 238.89C354 237.975 354.091 236.652 354.205 234.984C354.602 229.183 355.295 219.208 354.621 207.7C354.499 205.558 354.434 203.432 354.427 201.339C354.369 185.741 357.463 172.023 363.676 167.38C364.208 167 367.466 168.591 370.462 170.068C373.227 171.433 375.994 171.585 378.607 171.055L381.223 173.367C384.406 176.321 387.892 180.339 389.408 186.441C390.699 191.633 391.455 200.994 391.872 210.694C392.061 215.09 392.213 219.525 392.253 223.732V223.882C392.288 224.299 392.288 224.754 392.288 225.172C392.442 235.973 392.288 244.536 392.099 244.688Z" fill="#EE9849"/>
<path d="M354.205 234.984C354.602 229.183 355.295 219.208 354.621 207.7C354.499 205.558 354.434 203.432 354.427 201.339C357.017 195.058 359.133 190.503 359.133 190.503H365.657C365.657 190.503 370.441 223.182 354.205 234.984Z" fill="#E58638"/>
<path d="M341.281 245.677L332.967 244.492C332.883 244.48 332.802 244.483 332.722 244.494C332.375 244.55 332.09 244.826 332.039 245.19L331.668 247.791L341.608 249.208L341.979 246.608C342.042 246.158 341.729 245.74 341.281 245.677ZM311.445 264.104L313.183 251.903C313.701 248.267 317.098 245.717 320.736 246.235L330.3 247.598L330.671 244.996C330.842 243.792 331.959 242.954 333.163 243.125L341.475 244.31C342.056 244.392 342.571 244.697 342.926 245.169C343.281 245.642 343.43 246.221 343.346 246.802L342.975 249.404L348.517 250.192C348.736 250.225 348.953 250.267 349.163 250.318L352.206 250.752C355.827 251.268 358.368 254.654 357.852 258.277L356.133 270.336C355.617 273.96 352.231 276.501 348.61 275.985L346.337 275.661C345.864 275.696 345.381 275.684 344.893 275.614L317.112 271.654C313.477 271.136 310.927 267.739 311.445 264.104Z" fill="#1F4B1A"/>
<path d="M341.51 237.016L340.271 239.151C340.271 239.151 342.697 244.289 336.941 246.209C336.941 246.209 334.463 246.835 334.253 245.117C334.041 243.4 334.405 244.074 334.045 241.65C333.686 239.228 334.633 237.067 336.421 236.491L337.832 235.14L341.51 237.016Z" fill="#F4AC75"/>
<path d="M338.227 237.599C340.576 238.057 343.122 237.872 343.122 237.872C343.122 237.872 350.099 216.322 350.997 214.352C351.895 212.383 371.717 189.082 371.717 189.082L363.459 168.416C363.459 168.416 342.018 204.23 339.841 209.263C336.243 217.579 334.995 236.225 334.995 236.225C334.995 236.225 336.381 237.24 338.227 237.599Z" fill="#EE9849"/>
<path d="M367.146 156.507C367.146 156.507 368.448 156.509 368.539 154.733C368.63 152.955 369.02 150.68 370.364 151.345C371.708 152.01 371.586 153.156 372.279 152.591C372.975 152.029 373.458 149.241 377.707 149.761C381.953 150.284 383.416 152.041 385.523 151.511C387.628 150.984 388.235 148.034 388.235 148.034C388.235 148.034 387.497 148.998 386.599 149.194C386.599 149.194 390.629 145.276 387.364 141.566C384.098 137.859 379.898 139.21 377.686 138.972C372.809 138.444 369.643 138.204 367.526 141.109C365.412 144.012 364.568 152.927 367.146 156.507Z" fill="#3A6B35"/>
<path d="M421.181 187.853L426.268 177.535C426.366 177.336 426.611 177.252 426.809 177.35L429.64 178.746C429.84 178.846 429.922 179.089 429.824 179.289L424.74 189.605C424.642 189.806 424.397 189.887 424.196 189.789L421.366 188.394C421.167 188.296 421.083 188.051 421.181 187.853Z" fill="#3A6B35"/>
<path d="M423.818 189.26L428.989 178.769C429.063 178.617 429.248 178.554 429.402 178.629L431.061 179.446C431.212 179.52 431.275 179.707 431.201 179.859L426.03 190.349C425.955 190.501 425.769 190.564 425.617 190.489L423.958 189.673C423.806 189.598 423.743 189.411 423.818 189.26Z" fill="#1F4B1A"/>
<path d="M377.126 165.002C377.126 165.002 377.011 166.367 376.792 167.844C376.792 167.844 371.582 165.618 369.748 162.499C369.748 162.499 372.039 164.384 377.126 165.002Z" fill="#C97C47"/>
<path d="M125.931 312.103L130.179 310.691L126.22 298.784L121.971 300.196L125.931 312.103Z" fill="#3A6B35"/>
<path d="M125.931 312.103L127.124 311.706L123.164 299.799L121.971 300.196L125.931 312.103Z" fill="#214B1D"/>
<path d="M84.3978 359.334C84.3978 359.334 75.0981 360.13 74.7009 358.368C74.6482 358.132 73.3406 349.326 73.3406 349.326L71.9406 339.51C71.8244 338.696 72.6513 338.045 73.401 338.385C74.1713 338.735 75.0229 339.461 75.516 340.95C76.5765 344.151 79.7024 349.305 84.3406 350.652C89.2199 352.068 84.3978 359.334 84.3978 359.334Z" fill="#275722"/>
<path d="M178.89 342.2C178.89 342.2 142.874 314.681 132.629 314.38C122.383 314.081 89.1487 359.567 89.1487 359.567H101.594C101.594 359.567 123.523 347.898 131.237 336.808C132.013 335.69 133.672 335.742 134.393 336.894C138.38 343.267 148.807 358.895 155.548 359.567C162.786 360.291 178.89 342.2 178.89 342.2Z" fill="#3A6B35"/>
<path d="M175.442 267.319C175.442 267.319 175.67 269.123 175.962 271.349C176.352 274.24 176.872 277.831 177.213 278.951L188.049 281.697L188.844 273.817C188.844 273.817 186.131 268.376 186.147 260.674L175.442 267.319Z" fill="#FFB27D"/>
<path d="M195.73 344.13L163.423 348.503C163.423 348.503 163.336 347.873 163.189 346.813C163.145 346.484 167.205 346.9 167.196 346.543C167.123 343.397 165.546 343.052 166.078 338.882C166.43 336.131 165.203 328.758 164.361 326.404C163.392 323.69 162.947 318.536 162.748 313.638C162.501 307.501 162.643 301.768 162.641 301.729C162.326 297.82 163.255 293.483 164.811 289.357C167.884 281.223 173.61 276.617 176.303 273.885C176.303 273.885 179.588 274.697 188.13 272.135C188.385 272.058 189.117 273.134 189.444 273.759C189.444 273.759 193.497 278.505 195.016 289.913C196.376 300.126 195.73 344.13 195.73 344.13Z" fill="#C65447"/>
<path d="M187.034 294.528C186.973 295.958 174.301 336.292 175.852 339.27C183.368 353.664 167.175 347.737 166.148 344.025C166.498 341.274 165.203 328.758 164.361 326.404C163.392 323.69 162.947 318.536 162.748 313.638C163.066 311.851 163.808 310.005 164.811 308.22C169.52 307.485 187.505 283.421 187.034 294.528Z" fill="#B23F36"/>
<path d="M195.786 339.536C195.786 339.536 195.767 342.06 195.751 345.808C195.728 351.795 194.568 359.567 188.711 359.567C179.191 359.567 83.909 359.567 83.909 359.567C83.909 359.567 81.0149 357.614 80.8117 353.89C80.5966 349.942 81.844 348.542 81.844 348.542C81.844 348.542 119.361 347.238 126.979 344.685C165.159 331.889 195.786 339.536 195.786 339.536Z" fill="#3A6B35"/>
<path d="M175.442 267.319C175.442 267.319 175.67 269.123 175.962 271.349C185.974 268.427 186.147 260.674 186.147 260.674L175.442 267.319Z" fill="#E8945B"/>
<path d="M173.867 267.895C173.867 267.895 186.037 268.257 186.145 260.676C186.252 253.093 187.895 248.034 180.129 247.483C172.364 246.93 170.815 249.803 170.161 252.325C169.51 254.847 170.705 267.608 173.867 267.895Z" fill="#FFB27D"/>
<path d="M186.362 263.644C186.362 263.644 185.076 263.429 185.284 261.658C185.489 259.887 185.487 257.573 184.047 258.004C182.607 258.436 182.535 259.589 181.945 258.914C181.352 258.242 181.343 255.405 177.056 255.207C172.772 255.011 171.032 256.502 169.039 255.627C167.046 254.749 166.941 251.735 166.941 251.735C166.941 251.735 167.508 252.81 168.365 253.153C168.365 253.153 165.04 248.606 168.887 245.488C172.737 242.371 176.662 244.413 178.888 244.548C183.795 244.844 186.966 245.138 188.569 248.363C190.172 251.588 189.509 260.541 186.362 263.644Z" fill="#3A6B35"/>
<path d="M172.035 264.125C172.035 264.125 171.956 265.065 173.862 265.387C173.862 265.387 175.547 265.513 175.691 264.671C175.691 264.671 174.058 264.654 172.035 264.125Z" fill="white"/>
<path d="M134.907 311.902L132.926 311.837C132.926 311.837 128.886 308.092 127.973 310.67C127.973 310.67 122.745 308.589 122.521 310.026C122.373 310.971 123.688 312.051 125.878 313.652C127.536 314.861 131.085 315.92 132.476 315.306L134.019 314.613L134.907 311.902Z" fill="#E49963"/>
<path d="M184.108 273.955C184.108 273.955 176.375 277.219 172.359 284.196C169.685 288.846 165.077 296.754 162.3 301.514C160.821 304.048 158.352 305.847 155.487 306.477L146.104 308.542L132.926 311.837C132.926 311.837 132.614 312.394 132.69 313.309C132.799 314.604 133.647 314.865 133.647 314.865C133.647 314.865 145.95 317.826 150.329 318.155C161.12 318.967 166.234 317.553 167.821 316.97C168.173 316.839 168.491 316.65 168.782 316.415C170.437 315.071 176.776 309.758 180.115 304.683C183.361 299.745 192.316 286.917 192.316 286.917L184.108 273.955Z" fill="#C65447"/>
<path d="M162.58 301.036L169.118 289.801L162.688 297.993C162.688 297.993 162.524 299.349 162.58 301.036Z" fill="#B23F36"/>
<path d="M292.234 49.7333C292.234 49.7333 289.481 47.8503 289.402 49.934C289.325 52.02 290.657 55.2703 291.418 53.602C292.181 51.9336 292.528 51.3083 292.234 49.7333Z" fill="#E49963"/>
<path d="M538.114 361.665H1.88553C1.27257 361.665 0.770905 361.163 0.770905 360.552C0.770905 359.938 1.27257 359.437 1.88553 359.437H538.114C538.728 359.437 539.229 359.938 539.229 360.552C539.229 361.163 538.728 361.665 538.114 361.665Z" fill="#163D12"/>
<path d="M302.265 164.116H222.444C219.105 164.116 216.373 166.846 216.373 170.185V179.798C216.373 181.324 216.945 182.722 217.883 183.793L216.373 190.692L225.081 185.869H302.265C305.604 185.869 308.334 183.137 308.334 179.798V170.185C308.334 166.846 305.604 164.116 302.265 164.116Z" fill="#A8D29F"/>
<path d="M221.989 171.44H302.73C303.271 171.44 303.714 170.997 303.714 170.453C303.714 169.912 303.271 169.468 302.73 169.468H221.989C221.448 169.468 221.005 169.912 221.005 170.453C221.005 170.997 221.448 171.44 221.989 171.44Z" fill="white"/>
<path d="M302.73 173.783H221.989C221.448 173.783 221.005 174.226 221.005 174.767C221.005 175.311 221.448 175.754 221.989 175.754H302.73C303.271 175.754 303.714 175.311 303.714 174.767C303.714 174.226 303.271 173.783 302.73 173.783Z" fill="white"/>
<path d="M302.73 177.936H221.989C221.448 177.936 221.005 178.379 221.005 178.921C221.005 179.464 221.448 179.908 221.989 179.908H302.73C303.271 179.908 303.714 179.464 303.714 178.921C303.714 178.379 303.271 177.936 302.73 177.936Z" fill="white"/>
<path d="M222.444 207.1H302.265C305.604 207.1 308.334 209.83 308.334 213.169V222.785C308.334 224.309 307.763 225.706 306.827 226.777L308.334 233.677L299.629 228.854H222.444C219.105 228.854 216.373 226.122 216.373 222.785V213.169C216.373 209.83 219.105 207.1 222.444 207.1Z" fill="#F1A34F"/>
<path d="M302.72 214.425H221.98C221.439 214.425 220.993 213.981 220.993 213.438C220.993 212.896 221.439 212.453 221.98 212.453H302.72C303.262 212.453 303.705 212.896 303.705 213.438C303.705 213.981 303.262 214.425 302.72 214.425Z" fill="white"/>
<path d="M221.98 216.767H302.72C303.262 216.767 303.705 217.211 303.705 217.754C303.705 218.296 303.262 218.739 302.72 218.739H221.98C221.439 218.739 220.993 218.296 220.993 217.754C220.993 217.211 221.439 216.767 221.98 216.767Z" fill="white"/>
<path d="M221.98 220.921H302.72C303.262 220.921 303.705 221.364 303.705 221.905C303.705 222.449 303.262 222.892 302.72 222.892H221.98C221.439 222.892 220.993 222.449 220.993 221.905C220.993 221.364 221.439 220.921 221.98 220.921Z" fill="white"/>
<path d="M302.265 250.085H222.444C219.105 250.085 216.373 252.817 216.373 256.156V265.77C216.373 267.296 216.945 268.693 217.883 269.762L216.373 276.664L225.081 271.839H302.265C305.604 271.839 308.334 269.109 308.334 265.77V256.156C308.334 252.817 305.604 250.085 302.265 250.085Z" fill="#699DEE"/>
<path d="M221.989 257.409H302.73C303.271 257.409 303.714 256.966 303.714 256.425C303.714 255.881 303.271 255.438 302.73 255.438H221.989C221.448 255.438 221.005 255.881 221.005 256.425C221.005 256.966 221.448 257.409 221.989 257.409Z" fill="white"/>
<path d="M302.73 259.752H221.989C221.448 259.752 221.005 260.195 221.005 260.739C221.005 261.28 221.448 261.724 221.989 261.724H302.73C303.271 261.724 303.714 261.28 303.714 260.739C303.714 260.195 303.271 259.752 302.73 259.752Z" fill="white"/>
<path d="M302.73 263.905H221.989C221.448 263.905 221.005 264.349 221.005 264.892C221.005 265.434 221.448 265.877 221.989 265.877H302.73C303.271 265.877 303.714 265.434 303.714 264.892C303.714 264.349 303.271 263.905 302.73 263.905Z" fill="white"/>
<path d="M222.444 293.07H302.265C305.604 293.07 308.334 295.802 308.334 299.141V308.754C308.334 310.28 307.763 311.678 306.827 312.747L308.334 319.649L299.629 314.826H222.444C219.105 314.826 216.373 312.093 216.373 308.754V299.141C216.373 295.802 219.105 293.07 222.444 293.07Z" fill="#A8D29F"/>
<path d="M302.72 300.394H221.98C221.439 300.394 220.993 299.951 220.993 299.409C220.993 298.866 221.439 298.422 221.98 298.422H302.72C303.262 298.422 303.705 298.866 303.705 299.409C303.705 299.951 303.262 300.394 302.72 300.394Z" fill="white"/>
<path d="M221.98 302.737H302.72C303.262 302.737 303.705 303.182 303.705 303.724C303.705 304.265 303.262 304.711 302.72 304.711H221.98C221.439 304.711 220.993 304.265 220.993 303.724C220.993 303.182 221.439 302.737 221.98 302.737Z" fill="white"/>
<path d="M221.98 306.89H302.72C303.262 306.89 303.705 307.333 303.705 307.877C303.705 308.418 303.262 308.862 302.72 308.862H221.98C221.439 308.862 220.993 308.418 220.993 307.877C220.993 307.333 221.439 306.89 221.98 306.89Z" fill="white"/>
<path d="M239.725 144.95C239.725 151.397 234.496 156.623 228.049 156.623C221.602 156.623 216.373 151.397 216.373 144.95C216.373 138.5 221.602 133.274 228.049 133.274C234.496 133.274 239.725 138.5 239.725 144.95Z" fill="#699DEE"/>
<path d="M304.603 156.159H246.832C244.772 156.159 243.101 154.488 243.101 152.426C243.101 150.365 244.772 148.695 246.832 148.695H304.603C306.664 148.695 308.334 150.365 308.334 152.426C308.334 154.488 306.664 156.159 304.603 156.159Z" fill="#699DEE"/>
<path d="M278.069 140.768H246.832C244.772 140.768 243.101 139.098 243.101 137.037C243.101 134.975 244.772 133.304 246.832 133.304H278.069C280.131 133.304 281.802 134.975 281.802 137.037C281.802 139.098 280.131 140.768 278.069 140.768Z" fill="#699DEE"/>
<path d="M252.801 143.342C252.754 144.014 253.053 144.499 253.594 144.849C253.594 144.852 253.599 144.854 253.601 144.854C254.602 145.5 256.425 145.687 258.42 145.741C258.674 145.748 258.903 145.757 259.108 145.771C259.162 145.776 259.215 145.78 259.267 145.785C259.309 145.787 259.351 145.792 259.39 145.794C261.353 145.983 261.103 146.557 264.82 147.143C269.055 147.808 270.719 146.616 271.01 146.039C271.258 145.549 269.47 144.849 267.473 144.051C267.377 144.014 267.279 143.972 267.181 143.935C266.915 143.83 266.649 143.72 266.383 143.613C264.008 142.63 261.682 141.503 261.257 138.997C260.809 136.342 263.229 129.188 263.229 129.188L256.527 127.982C256.527 127.982 255.337 135.556 254.745 137.898C254.427 139.149 253.781 140.117 253.368 141.179C253.338 141.254 253.31 141.328 253.284 141.403C253.065 142.028 252.845 142.668 252.801 143.342Z" fill="#E49963"/>
<path d="M252.801 143.342C252.754 144.014 253.053 144.499 253.594 144.849C253.594 144.852 253.599 144.854 253.601 144.854C254.675 145.444 256.467 145.647 258.415 145.729C258.672 145.741 258.9 145.755 259.108 145.771C259.162 145.776 259.215 145.78 259.267 145.785C259.309 145.787 259.351 145.792 259.39 145.794C261.353 145.983 261.103 146.557 264.82 147.143C269.055 147.808 270.719 146.616 271.01 146.039C271.258 145.549 269.47 144.849 267.473 144.051C266.885 144.233 264.085 144.987 260.895 144.147C258.088 143.41 255.365 141.795 253.368 141.179C253.338 141.254 253.31 141.328 253.284 141.403C253.065 142.028 252.845 142.668 252.801 143.342Z" fill="#194814"/>
<path d="M297.153 139.331C297.529 141.212 300.207 140.897 303.203 140.166C306.197 139.434 305.485 140.304 309.746 139.833C314.009 139.361 315.299 137.772 315.43 137.138C315.544 136.575 313.44 136.377 311.181 136.118C310.896 136.085 310.612 136.05 310.327 136.015C307.777 135.696 305.91 134.051 303.593 132.697C301.4 131.419 298.124 126.204 298.124 126.204L292.281 126.666C292.281 126.666 295.347 131.323 296.532 133.348C297.23 134.541 297.195 136.116 297.106 137.331C297.062 137.994 297.018 138.668 297.153 139.331Z" fill="#E49963"/>
<path d="M303.203 140.166C306.197 139.434 305.485 140.304 309.746 139.833C314.009 139.361 315.299 137.772 315.43 137.138C315.544 136.575 313.44 136.377 311.181 136.118L311.16 136.16C311.16 136.16 308.605 137.973 305.056 138.057C302.165 138.127 299.104 137.299 297.106 137.331C297.062 137.994 297.018 138.668 297.153 139.331C297.529 141.212 300.207 140.897 303.203 140.166Z" fill="#194814"/>
<path d="M284.147 53.4924C284.147 53.4924 285.54 50.0811 287.073 49.9411C288.604 49.8034 293.478 49.038 293.826 49.7334C294.173 50.4287 293.826 52.9347 292.78 53.84C291.737 54.7454 285.262 56.2084 285.262 56.2084L284.147 53.4924Z" fill="#E49963"/>
<path d="M274.755 101.96L262.16 135.859C262.16 135.859 260.226 136.046 258.368 135.511C256.663 135.019 254.707 133.726 254.707 133.726C254.707 133.726 257.832 101.181 263.56 94.4097C269.288 87.6407 274.755 101.96 274.755 101.96Z" fill="#3A6B35"/>
<path d="M224.936 88.2473C224.936 88.2473 261.129 76.0113 269.2 78.613C277.273 81.217 301.507 129.435 301.507 129.435C301.507 129.435 300.961 130.163 299.468 130.723C298.079 131.244 294.717 131.211 294.717 131.211C294.717 131.211 272.847 112.463 270.243 106.996C267.639 101.526 266.598 96.3207 263.994 96.841C261.39 97.3614 230.406 109.6 223.375 102.308C216.345 95.0187 218.184 85.5453 218.184 85.5453L224.936 88.2473Z" fill="#3A6B35"/>
<path d="M247.054 31.3164C247.633 30.124 248.279 28.0031 248.594 24.2254C248.545 24.6011 247.894 29.3657 246.062 32.063C238.535 37.005 224.108 53.5064 224.393 56.6331C224.393 56.6331 219.313 48.0137 219.224 47.9624C219.224 47.9624 209.851 36.0414 220.96 29.214C226.607 25.7444 226.579 21.29 226.343 17.4214C226.105 13.5527 227.883 -3.10261 239.193 1.25606C239.193 1.25606 241.008 0.448719 241.823 0.570052C241.823 0.570052 241.158 0.698394 240.819 1.04606C242.131 0.969061 244.007 1.06474 245.57 1.95374C249.716 4.3104 253.429 25.4504 247.054 31.3164Z" fill="#3A6B35"/>
<path d="M245.617 32.3104C245.654 32.3268 241.981 34.2331 239.221 33.4771C236.622 32.7701 234.925 29.4008 234.96 29.3938C236.062 29.1744 236.379 27.6624 236.356 21.1664L236.853 21.2644L245.215 22.9188C245.215 22.9188 245.024 25.5508 245.019 28.0311C245.015 30.1124 245.141 32.0864 245.617 32.3104Z" fill="#E49963"/>
<path d="M245.215 22.9187C245.215 22.9187 245.024 25.5507 245.019 28.031C240.339 27.9003 237.865 23.6303 236.853 21.2643L245.215 22.9187Z" fill="#D68D5D"/>
<path d="M235.989 20.3544C235.989 20.3544 233.537 16.4787 232.947 13.1654C232.527 10.7994 233.731 2.03068 242.544 3.29301C242.544 3.29301 245.103 3.54501 247.509 5.17134C249.422 6.46168 252.183 9.25236 249.096 16.9034L248.293 19.4887L235.989 20.3544Z" fill="#3A6B35"/>
<path d="M246.779 25.2683C246.779 25.2683 235.705 25.4503 235.698 18.553C235.691 11.6557 234.256 7.03567 241.326 6.62733C248.393 6.219 249.77 8.84868 250.332 11.1494C250.897 13.4524 249.658 25.042 246.779 25.2683Z" fill="#E49963"/>
<path d="M246.368 6.45708C246.368 6.45708 243.337 14.5491 238.684 15.7461C234.032 16.9407 232.013 15.6947 232.013 15.6947C232.013 15.6947 232.461 12.8597 233.203 7.91072C233.203 7.91072 244.081 2.60708 246.368 6.45708Z" fill="#3A6B35"/>
<path d="M245.617 7.11508C245.617 7.11508 247.88 8.92106 248.433 10.6781C248.986 12.4327 249.233 16.0494 250.288 15.9257C250.288 15.9257 252.57 10.4261 250.003 7.31574C247.283 4.01641 245.617 7.11508 245.617 7.11508Z" fill="#3A6B35"/>
<path d="M220.96 62.0978C219.868 57.5198 223.583 48.6321 227.461 41.2751C230.98 34.6087 234.631 29.1978 234.96 29.3938C244.24 34.9004 245.08 30.3224 245.08 30.3224C245.08 30.3224 253.508 31.4424 255.895 35.5514C259.197 41.2331 262.792 58.2827 266.325 58.0307C267.947 57.9141 284.264 51.7821 284.264 51.7821C284.264 51.7821 286.982 54.3277 286.462 57.4521C286.462 57.4521 278.405 62.8491 271.591 66.2907C267.989 68.1107 264.731 69.3847 263.201 69.0254C260.097 68.2927 255.249 61.0991 252.628 56.8617C252.624 56.8524 252.617 56.8431 252.612 56.8337C249.268 75.7594 253.814 80.0714 251.513 82.0664C249.082 84.1734 245.61 81.0631 237.973 84.3741C232.963 86.5464 226.01 89.6894 221.331 90.2354C218.877 90.5247 217.045 90.0977 216.448 88.4387C214.712 83.6227 223.044 70.8291 220.96 62.0978Z" fill="#CBD18F"/>
<path d="M244.317 21.087C244.317 21.087 244.522 21.962 246.702 21.829C246.702 21.829 248.533 21.7147 248.477 20.751C248.477 20.751 246.702 20.0674 244.317 21.087Z" fill="white"/>
<path d="M216.448 88.4387C217.045 90.0977 218.877 90.5247 221.331 90.2354C224.57 88.8237 238.563 83.4034 238.407 79.7307C238.173 74.2917 235.716 74.1167 237.452 67.4037C238.845 62.0137 225.916 51.9921 223.854 49.8151C219.976 57.1697 219.868 57.5198 220.96 62.0978C223.044 70.8291 214.712 83.6227 216.448 88.4387Z" fill="#A0A854"/>
<path d="M252.628 56.8617C255.249 61.099 260.097 68.2927 263.201 69.0254C264.731 69.3847 267.989 68.1107 271.591 66.2907C268.962 66.9697 266.407 66.951 263.924 66.7107C261.234 66.4494 260.452 63.1524 256.201 58.2057C253.44 54.9974 252.764 55.8047 252.628 56.8617Z" fill="#A0A854"/>
<path d="M239.664 67.2754C239.664 67.2754 242.009 65.4507 244.221 65.887C246.436 66.3187 247.521 67.8377 247.434 68.533C247.346 69.2284 246.174 71.1814 244.483 71.354C242.789 71.5267 237.973 70.3134 237.973 70.3134L239.664 67.2754Z" fill="#E49963"/>
<path d="M234.96 29.3938C234.96 29.3938 225.935 29.9491 222.813 34.3054C218.415 40.4398 207.859 67.7235 212.859 71.2095C218.489 75.1365 240.315 71.0928 240.315 71.0928C240.315 71.0928 240.98 67.9825 240.056 66.4798C239.13 64.9748 224.085 62.5434 223.392 61.8504C222.696 61.1551 232.069 48.3101 232.069 46.2265C232.069 44.1428 234.96 29.3938 234.96 29.3938Z" fill="#CBD18F"/>
<path d="M285.045 42.2737L291.233 40.6147C291.446 40.5587 291.632 40.6077 291.763 40.722L291.77 40.7197L292.636 41.2424L291.945 57.2187L286.002 58.8124L285.566 58.7774L284.565 58.1637V58.159C284.425 58.0657 284.334 57.9094 284.334 57.704V43.1767C284.334 42.7847 284.656 42.3787 285.045 42.2737Z" fill="#233862"/>
<path d="M286.002 58.8124L292.188 57.1534C292.58 57.0484 292.902 56.6424 292.902 56.2504V41.7231C292.902 41.3311 292.58 41.0978 292.188 41.2028L286.002 42.8594C285.61 42.9644 285.29 43.3704 285.29 43.7624V58.2898C285.29 58.6818 285.61 58.9174 286.002 58.8124Z" fill="#3A6B35"/>
<path d="M290.564 43.0997L292.006 42.668C292.223 42.605 292.393 42.374 292.386 42.157C292.381 41.94 292.199 41.814 291.982 41.8793L290.543 42.311C290.326 42.374 290.155 42.605 290.162 42.822C290.167 43.039 290.349 43.165 290.564 43.0997Z" fill="#233862"/>
<path d="M292.26 53.441C292.297 53.7677 292.682 53.9357 292.941 53.728C293.469 53.308 294.15 52.3887 294.15 50.4567C294.15 47.393 291.418 46.2193 292.26 53.441Z" fill="#E49963"/>
</svg>
