<svg width="330" height="303" viewBox="0 0 330 303" fill="none" xmlns="http://www.w3.org/2000/svg">
<g clip-path="url(#clip0_0_73)">
<mask id="mask0_0_73" style="mask-type:luminance" maskUnits="userSpaceOnUse" x="0" y="0" width="330" height="288">
<path d="M0 0.01091H329.766V287.931H0V0.01091Z" fill="#E2D3F5"/>
</mask>
<g mask="url(#mask0_0_73)">
<path fill-rule="evenodd" clip-rule="evenodd" d="M83.7781 282.571C43.3835 268.987 8.34488 235.228 1.16955 193.315C-6.00578 151.401 20.4984 104.156 62.1436 95.0699C81.835 90.7715 103.09 94.6108 121.902 87.3957C157.383 73.7882 169.441 27.7515 202.222 8.55078C233.804 -9.94618 277.104 3.39493 300.634 31.3916C324.161 59.3882 331.026 98.0192 329.585 134.522C327.466 188.15 304.618 245.986 255.847 268.662C214.749 287.77 127.857 293.186 83.7781 282.571Z" fill="#CBD18F"/>
</g>
<path fill-rule="evenodd" clip-rule="evenodd" d="M35 273.323C43.9002 288.06 62.2374 293.592 78.9494 293.241C95.6592 292.889 111.999 287.909 128.685 286.899C155.13 285.303 181.046 293.68 207.041 298.987C233.038 304.292 261.451 306.185 284.635 292.835C290.311 289.568 295.788 285.105 298.086 278.786C300.384 272.469 298.307 264.083 292.326 261.472C290.008 260.462 287.429 260.399 284.916 260.349C229.223 259.274 173.53 258.199 117.837 257.121C89.4877 256.573 58.2363 257.076 36.9692 276.615" fill="#D1D69D"/>
<path fill-rule="evenodd" clip-rule="evenodd" d="M274.904 107.216C271.478 110.488 270.174 115.581 273.443 119.512C276.52 123.211 282.472 123.996 286.315 121.047C295.593 113.927 285.922 100.79 275.911 103.509C274.058 104.012 274.52 106.64 276.352 106.744C279.278 106.908 282.411 107.021 284.751 109.061C287.261 111.251 287.318 114.957 285.257 117.476C279.799 124.147 270.323 114.324 276.053 108.359C276.777 107.607 275.661 106.494 274.904 107.216Z" fill="#3A3A3A" fill-opacity="0.5"/>
<path fill-rule="evenodd" clip-rule="evenodd" d="M51.6684 74.8553C48.2232 73.3072 43.9843 73.665 40.8509 75.7659C37.7175 77.8669 35.7965 81.6416 35.9491 85.399C36.0691 88.3346 37.2465 91.6757 35.3691 93.9458C33.9169 95.6976 31.3265 95.8624 29.2463 96.7991C25.2908 98.5769 23.3218 103.778 25.1208 107.707C26.0933 109.834 28.023 111.792 27.6545 114.099C27.4168 115.593 26.2241 116.774 24.9049 117.527C23.5835 118.277 22.1051 118.706 20.7379 119.369C15.7577 121.793 12.7333 127.424 12.875 132.935C13.019 138.447 16.0695 143.676 20.4436 147.065C24.8198 150.454 30.3976 152.1 35.9382 152.306C41.492 152.512 47.3009 151.217 51.5376 147.644C54.7189 144.96 56.7948 141.2 58.3255 137.343C61.2386 130.008 62.4183 122.002 61.7467 114.146C61.0468 105.994 58.3974 98.0934 57.8174 89.9326C57.6234 87.1985 57.6626 84.4276 57.0499 81.7543C56.4372 79.081 55.0613 76.438 52.7041 75.0179" fill="#3A3A3A"/>
<path fill-rule="evenodd" clip-rule="evenodd" d="M50.4057 75.9108C53.5609 69.389 59.8342 64.4435 66.9426 62.8759C71.308 61.9132 76.0986 62.2385 79.9341 64.5237C83.7718 66.8089 86.4233 71.2666 85.8389 75.6766C85.4769 78.4019 83.9898 80.8346 83.0457 83.419C82.1015 86.0056 81.7919 89.1581 83.5472 91.2829C85.1215 93.1908 87.821 93.6613 89.9709 94.895C93.0411 96.6599 94.9708 100.22 94.7681 103.741C94.5653 107.262 92.2365 110.579 88.9832 111.982C92.2147 112.355 95.2521 114.152 97.1208 116.798C98.9917 119.445 99.6633 122.894 98.9219 126.045C97.8578 130.559 94.1684 134.013 90.1999 136.452C84.6876 139.841 78.2943 141.805 71.8182 142.095C64.9453 142.405 57.3331 140.383 53.5936 134.639C51.1405 130.869 50.7655 126.164 50.4907 121.68C49.6599 108.147 49.0908 94.598 48.5217 81.0514C48.4301 78.8724 48.3407 76.6588 48.8575 74.5383" fill="#3A3A3A"/>
<path fill-rule="evenodd" clip-rule="evenodd" d="M73.5288 137.056L135.148 160.025L129.265 135.282L145.289 131.232C145.289 131.232 162.526 179.601 150.555 180.896C129.598 183.164 97.8895 174.912 97.8895 174.912L73.5288 137.056Z" fill="#3A3A3A" fill-opacity="0.5"/>
<path fill-rule="evenodd" clip-rule="evenodd" d="M68.1423 242.628C68.1423 242.628 142.583 161.836 192.837 179.474C243.091 197.114 264.309 279.402 264.309 279.402L224.282 278.756C224.282 278.756 192.671 216.606 177.246 219.012C161.819 221.423 114.179 280.579 114.179 280.579L68.1423 242.628Z" fill="#3A3A3A" fill-opacity="0.5"/>
<path fill-rule="evenodd" clip-rule="evenodd" d="M91.6935 193.58L94.7833 240.982C78.737 260.6 22.8746 235.237 22.8746 235.237L22.2226 215.418L20.9252 168.213C22.2117 149.415 39.7714 140.19 39.7714 140.19C47.0303 136.591 58.1007 134.548 68.0743 135.04C78.4862 135.55 81.0592 140.508 85.3483 149.955C88.8131 157.587 98.2176 170.021 91.6935 193.58Z" fill="#3A3A3A" fill-opacity="0.5"/>
<path fill-rule="evenodd" clip-rule="evenodd" d="M33.3151 244.167C33.3151 244.167 24.7719 278.745 50.8115 284.195C76.8511 289.644 172.623 276.895 197.568 279.076C222.513 281.253 293.454 285.371 293.454 285.371L298.648 244.308C298.648 244.308 188.251 239.046 175.774 242.131C163.297 245.212 33.3151 244.167 33.3151 244.167Z" fill="#3A3A3A" fill-opacity="0.5"/>
<path fill-rule="evenodd" clip-rule="evenodd" d="M45.7998 183.716C45.7998 183.716 37.9914 229.47 49.003 228.342C85.2233 224.639 106.791 224.141 106.791 224.141L112.794 236.534C112.933 238.645 44.2015 258.209 33.1572 251.741C25.3597 247.175 12.9374 234.873 18.5762 198.11L19.9085 185.786L45.7998 183.716Z" fill="#3A3A3A"/>
<path fill-rule="evenodd" clip-rule="evenodd" d="M78.4817 249.401L78.4075 246.333L123.869 239.95L135.936 197.993L186.297 196.778L172.708 242.192L78.4817 249.401Z" fill="#3A3A3A" fill-opacity="0.5"/>
<path fill-rule="evenodd" clip-rule="evenodd" d="M160.201 217.879C160.251 219.925 158.622 221.627 156.564 221.677C154.505 221.725 152.796 220.105 152.746 218.058C152.695 216.014 154.324 214.312 156.383 214.262C158.441 214.214 160.151 215.832 160.201 217.879Z" fill="#3A3A3A"/>
<path fill-rule="evenodd" clip-rule="evenodd" d="M161.693 217.843C161.763 220.709 159.482 223.089 156.6 223.159C153.717 223.228 151.323 220.96 151.253 218.094C151.183 215.228 153.464 212.847 156.347 212.78C159.229 212.711 161.624 214.978 161.693 217.843Z" fill="#3A3A3A"/>
<path fill-rule="evenodd" clip-rule="evenodd" d="M25.877 153.369C25.877 153.369 17.4275 161.434 15.5392 191.958L48.238 188.361C48.238 188.361 53.6871 136.375 25.877 153.369Z" fill="#3A3A3A"/>
<path fill-rule="evenodd" clip-rule="evenodd" d="M265.906 61.5828C265.906 61.5828 277.498 87.4661 280.729 86.1088C283.963 84.7537 313.899 66.2855 313.899 66.2855C313.899 66.2855 301.629 43.1124 299.076 41.7595C296.523 40.4087 265.906 61.5828 265.906 61.5828Z" fill="#3A3A3A" fill-opacity="0.5"/>
<path fill-rule="evenodd" clip-rule="evenodd" d="M299.076 41.7604C299.222 41.8146 298.369 44.4705 296.871 48.7158C295.375 52.9632 293.232 58.802 290.803 65.2262C290.742 65.3844 290.681 65.5427 290.626 65.6901L290.463 66.1216L290.003 66.0479C283.298 64.9617 277.262 63.9209 272.908 63.1144C268.553 62.3078 265.88 61.7355 265.906 61.5837C265.93 61.4319 268.647 61.729 273.034 62.3339C277.421 62.9409 283.479 63.8537 290.186 64.9335L289.564 65.2934C289.619 65.1459 289.678 64.9877 289.739 64.8294C292.17 58.4052 294.431 52.6097 296.121 48.4361C297.811 44.2602 298.93 41.7062 299.076 41.7604Z" fill="#3A3A3A"/>
<path fill-rule="evenodd" clip-rule="evenodd" d="M276.92 83.0693C276.615 83.0021 277.516 78.7504 278.933 73.5772C280.353 68.4018 281.744 64.2845 282.043 64.3799C282.341 64.4753 281.441 68.7271 280.03 73.8742C278.619 79.0192 277.226 83.1365 276.92 83.0693Z" fill="#3A3A3A"/>
<path fill-rule="evenodd" clip-rule="evenodd" d="M311.923 61.137C311.876 61.4449 307.698 61.0438 302.593 60.2373C297.489 59.435 293.391 58.5331 293.439 58.2252C293.49 57.9173 297.665 58.3185 302.772 59.1228C307.874 59.9272 311.971 60.8292 311.923 61.137Z" fill="#3A3A3A"/>
<path fill-rule="evenodd" clip-rule="evenodd" d="M42.2532 89.3897L42.9924 99.0791C42.9924 99.0791 34.7065 100.191 37.0701 107.706C39.4316 115.221 45.0988 111.932 45.0988 111.932C45.0988 111.932 46.5161 131.189 66.3565 125.084C82.1455 120.225 81.1796 99.8943 79.1757 82.5622C78.3994 75.8475 72.0106 71.2315 65.3382 72.5237L53.4109 74.8349C46.5183 76.1683 41.7212 82.4256 42.2532 89.3897Z" fill="#3A3A3A"/>
<path fill-rule="evenodd" clip-rule="evenodd" d="M42.993 107.122L48.3396 135.466C49.5433 141.854 55.8755 145.938 62.2316 144.432C68.1212 143.033 71.8935 137.311 70.8359 131.384L67.9337 115.138L42.993 107.122Z" fill="#3A3A3A"/>
<path fill-rule="evenodd" clip-rule="evenodd" d="M64.9377 107.442C65.014 107.388 65.1753 107.694 65.5373 107.735C65.8905 107.772 66.4291 107.407 66.56 106.638C66.7409 105.874 66.6406 104.871 66.5316 103.708C66.4378 102.46 66.3463 101.224 66.2503 99.9316C65.9123 94.5676 65.8905 90.2031 66.2045 90.1836C66.5185 90.1641 67.0462 94.4961 67.3842 99.8601C67.4496 101.157 67.5128 102.392 67.5761 103.643C67.6219 104.79 67.6655 105.924 67.3297 106.863C67.068 107.843 66.0541 108.45 65.4217 108.16C64.8156 107.854 64.8962 107.436 64.9377 107.442Z" fill="#3A3A3A"/>
<path fill-rule="evenodd" clip-rule="evenodd" d="M71.3739 123.106C71.4633 123.21 70.6739 124.075 69.0429 125.007C67.4293 125.938 64.9087 126.855 62.0064 126.913C59.1041 126.976 56.5442 126.167 54.8936 125.304C53.2255 124.442 52.4013 123.611 52.4841 123.503C52.6302 123.188 56.4984 125.918 61.9824 125.784C67.4664 125.688 71.2169 122.798 71.3739 123.106Z" fill="#3A3A3A"/>
<path fill-rule="evenodd" clip-rule="evenodd" d="M67.4982 111.418C67.6094 111.498 67.3543 112.134 66.4756 112.747C65.6273 113.354 64.0661 113.849 62.4264 113.335C60.7932 112.804 59.8141 111.496 59.4805 110.512C59.1273 109.504 59.2908 108.838 59.4282 108.84C59.6004 108.825 59.7356 109.413 60.2066 110.172C60.6623 110.924 61.5389 111.861 62.7731 112.262C64.0116 112.652 65.2719 112.4 66.0853 112.051C66.9117 111.707 67.3674 111.308 67.4982 111.418Z" fill="#3A3A3A"/>
<path fill-rule="evenodd" clip-rule="evenodd" d="M42.3692 108.646C42.3714 108.778 41.8851 109.01 41.0238 108.758C40.6117 108.63 40.0666 108.264 39.8333 107.629C39.7155 107.319 39.6632 106.939 39.7809 106.542C39.8747 106.154 40.2476 105.736 40.6597 105.602C41.2223 105.374 42.0094 105.508 42.3736 106.124L41.4098 106.623C40.7796 105.036 40.4743 103.819 40.7098 103.715C40.9432 103.611 41.6453 104.654 42.4041 106.185L41.4403 106.683C41.4185 106.651 41.2593 106.581 41.0631 106.657C40.8516 106.72 40.7556 106.972 40.8276 107.303C40.8974 107.62 41.1089 107.856 41.3662 108.036C41.8873 108.379 42.3823 108.479 42.3692 108.646Z" fill="#3A3A3A"/>
<path fill-rule="evenodd" clip-rule="evenodd" d="M72.8836 95.0492C72.5784 95.1185 72.1728 94.4789 71.9765 93.6225C71.7825 92.7661 71.8741 92.0181 72.1793 91.9487C72.4846 91.8793 72.8902 92.5189 73.0842 93.3754C73.2805 94.2318 73.1889 94.9798 72.8836 95.0492Z" fill="#3A3A3A"/>
<path fill-rule="evenodd" clip-rule="evenodd" d="M56.0857 96.6022C55.7826 96.6868 55.3443 96.058 55.1045 95.2016C54.8646 94.343 54.9169 93.582 55.22 93.4974C55.5209 93.415 55.9592 94.0416 56.1991 94.9002C56.4389 95.7566 56.3888 96.5176 56.0857 96.6022Z" fill="#3A3A3A"/>
<path fill-rule="evenodd" clip-rule="evenodd" d="M57.6456 89.5473C57.5497 89.853 56.6557 89.8421 55.6657 90.1175C54.667 90.3603 53.893 90.807 53.6596 90.5858C53.4176 90.3994 54.0369 89.3717 55.3779 89.0248C56.7145 88.6714 57.7634 89.2654 57.6456 89.5473Z" fill="#3A3A3A"/>
<path fill-rule="evenodd" clip-rule="evenodd" d="M74.7979 86.8436C74.6714 87.1385 73.688 86.9932 72.5367 87.106C71.3832 87.1927 70.4391 87.5071 70.2646 87.2382C70.0771 86.9975 70.9711 86.1064 72.4386 85.9829C73.9061 85.8506 74.9396 86.5748 74.7979 86.8436Z" fill="#3A3A3A"/>
<path fill-rule="evenodd" clip-rule="evenodd" d="M42.9931 99.0795C48.5315 93.7112 50.1582 84.7676 51.6606 77.2247C56.7891 80.9387 63.843 81.8515 69.7566 79.5684C71.6122 81.7366 73.7927 83.6315 76.2021 85.1666C76.889 85.6045 77.7002 86.0295 78.4808 85.7953C79.4097 85.5178 79.824 84.4576 80.0442 83.5166C80.7529 80.5094 80.779 77.2897 79.7237 74.3822C78.6683 71.4791 76.4551 68.925 73.5572 67.8106C70.4609 66.6181 66.9764 67.1363 63.7602 67.9645C58.9173 69.2134 54.2488 71.1322 49.9314 73.6472C45.6925 76.1146 41.6237 79.382 39.8248 83.9242C38.028 88.4686 38.0368 97.3016 42.3694 99.5977" fill="#3A3A3A"/>
<path fill-rule="evenodd" clip-rule="evenodd" d="M65.5968 112.47C65.8628 113.998 64.5524 115.485 62.76 115.115C60.9676 114.727 60.3811 112.84 61.2489 111.55C62.1146 110.243 63.2702 109.469 63.9396 109.59C64.6003 109.751 65.3417 110.926 65.5968 112.47Z" fill="#3A3A3A"/>
<path fill-rule="evenodd" clip-rule="evenodd" d="M58.6953 103.473C58.97 105.002 57.0708 106.619 54.4215 106.736C51.7722 106.86 49.7312 105.418 49.8686 103.872C50.0016 102.313 51.9248 101.205 54.1642 101.097C56.4036 101.001 58.4206 101.934 58.6953 103.473Z" fill="#3A3A3A"/>
<path fill-rule="evenodd" clip-rule="evenodd" d="M79.6731 101.771C79.9849 103.293 78.3212 104.912 75.9226 105.034C73.5219 105.157 71.7011 103.715 71.8538 102.17C72.0042 100.613 73.6963 99.5006 75.6304 99.3943C77.5667 99.3033 79.3634 100.236 79.6731 101.771Z" fill="#3A3A3A"/>
<path fill-rule="evenodd" clip-rule="evenodd" d="M42.7654 124.729C42.4471 124.722 42.2704 121.613 42.0698 117.795C41.8758 113.975 41.7297 110.866 42.0458 110.827C42.3511 110.786 43.0074 113.869 43.2037 117.737C43.4065 121.605 43.0729 124.738 42.7654 124.729Z" fill="#3A3A3A"/>
<path fill-rule="evenodd" clip-rule="evenodd" d="M75.6847 136.849C70.3229 134.731 111.565 149.956 111.565 149.956L107.381 178.007L91.694 172.89L75.6847 136.849Z" fill="#3A3A3A" fill-opacity="0.5"/>
<path fill-rule="evenodd" clip-rule="evenodd" d="M51.1433 73.3933C52.4407 71.4463 52.8681 68.9486 52.2903 66.6851C51.8149 64.8205 50.3998 62.9711 48.4679 62.8735C47.3711 62.8171 46.307 63.3483 45.5002 64.092C43.5072 65.9263 42.9948 69.1568 44.3227 71.5114C45.6507 73.866 48.6881 75.117 51.3025 74.3863" fill="#3A3A3A"/>
<path fill-rule="evenodd" clip-rule="evenodd" d="M297.542 253.045C297.542 253.045 310.956 233.922 309.321 241.162C307.685 248.401 294.059 280.578 294.059 280.578L297.542 253.045Z" fill="#3A3A3A" fill-opacity="0.5"/>
<path fill-rule="evenodd" clip-rule="evenodd" d="M102.98 224.144C102.98 224.144 120.706 218.615 120.097 220.434C119.489 222.251 116.473 222.318 113.458 225.251C113.458 225.251 133.272 225.464 132.319 227.088C131.366 228.71 118.469 229.119 118.39 229.395C118.314 229.672 132.498 230.017 132.18 231.517C131.859 233.02 118.678 232.654 118.678 232.654C118.678 232.654 130.898 233.946 130.647 235.563C130.396 237.183 119.131 236.016 119.131 236.016C119.131 236.016 128.56 237.087 128.314 238.553C128.165 239.446 100.708 239.648 100.651 240.305C100.621 240.65 102.98 224.144 102.98 224.144Z" fill="#3A3A3A"/>
<path fill-rule="evenodd" clip-rule="evenodd" d="M130.421 136.849C130.421 136.849 119.658 121.889 121.577 121.898C123.496 121.904 124.497 124.721 128.223 126.648C128.223 126.648 122.277 107.942 124.115 108.334C125.958 108.726 130.349 120.734 130.637 120.721C130.923 120.708 126.847 107.254 128.376 107.09C129.902 106.925 133.646 119.439 133.646 119.439C133.646 119.439 131.082 107.543 132.7 107.276C134.32 107.009 136.705 117.969 136.705 117.969C136.705 117.969 134.797 108.765 136.269 108.54C137.165 108.403 145.29 131.234 145.29 131.234C145.076 131.234 130.421 136.849 130.421 136.849Z" fill="#3A3A3A" fill-opacity="0.5"/>
<path fill-rule="evenodd" clip-rule="evenodd" d="M31.159 178.007C31.2768 177.996 31.678 178.705 31.6998 180.119C31.6954 180.804 31.4141 181.799 30.5376 182.419C30.1189 182.729 29.4953 182.95 28.8499 182.809C28.211 182.677 27.7291 182.246 27.3824 181.869C26.6803 181.055 26.2245 180.574 25.505 180.49C24.8159 180.381 24.1945 180.611 23.7954 180.973C22.9581 181.734 22.9843 182.612 22.8142 182.601C22.7008 182.673 22.2669 181.663 23.2089 180.427C23.669 179.837 24.5957 179.356 25.6227 179.455C26.1308 179.499 26.6737 179.679 27.1316 180.026C27.5786 180.362 27.897 180.767 28.211 181.101C29.3405 182.632 30.8189 181.138 30.8995 180.036C31.0783 178.874 30.9737 178.02 31.159 178.007Z" fill="#3A3A3A"/>
<path fill-rule="evenodd" clip-rule="evenodd" d="M40.8413 169.698C40.7694 169.604 41.1706 168.893 42.3742 168.141C42.9651 167.787 43.966 167.51 44.9538 167.928C45.4378 168.124 45.9524 168.538 46.1683 169.16C46.3864 169.771 46.2664 170.407 46.1247 170.897C45.7889 171.913 45.6145 172.553 45.9154 173.21C46.1792 173.85 46.7003 174.257 47.2215 174.407C48.3074 174.721 49.0487 174.242 49.1294 174.394C49.2494 174.452 48.6061 175.346 47.0558 175.19C46.31 175.107 45.4138 174.572 44.9647 173.646C44.7379 173.19 44.6114 172.635 44.6703 172.067C44.727 171.512 44.908 171.031 45.0301 170.591C45.7605 168.837 43.7065 168.358 42.7166 168.863C41.6285 169.316 40.9482 169.849 40.8413 169.698Z" fill="#3A3A3A"/>
<path fill-rule="evenodd" clip-rule="evenodd" d="M40.1876 148.997C40.1157 148.901 40.5169 148.192 41.7183 147.44C42.3092 147.087 43.3123 146.807 44.3 147.227C44.7841 147.423 45.2987 147.837 45.5124 148.459C45.7326 149.07 45.6127 149.706 45.471 150.196C45.1352 151.212 44.9586 151.852 45.2616 152.507C45.5255 153.149 46.0466 153.556 46.5656 153.706C47.6537 154.02 48.395 153.541 48.4757 153.693C48.5956 153.751 47.9524 154.645 46.3999 154.489C45.6541 154.404 44.7601 153.868 44.3109 152.945C44.0842 152.49 43.9577 151.934 44.0144 151.366C44.0711 150.811 44.2543 150.33 44.3764 149.89C45.1047 148.136 43.0528 147.657 42.0628 148.16C40.9726 148.615 40.2945 149.148 40.1876 148.997Z" fill="#3A3A3A"/>
<path fill-rule="evenodd" clip-rule="evenodd" d="M60.8333 175.957C60.7439 176.036 60.0003 175.699 59.1412 174.576C58.7356 174.021 58.3693 173.054 58.7029 172.037C58.8556 171.541 59.2263 170.995 59.8303 170.728C60.4234 170.457 61.0688 170.522 61.5725 170.62C62.6213 170.862 63.2776 170.982 63.9078 170.626C64.5271 170.307 64.889 169.754 64.9959 169.228C65.2161 168.122 64.671 167.43 64.8149 167.337C64.865 167.213 65.8157 167.773 65.7918 169.323C65.7743 170.069 65.3164 171.001 64.4289 171.528C63.9928 171.792 63.4499 171.966 62.8742 171.957C62.3117 171.951 61.8145 171.812 61.3632 171.73C59.5424 171.159 59.2415 173.236 59.8324 174.171C60.3819 175.212 60.975 175.838 60.8333 175.957Z" fill="#3A3A3A"/>
<path fill-rule="evenodd" clip-rule="evenodd" d="M74.9106 197.607C74.9739 197.707 74.5225 198.383 73.2687 199.049C72.6516 199.359 71.6333 199.561 70.6783 199.071C70.2095 198.841 69.7276 198.39 69.5575 197.753C69.3852 197.128 69.5531 196.504 69.7319 196.027C70.1397 195.034 70.3621 194.409 70.1113 193.735C69.8933 193.076 69.4049 192.631 68.8968 192.443C67.8371 192.05 67.063 192.475 66.9932 192.319C66.8776 192.25 67.5863 191.406 69.1214 191.677C69.8584 191.814 70.711 192.412 71.0904 193.369C71.2823 193.839 71.3695 194.401 71.2692 194.964C71.1711 195.513 70.953 195.981 70.7982 196.41C69.9413 198.104 71.9539 198.737 72.9787 198.303C74.0973 197.93 74.8147 197.449 74.9106 197.607Z" fill="#3A3A3A"/>
<path fill-rule="evenodd" clip-rule="evenodd" d="M91.4838 163.461C91.547 163.561 91.0957 164.24 89.8419 164.903C89.2248 165.211 88.2065 165.415 87.2514 164.925C86.7826 164.695 86.3007 164.244 86.1306 163.609C85.9584 162.982 86.1263 162.358 86.3051 161.881C86.7128 160.89 86.9353 160.265 86.6845 159.589C86.4664 158.93 85.978 158.485 85.4699 158.297C84.4102 157.904 83.6361 158.327 83.5664 158.173C83.4508 158.104 84.1595 157.26 85.6945 157.531C86.4316 157.668 87.2841 158.266 87.6635 159.222C87.8576 159.693 87.9426 160.255 87.8423 160.818C87.7442 161.367 87.5262 161.835 87.3714 162.264C86.5144 163.96 88.527 164.589 89.5519 164.157C90.6705 163.784 91.3878 163.303 91.4838 163.461Z" fill="#3A3A3A"/>
<path fill-rule="evenodd" clip-rule="evenodd" d="M102.791 158.266C102.863 158.173 103.657 158.366 104.71 159.316C105.209 159.788 105.748 160.673 105.606 161.733C105.547 162.247 105.283 162.852 104.738 163.225C104.204 163.598 103.559 163.652 103.044 163.648C101.969 163.6 101.302 163.602 100.748 164.066C100.198 164.493 99.9433 165.1 99.9345 165.64C99.9236 166.765 100.587 167.346 100.462 167.464C100.436 167.596 99.3981 167.219 99.1343 165.69C99.0166 164.953 99.2935 163.953 100.07 163.275C100.449 162.934 100.953 162.665 101.52 162.568C102.074 162.475 102.588 162.52 103.048 162.518C104.941 162.748 104.858 160.653 104.104 159.84C103.371 158.917 102.673 158.409 102.791 158.266Z" fill="#3A3A3A"/>
<path fill-rule="evenodd" clip-rule="evenodd" d="M57.0473 215.264C57.1105 215.363 56.6592 216.04 55.4054 216.705C54.7883 217.013 53.77 217.217 52.8149 216.727C52.3461 216.495 51.8642 216.046 51.6941 215.409C51.5219 214.784 51.6898 214.16 51.8664 213.683C52.2763 212.69 52.4987 212.065 52.248 211.391C52.0299 210.732 51.5415 210.288 51.0334 210.099C49.9715 209.707 49.1975 210.132 49.1299 209.975C49.0143 209.906 49.7208 209.063 51.258 209.334C51.9951 209.47 52.8476 210.069 53.227 211.025C53.4189 211.495 53.504 212.057 53.4058 212.621C53.3077 213.169 53.0897 213.637 52.9348 214.065C52.0779 215.76 54.0905 216.391 55.1132 215.959C56.234 215.587 56.9513 215.105 57.0473 215.264Z" fill="#3A3A3A"/>
<path fill-rule="evenodd" clip-rule="evenodd" d="M81.5769 182.405C81.4788 182.472 80.7788 182.051 80.0592 180.833C79.7213 180.237 79.4749 179.231 79.9262 178.262C80.1377 177.787 80.5717 177.288 81.2018 177.093C81.8233 176.896 82.4578 177.034 82.9462 177.191C83.958 177.557 84.5947 177.75 85.2641 177.472C85.9161 177.227 86.3435 176.722 86.5114 176.213C86.8602 175.139 86.4002 174.389 86.555 174.316C86.6204 174.196 87.497 174.862 87.2898 176.399C87.183 177.138 86.6182 178.012 85.674 178.431C85.2096 178.641 84.6492 178.749 84.0779 178.674C83.5219 178.6 83.0422 178.405 82.6061 178.268C80.866 177.49 80.3187 179.515 80.7963 180.514C81.2171 181.611 81.7317 182.303 81.5769 182.405Z" fill="#3A3A3A"/>
<path fill-rule="evenodd" clip-rule="evenodd" d="M85.9793 200.059C85.8834 200.126 85.1813 199.706 84.4617 198.487C84.1259 197.891 83.8773 196.885 84.3309 195.916C84.5402 195.441 84.9741 194.944 85.6064 194.749C86.2279 194.55 86.8602 194.688 87.3487 194.847C88.3604 195.211 88.9993 195.406 89.6666 195.126C90.3185 194.881 90.7459 194.378 90.9138 193.867C91.2627 192.794 90.8048 192.046 90.9574 191.97C91.0228 191.853 91.8994 192.516 91.6944 194.053C91.5876 194.793 91.0206 195.666 90.0765 196.085C89.6142 196.297 89.0517 196.404 88.4804 196.328C87.9243 196.254 87.4468 196.059 87.0085 195.924C85.2685 195.144 84.7212 197.169 85.1987 198.168C85.6195 199.265 86.1363 199.957 85.9793 200.059Z" fill="#3A3A3A"/>
<path fill-rule="evenodd" clip-rule="evenodd" d="M50.477 192.528C50.3592 192.513 50.1259 191.734 50.4159 190.351C50.5707 189.683 51.0657 188.775 52.0557 188.358C52.5332 188.146 53.1895 188.066 53.7892 188.345C54.3844 188.614 54.7595 189.141 55.0146 189.583C55.5183 190.529 55.8585 191.099 56.541 191.34C57.1908 191.595 57.8449 191.504 58.3159 191.238C59.2993 190.678 59.4672 189.818 59.6329 189.863C59.7594 189.82 59.9578 190.902 58.7673 191.901C58.1894 192.376 57.1799 192.645 56.1986 192.322C55.7102 192.17 55.2218 191.875 54.8511 191.437C54.4891 191.012 54.2667 190.546 54.0334 190.151C53.2724 188.415 51.4996 189.549 51.1769 190.605C50.7474 191.699 50.6601 192.558 50.477 192.528Z" fill="#3A3A3A"/>
<path fill-rule="evenodd" clip-rule="evenodd" d="M82.5394 214.323C82.4216 214.308 82.1861 213.53 82.4783 212.147C82.6309 211.479 83.1281 210.57 84.118 210.154C84.5934 209.942 85.2519 209.861 85.8515 210.141C86.4468 210.41 86.8197 210.937 87.077 211.379C87.5807 212.324 87.9208 212.895 88.6033 213.135C89.2509 213.391 89.9073 213.3 90.3783 213.033C91.3617 212.474 91.5296 211.613 91.6931 211.659C91.8196 211.615 92.0202 212.697 90.8275 213.697C90.2496 214.172 89.24 214.44 88.261 214.117C87.7726 213.966 87.2841 213.671 86.9134 213.233C86.5515 212.808 86.3291 212.342 86.0958 211.947C85.3348 210.21 83.5598 211.344 83.2393 212.402C82.8097 213.495 82.7225 214.354 82.5394 214.323Z" fill="#3A3A3A"/>
<path fill-rule="evenodd" clip-rule="evenodd" d="M81.6098 148.295C81.4921 148.279 81.2566 147.499 81.5487 146.118C81.7014 145.45 82.1985 144.539 83.1885 144.125C83.6638 143.913 84.3224 143.833 84.922 144.112C85.5173 144.379 85.8901 144.908 86.1474 145.348C86.6511 146.296 86.9913 146.866 87.6738 147.106C88.3214 147.36 88.9777 147.271 89.4487 147.005C90.4321 146.445 90.6 145.584 90.7636 145.63C90.89 145.584 91.0906 146.666 89.8979 147.666C89.3201 148.143 88.3105 148.41 87.3314 148.089C86.843 147.935 86.3546 147.64 85.9839 147.204C85.6219 146.777 85.3995 146.311 85.1662 145.918C84.4052 144.179 82.6303 145.313 82.3097 146.371C81.8802 147.466 81.793 148.323 81.6098 148.295Z" fill="#3A3A3A"/>
<path fill-rule="evenodd" clip-rule="evenodd" d="M71.1353 223.089C71.0743 223.191 70.2631 223.096 69.0987 222.285C68.5427 221.879 67.8994 221.069 67.906 220C67.8994 219.481 68.0848 218.848 68.5798 218.41C69.0616 217.975 69.6962 217.84 70.2064 217.779C71.2792 217.695 71.9399 217.608 72.4327 217.079C72.9233 216.587 73.0999 215.954 73.0411 215.418C72.9102 214.3 72.1798 213.805 72.2888 213.673C72.2975 213.541 73.3747 213.784 73.8282 215.269C74.0397 215.984 73.8893 217.01 73.2046 217.782C72.871 218.165 72.4065 218.497 71.8549 218.662C71.3163 218.824 70.7995 218.844 70.346 218.9C68.438 218.909 68.7847 220.977 69.6351 221.689C70.4768 222.515 71.2334 222.931 71.1353 223.089Z" fill="#3A3A3A"/>
<path fill-rule="evenodd" clip-rule="evenodd" d="M33.1075 158.266C33.21 158.208 33.8663 158.696 34.4638 159.977C34.7407 160.606 34.8868 161.627 34.3417 162.551C34.0866 163.002 33.6068 163.457 32.9592 163.589C32.3203 163.726 31.7033 163.524 31.2323 163.322C30.2598 162.861 29.6449 162.605 28.9536 162.817C28.2799 162.997 27.8067 163.459 27.5887 163.951C27.1351 164.983 27.5189 165.775 27.3575 165.835C27.2834 165.946 26.4744 165.196 26.832 163.687C27.0108 162.963 27.6584 162.149 28.6397 161.824C29.1215 161.659 29.6907 161.605 30.251 161.738C30.7962 161.863 31.2541 162.106 31.6771 162.284C33.3321 163.227 34.0757 161.265 33.6984 160.224C33.3866 159.09 32.9418 158.353 33.1075 158.266Z" fill="#3A3A3A"/>
<path fill-rule="evenodd" clip-rule="evenodd" d="M69.8128 151.733C69.9153 151.675 70.5716 152.163 71.1691 153.444C71.446 154.073 71.5921 155.096 71.047 156.018C70.7919 156.468 70.3122 156.924 69.6646 157.056C69.0257 157.193 68.4086 156.991 67.9376 156.789C66.9651 156.328 66.3502 156.072 65.659 156.284C64.9852 156.464 64.512 156.926 64.294 157.418C63.8404 158.45 64.2242 159.242 64.0628 159.302C63.9887 159.413 63.1797 158.665 63.5373 157.154C63.7161 156.429 64.3637 155.616 65.345 155.293C65.8269 155.126 66.396 155.072 66.9564 155.204C67.5015 155.33 67.9594 155.573 68.3824 155.751C70.0374 156.694 70.781 154.732 70.4037 153.691C70.0919 152.557 69.6471 151.82 69.8128 151.733Z" fill="#3A3A3A"/>
<path fill-rule="evenodd" clip-rule="evenodd" d="M47.1849 190.142C47.1064 190.133 47.1194 189.337 47.2088 187.908C47.2982 186.477 47.464 184.411 47.6929 181.861C48.1486 176.764 48.8682 169.722 49.7121 161.969C49.9039 160.043 50.0021 158.17 49.736 156.423C49.4896 154.673 48.8071 153.101 47.815 151.824C45.8133 149.246 42.9721 147.906 40.5561 147.332C38.1074 146.748 36.0207 146.776 34.599 146.815C33.1707 146.865 32.377 146.954 32.3638 146.868C32.3509 146.8 33.1206 146.564 34.5619 146.378C35.9989 146.202 38.1358 146.044 40.7327 146.553C43.2905 147.056 46.3912 148.39 48.6393 151.186C49.7579 152.565 50.5559 154.352 50.8372 156.253C51.1403 158.155 51.0356 160.124 50.8416 162.079C49.9955 169.856 49.1517 176.868 48.491 181.948C48.1595 184.487 47.8717 186.54 47.6471 187.954C47.4247 189.372 47.2634 190.15 47.1849 190.142Z" fill="#3A3A3A"/>
<path fill-rule="evenodd" clip-rule="evenodd" d="M48.6404 188.369C48.673 188.679 41.2223 189.718 31.9965 190.687C22.7708 191.66 15.2655 192.196 15.2327 191.884C15.2001 191.576 22.6509 190.535 31.8788 189.566C41.1002 188.595 48.6076 188.057 48.6404 188.369Z" fill="#3A3A3A"/>
<path fill-rule="evenodd" clip-rule="evenodd" d="M94.0561 184.702C93.6833 184.667 95.4865 178.128 93.4281 170.338C91.4984 162.513 86.7754 157.624 87.0894 157.416C87.1766 157.329 88.474 158.396 90.0832 160.564C91.6925 162.719 93.5001 166.056 94.5293 170.061C95.5454 174.065 95.5563 177.855 95.1769 180.513C94.8019 183.182 94.1761 184.737 94.0561 184.702Z" fill="#3A3A3A" fill-opacity="0.5"/>
<path fill-rule="evenodd" clip-rule="evenodd" d="M181.328 185.229C181.609 183.369 181.554 181.6 182.601 179.961C184.683 176.691 187.651 177.504 190.525 178.942C193.442 180.401 196.188 181.279 199.36 179.913C204.358 177.762 206.571 170.408 201.92 166.854C200.411 165.703 198.859 167.6 199.083 169.022C199.4 171.026 200.381 173.237 198.654 174.959C196.345 177.264 193.634 175.334 191.327 174.298C188.846 173.181 186.212 172.934 183.648 173.961C179.234 175.731 176.027 181.678 179.533 185.7C180.028 186.268 181.21 186.01 181.328 185.229Z" fill="#3A3A3A" fill-opacity="0.5"/>
<path fill-rule="evenodd" clip-rule="evenodd" d="M193.021 99.7996C193.49 102.815 196.636 109.179 199.955 110.057C201.715 110.523 203.023 109.37 204.39 108.433C206.88 106.727 209.34 104.981 211.804 103.236C212.693 102.607 213.221 101.395 212.558 100.381C210.378 97.0439 208.199 93.7071 206.019 90.3725C205.441 89.4901 204.109 88.9458 203.147 89.6245C200.424 91.5389 197.508 93.3147 195.023 95.5305C193.324 97.0482 195.494 99.6326 197.402 98.5962C200.169 97.0916 202.692 95.0405 205.267 93.2301C204.307 92.9808 203.35 92.7314 202.393 92.4821C204.571 95.8167 206.752 99.1535 208.93 102.488C209.183 101.536 209.434 100.582 209.684 99.6305C208.206 100.678 206.723 101.718 205.249 102.77C204.51 103.297 201.486 106.042 200.683 105.862C199.73 105.649 198.193 102.92 197.591 102.206C196.545 100.97 195.566 99.8017 194.214 98.8868C193.564 98.4445 192.925 99.173 193.021 99.7996Z" fill="#3A3A3A" fill-opacity="0.5"/>
<path fill-rule="evenodd" clip-rule="evenodd" d="M162.149 130.903C158.723 134.175 157.419 139.268 160.688 143.196C163.763 146.897 169.717 147.682 173.56 144.734C182.838 137.613 173.167 124.477 163.156 127.196C161.303 127.699 161.765 130.326 163.597 130.43C166.523 130.595 169.656 130.708 171.994 132.746C174.506 134.938 174.56 138.643 172.502 141.163C167.044 147.834 157.566 138.01 163.298 132.046C164.02 131.293 162.906 130.181 162.149 130.903Z" fill="#3A3A3A" fill-opacity="0.5"/>
<path fill-rule="evenodd" clip-rule="evenodd" d="M240.995 161.167C239.814 167.268 238.806 173.382 237.866 179.525C237.642 181.001 238.664 181.999 240.138 181.784C245.941 180.945 251.726 180.171 257.452 178.913C258.553 178.67 259 177.322 258.476 176.405C255.232 170.726 251.1 162.815 244.994 159.717C243.448 158.932 241.259 160.629 242.415 162.281C244.231 164.881 246.92 166.83 249.035 169.211C251.471 171.954 253.758 174.904 255.513 178.128C256.006 177.272 256.501 176.416 256.994 175.561C250.997 176.149 245.095 177.222 239.157 178.243C239.938 178.833 240.716 179.423 241.495 180.015C242.21 173.84 242.849 167.676 243.313 161.479C243.414 160.172 241.248 159.864 240.995 161.167Z" fill="#3A3A3A" fill-opacity="0.5"/>
<path fill-rule="evenodd" clip-rule="evenodd" d="M217.008 131.313C217.091 129.403 213.964 128.926 213.604 130.854C212.473 136.914 212.065 143.384 212.019 149.535C212.01 150.816 214.016 151.139 214.309 149.842C215.652 143.865 216.74 137.434 217.008 131.313Z" fill="#3A3A3A" fill-opacity="0.5"/>
<path fill-rule="evenodd" clip-rule="evenodd" d="M299.12 150.144C301.388 150.064 301.303 146.927 299.12 146.701C293.093 146.077 286.726 146.211 280.686 146.645C279.474 146.732 278.992 148.728 280.377 148.921C286.493 149.773 292.945 150.368 299.12 150.144Z" fill="#3A3A3A" fill-opacity="0.5"/>
<path fill-rule="evenodd" clip-rule="evenodd" d="M230.525 71.4294C235.935 74.3304 241.864 77.1577 247.725 79.0331C249.572 79.625 250.826 76.7652 249.06 75.885C243.547 73.1358 237.337 71.0153 231.424 69.3112C230.168 68.9512 229.35 70.7985 230.525 71.4294Z" fill="#3A3A3A" fill-opacity="0.5"/>
<path fill-rule="evenodd" clip-rule="evenodd" d="M247.682 120.758C246.313 119.55 244.064 119.316 242.732 120.758C241.385 122.217 241.435 124.22 242.732 125.682C242.824 125.783 242.915 125.888 243.009 125.992C244.235 127.371 246.762 127.329 247.996 125.992C249.224 124.663 249.47 122.332 247.996 121.033C247.891 120.942 247.787 120.851 247.682 120.758Z" fill="#3A3A3A" fill-opacity="0.5"/>
<path fill-rule="evenodd" clip-rule="evenodd" d="M271.435 101.927C267.918 105.082 266.579 109.993 269.935 113.783C273.095 117.35 279.208 118.107 283.153 115.264C292.681 108.398 282.75 95.73 272.47 98.3518C270.567 98.8369 271.041 101.371 272.922 101.471C275.927 101.63 279.145 101.739 281.547 103.706C284.125 105.818 284.183 109.391 282.067 111.82C276.462 118.253 266.731 108.78 272.615 103.029C273.359 102.303 272.212 101.231 271.435 101.927Z" fill="#7CABFF"/>
<path fill-rule="evenodd" clip-rule="evenodd" d="M47.7508 70.9491C44.3098 69.4095 40.0761 69.7653 36.9465 71.8548C33.8169 73.9443 31.8983 77.6986 32.0507 81.4356C32.1705 84.3553 33.3465 87.6783 31.4714 89.936C30.021 91.6783 27.4337 91.8422 25.356 92.7738C21.4054 94.542 19.4388 99.7152 21.2355 103.623C22.2069 105.738 24.1342 107.685 23.7662 109.979C23.5288 111.465 22.3375 112.64 21.0199 113.389C19.7002 114.135 18.2236 114.562 16.8581 115.222C11.8839 117.632 8.86321 123.233 9.00477 128.714C9.1485 134.196 12.1953 139.397 16.5641 142.767C20.935 146.138 26.5059 147.774 32.0398 147.979C37.5868 148.184 43.3886 146.897 47.6201 143.343C50.7976 140.673 52.8709 136.934 54.3997 133.098C57.3093 125.803 58.4876 117.839 57.8168 110.027C57.1177 101.919 54.4716 94.0611 53.8923 85.9445C53.6985 83.2254 53.7377 80.4695 53.1257 77.8107C52.5137 75.1519 51.1395 72.5233 48.7853 71.1108" fill="#241352"/>
<path fill-rule="evenodd" clip-rule="evenodd" d="M47.9248 70.7545C51.0324 64.1313 57.211 59.1088 64.2121 57.5168C68.5116 56.5392 73.2299 56.8695 77.0075 59.1902C80.7873 61.511 83.3987 66.0381 82.8232 70.5167C82.4667 73.2845 81.002 75.755 80.0721 78.3796C79.1422 81.0064 78.8372 84.208 80.5661 86.3658C82.1166 88.3035 84.7753 88.7813 86.8929 90.0341C89.9167 91.8265 91.8173 95.442 91.6176 99.0178C91.4179 102.594 89.1242 105.963 85.92 107.387C89.1027 107.766 92.0943 109.591 93.9348 112.278C95.7775 114.966 96.4389 118.469 95.7087 121.669C94.6607 126.253 91.027 129.76 87.1184 132.238C81.6893 135.679 75.3925 137.674 69.0142 137.969C62.2449 138.284 54.7477 136.23 51.0646 130.397C48.6485 126.568 48.2791 121.79 48.0086 117.236C47.1903 103.492 46.6298 89.7325 46.0693 75.9752C45.9791 73.7623 45.891 71.5142 46.4 69.3607" fill="#241352"/>
<path fill-rule="evenodd" clip-rule="evenodd" d="M69 133.701L131.182 156.184L125.246 131.964L141.417 128C141.417 128 158.811 175.347 146.731 176.614C125.582 178.834 93.5834 170.756 93.5834 170.756L69 133.701Z" fill="#FFAFA7"/>
<path fill-rule="evenodd" clip-rule="evenodd" d="M65 237.911C65 237.911 138.997 156.825 188.953 174.527C238.908 192.232 260 274.818 260 274.818L220.211 274.17C220.211 274.17 188.788 211.794 173.455 214.209C158.119 216.629 110.763 276 110.763 276L65 237.911Z" fill="#3A6B35"/>
<path fill-rule="evenodd" clip-rule="evenodd" d="M87.9043 189.376L91 236.587C74.9228 256.125 18.9531 230.864 18.9531 230.864L18.2999 211.125L17 164.111C18.289 145.389 35.8823 136.201 35.8823 136.201C43.1552 132.616 54.2469 130.582 64.2397 131.072C74.6716 131.58 77.2495 136.518 81.5468 145.927C85.0183 153.528 94.4409 165.912 87.9043 189.376Z" fill="#FBC580"/>
<path fill-rule="evenodd" clip-rule="evenodd" d="M30.3377 239.114C30.3377 239.114 21.816 274.937 47.7898 280.584C73.7637 286.229 169.294 273.021 194.176 275.281C219.058 277.536 289.819 281.802 289.819 281.802L295 239.26C295 239.26 184.882 233.808 172.437 237.005C159.991 240.197 30.3377 239.114 30.3377 239.114Z" fill="#3A6B35"/>
<path fill-rule="evenodd" clip-rule="evenodd" d="M41.7539 179C41.7539 179 33.9162 225.196 44.9692 224.058C81.3258 220.319 102.974 219.815 102.974 219.815L109 232.328C109.14 234.46 40.1496 254.212 29.0638 247.682C21.237 243.072 8.76794 230.651 14.4279 193.533L15.7652 181.091L41.7539 179Z" fill="#FFAFA7"/>
<path fill-rule="evenodd" clip-rule="evenodd" d="M75.0742 245L75 241.852L120.508 235.302L132.587 192.246L183 191L169.397 237.602L75.0742 245Z" fill="#9C8BBF"/>
<path fill-rule="evenodd" clip-rule="evenodd" d="M156.999 214.902C157.053 217.109 155.305 218.945 153.097 218.999C150.889 219.05 149.055 217.303 149.001 215.096C148.947 212.891 150.695 211.055 152.903 211.001C155.111 210.95 156.945 212.694 156.999 214.902Z" fill="white"/>
<path fill-rule="evenodd" clip-rule="evenodd" d="M157.998 213.366C158.072 216.403 155.669 218.925 152.633 218.998C149.597 219.072 147.075 216.669 147.002 213.632C146.928 210.595 149.331 208.073 152.367 208.002C155.403 207.928 157.925 210.331 157.998 213.366Z" fill="white"/>
<path fill-rule="evenodd" clip-rule="evenodd" d="M22.297 148.413C22.297 148.413 13.8809 156.478 12 187L44.5698 183.403C44.5698 183.403 49.9973 131.42 22.297 148.413Z" fill="#FBC580"/>
<path fill-rule="evenodd" clip-rule="evenodd" d="M262 57.5728C262 57.5728 273.593 84.3508 276.825 82.9466C280.059 81.5447 310 62.438 310 62.438C310 62.438 297.728 38.4638 295.175 37.0641C292.621 35.6667 262 57.5728 262 57.5728Z" fill="#D2DC66"/>
<path fill-rule="evenodd" clip-rule="evenodd" d="M294.984 39.0008C295.129 39.052 294.281 41.5595 292.792 45.5673C291.304 49.5772 289.173 55.0896 286.758 61.1546C286.697 61.304 286.636 61.4535 286.582 61.5927L286.419 62L285.962 61.9304C279.294 60.9049 273.293 59.9224 268.962 59.1609C264.632 58.3995 261.974 57.8591 262 57.7158C262.024 57.5725 264.726 57.8529 269.088 58.424C273.451 58.9972 279.474 59.8589 286.144 60.8783L285.526 61.2181C285.58 61.0789 285.639 60.9295 285.699 60.78C288.117 54.715 290.366 49.2436 292.046 45.3033C293.726 41.3609 294.839 38.9496 294.984 39.0008Z" fill="#002C68"/>
<path fill-rule="evenodd" clip-rule="evenodd" d="M273.068 79.9992C272.718 79.9345 273.75 75.8401 275.373 70.8584C276.999 65.8746 278.592 61.9097 278.934 62.0016C279.277 62.0934 278.245 66.1878 276.629 71.1445C275.014 76.099 273.418 80.0639 273.068 79.9992Z" fill="#002C68"/>
<path fill-rule="evenodd" clip-rule="evenodd" d="M308 56.9336C307.95 57.131 303.656 56.8738 298.409 56.3566C293.162 55.8422 288.951 55.2639 289 55.0665C289.052 54.869 293.344 55.1262 298.593 55.642C303.838 56.1578 308.049 56.7361 308 56.9336Z" fill="#002C68"/>
<path fill-rule="evenodd" clip-rule="evenodd" d="M39.5264 85.4082L40.255 95.2819C40.255 95.2819 32.0884 96.4153 34.418 104.073C36.7455 111.731 42.331 108.379 42.331 108.379C42.331 108.379 43.7279 128.003 63.2824 121.781C78.8438 116.83 77.8918 96.1126 75.9168 78.4508C75.1517 71.6084 68.8549 66.9046 62.2787 68.2214L50.5233 70.5766C43.73 71.9353 39.002 78.3116 39.5264 85.4082Z" fill="#FFAFA7"/>
<path fill-rule="evenodd" clip-rule="evenodd" d="M40 102L45.3427 131.382C46.5455 138.003 52.8731 142.237 59.2247 140.675C65.11 139.226 68.8795 133.295 67.8227 127.15L64.9226 110.309L40 102Z" fill="#FFAFA7"/>
<path fill-rule="evenodd" clip-rule="evenodd" d="M62.021 103.212C62.0775 103.158 62.1972 103.462 62.4655 103.503C62.7274 103.54 63.1266 103.177 63.2236 102.409C63.3578 101.648 63.2834 100.647 63.2026 99.4882C63.1331 98.2427 63.0652 97.0102 62.9941 95.7215C62.7435 90.3721 62.7274 86.0195 62.9601 86C63.1929 85.9806 63.5841 90.3008 63.8347 95.6502C63.8832 96.9432 63.93 98.1757 63.9769 99.4233C64.0109 100.567 64.0432 101.698 63.7943 102.634C63.6003 103.612 62.8486 104.217 62.3798 103.927C61.9304 103.622 61.9903 103.205 62.021 103.212Z" fill="#241352"/>
<path fill-rule="evenodd" clip-rule="evenodd" d="M67.9931 118.03C68.083 118.166 67.2896 119.294 65.6501 120.51C64.0282 121.723 61.4945 122.919 58.5772 122.996C55.66 123.078 53.0868 122.023 51.4276 120.897C49.7509 119.772 48.9224 118.689 49.0057 118.547C49.1526 118.137 53.0408 121.698 58.5531 121.522C64.0655 121.398 67.8353 117.628 67.9931 118.03Z" fill="#241352"/>
<path fill-rule="evenodd" clip-rule="evenodd" d="M63.9763 107.737C64.084 107.822 63.8368 108.497 62.9852 109.148C62.1631 109.793 60.65 110.318 59.0609 109.772C57.478 109.208 56.5292 107.82 56.2059 106.775C55.8635 105.705 56.022 104.998 56.1551 105C56.3221 104.984 56.4531 105.608 56.9096 106.414C57.3512 107.212 58.2008 108.207 59.3969 108.633C60.5972 109.047 61.8186 108.78 62.6069 108.409C63.4078 108.043 63.8495 107.62 63.9763 107.737Z" fill="#241352"/>
<path fill-rule="evenodd" clip-rule="evenodd" d="M39.9741 104.739C39.9757 104.892 39.6141 105.162 38.9736 104.87C38.6671 104.721 38.2618 104.295 38.0883 103.557C38.0007 103.197 37.9618 102.756 38.0494 102.294C38.1191 101.843 38.3964 101.357 38.7028 101.201C39.1212 100.936 39.7065 101.092 39.9773 101.808L39.2606 102.388C38.792 100.543 38.565 99.1293 38.7401 99.0083C38.9136 98.8873 39.4357 100.099 40 101.879L39.2833 102.458C39.2671 102.42 39.1487 102.34 39.0028 102.428C38.8455 102.501 38.7742 102.793 38.8277 103.179C38.8796 103.547 39.0368 103.821 39.2282 104.031C39.6157 104.429 39.9838 104.545 39.9741 104.739Z" fill="#241352"/>
<path fill-rule="evenodd" clip-rule="evenodd" d="M69.3233 89.9967C69.0433 90.0413 68.6713 89.6301 68.4913 89.0795C68.3133 88.5288 68.3973 88.0479 68.6773 88.0033C68.9573 87.9587 69.3293 88.3699 69.5073 88.9205C69.6873 89.4712 69.6033 89.9521 69.3233 89.9967Z" fill="#241352"/>
<path fill-rule="evenodd" clip-rule="evenodd" d="M51.3976 90.9951C51.1196 91.0493 50.7176 90.6462 50.4976 90.0972C50.2776 89.5468 50.3256 89.0589 50.6036 89.0047C50.8796 88.9518 51.2816 89.3536 51.5016 89.904C51.7216 90.453 51.6756 90.9409 51.3976 90.9951Z" fill="#241352"/>
<path fill-rule="evenodd" clip-rule="evenodd" d="M53.9911 86.7848C53.8962 87.0668 53.0125 87.0568 52.0339 87.3108C51.0467 87.5348 50.2815 87.9468 50.0508 87.7428C49.8116 87.5708 50.4237 86.6228 51.7494 86.3028C53.0707 85.9768 54.1075 86.5248 53.9911 86.7848Z" fill="#241352"/>
<path fill-rule="evenodd" clip-rule="evenodd" d="M69.9886 82.1733C69.878 82.4453 69.0174 82.3112 68.0099 82.4152C67.0005 82.4952 66.1743 82.7853 66.0216 82.5373C65.8575 82.3153 66.6399 81.4932 67.924 81.3792C69.2082 81.2572 70.1127 81.9253 69.9886 82.1733Z" fill="#241352"/>
<path fill-rule="evenodd" clip-rule="evenodd" d="M39.2095 95.4736C44.635 90.0208 46.2284 80.9363 47.7001 73.2745C52.724 77.047 59.634 77.9742 65.4268 75.6551C67.2445 77.8574 69.3805 79.7823 71.7408 81.3415C72.4137 81.7863 73.2083 82.218 73.9729 81.9801C74.8829 81.6983 75.2887 80.6213 75.5044 79.6655C76.1986 76.6109 76.2243 73.3405 75.1905 70.3872C74.1566 67.4383 71.9886 64.844 69.1498 63.7121C66.1167 62.5008 62.7034 63.0271 59.5528 63.8684C54.8087 65.1369 50.2356 67.086 46.0063 69.6407C41.8539 72.1469 37.8681 75.4657 36.1059 80.0796C34.3459 84.6956 34.3544 93.6678 38.5986 96" fill="#241352"/>
<path fill-rule="evenodd" clip-rule="evenodd" d="M58.5961 110.938C57.0954 110.522 56.6043 108.499 57.3309 107.116C58.0557 105.713 59.0233 104.883 59.5838 105.013C60.1369 105.185 60.7576 106.446 60.9712 108.101C61.194 109.741 60.0968 111.336 58.5961 110.938Z" fill="#241352" fill-opacity="0.2"/>
<path fill-rule="evenodd" clip-rule="evenodd" d="M51.117 102.992C48.7248 103.123 46.8819 101.593 47.0059 99.9524C47.126 98.298 48.8626 97.1221 50.8847 97.0071C52.9068 96.9058 54.7281 97.8953 54.9762 99.5291C55.2242 101.151 53.5093 102.868 51.117 102.992Z" fill="#241352" fill-opacity="0.12"/>
<path fill-rule="evenodd" clip-rule="evenodd" d="M72.1473 101.992C69.7056 102.123 67.8538 100.593 68.0091 98.9521C68.1621 97.2998 69.8831 96.1193 71.8502 96.0065C73.8195 95.9098 75.6469 96.8994 75.9618 98.5287C76.279 100.144 74.5868 101.863 72.1473 101.992Z" fill="#241352" fill-opacity="0.12"/>
<path fill-rule="evenodd" clip-rule="evenodd" d="M40.1852 120C39.8932 119.993 39.7312 116.863 39.5472 113.018C39.3692 109.171 39.2352 106.04 39.5252 106C39.8052 105.959 40.4072 109.064 40.5872 112.959C40.7732 116.854 40.4672 120.009 40.1852 120Z" fill="#6042DD"/>
<path fill-rule="evenodd" clip-rule="evenodd" d="M73.4629 132.2C68.3018 130.101 108 145.193 108 145.193L103.972 173L88.8729 167.928L73.4629 132.2Z" fill="#FBC580"/>
<path fill-rule="evenodd" clip-rule="evenodd" d="M47.7501 69.6685C48.9089 67.5097 49.2907 64.7404 48.7745 62.2307C48.3499 60.1633 47.0859 58.1127 45.3603 58.0045C44.3806 57.942 43.4302 58.531 42.7096 59.3556C40.9294 61.3893 40.4717 64.9712 41.6578 67.5818C42.844 70.1925 45.557 71.5796 47.8922 70.7695" fill="#241352"/>
<path fill-rule="evenodd" clip-rule="evenodd" d="M293.392 248.503C293.392 248.503 306.458 229.405 304.865 236.635C303.272 243.865 290 276 290 276L293.392 248.503Z" fill="#241352"/>
<path fill-rule="evenodd" clip-rule="evenodd" d="M99.351 219.229C99.351 219.229 117.244 213.494 116.629 215.381C116.015 217.266 112.971 217.336 109.927 220.379C109.927 220.379 129.928 220.599 128.966 222.284C128.005 223.966 114.985 224.391 114.906 224.677C114.829 224.965 129.147 225.322 128.826 226.879C128.502 228.437 115.197 228.057 115.197 228.057C115.197 228.057 127.531 229.398 127.278 231.076C127.025 232.756 115.654 231.546 115.654 231.546C115.654 231.546 125.172 232.657 124.923 234.177C124.773 235.104 97.0575 235.313 97 235.994C96.9695 236.352 99.351 219.229 99.351 219.229Z" fill="#FFAFA7"/>
<path fill-rule="evenodd" clip-rule="evenodd" d="M126.474 132C126.474 132 115.236 117.423 117.239 117.431C119.243 117.437 120.288 120.182 124.179 122.06C124.179 122.06 117.97 103.832 119.89 104.214C121.813 104.597 126.399 116.297 126.7 116.284C126.998 116.271 122.742 103.162 124.338 103.002C125.932 102.841 129.842 115.035 129.842 115.035C129.842 115.035 127.164 103.443 128.853 103.183C130.545 102.923 133.036 113.603 133.036 113.603C133.036 113.603 131.044 104.635 132.581 104.415C133.516 104.282 142 126.528 142 126.528C141.777 126.528 126.474 132 126.474 132Z" fill="#FFAFA7"/>
<path fill-rule="evenodd" clip-rule="evenodd" d="M27.5238 174C27.6275 173.989 27.9808 174.72 28 176.179C27.9962 176.886 27.7484 177.913 26.9765 178.553C26.6078 178.872 26.0586 179.101 25.4902 178.955C24.9276 178.819 24.5032 178.374 24.1979 177.987C23.5795 177.145 23.1782 176.649 22.5445 176.562C21.9377 176.45 21.3904 176.687 21.039 177.063C20.3016 177.846 20.3246 178.752 20.1749 178.743C20.075 178.814 19.6929 177.772 20.5224 176.497C20.9276 175.888 21.7437 175.392 22.6482 175.494C23.0956 175.539 23.5738 175.725 23.977 176.083C24.3707 176.43 24.651 176.848 24.9276 177.192C25.9223 178.772 27.2242 177.23 27.2953 176.094C27.4527 174.895 27.3605 174.014 27.5238 174Z" fill="#FCF2FC"/>
<path fill-rule="evenodd" clip-rule="evenodd" d="M36.0078 165.114C35.9385 165.015 36.3247 164.255 37.4834 163.452C38.0523 163.074 39.0158 162.778 39.9667 163.225C40.4327 163.433 40.9281 163.875 41.1359 164.54C41.3458 165.193 41.2303 165.872 41.0939 166.395C40.7706 167.481 40.6027 168.164 40.8924 168.866C41.1464 169.549 41.6481 169.985 42.1497 170.144C43.1951 170.48 43.9088 169.968 43.9865 170.131C44.1019 170.193 43.4827 171.147 41.9902 170.98C41.2723 170.892 40.4096 170.32 39.9772 169.332C39.7589 168.845 39.6371 168.252 39.6938 167.646C39.7484 167.053 39.9226 166.539 40.0401 166.069C40.7433 164.195 38.766 163.683 37.813 164.223C36.7655 164.707 36.1106 165.276 36.0078 165.114Z" fill="#FCF2FC"/>
<path fill-rule="evenodd" clip-rule="evenodd" d="M36.0078 144.115C35.9385 144.013 36.3247 143.256 37.4813 142.453C38.0502 142.075 39.0158 141.776 39.9667 142.226C40.4327 142.434 40.9281 142.876 41.1338 143.541C41.3458 144.194 41.2303 144.872 41.0939 145.396C40.7706 146.482 40.6006 147.165 40.8924 147.864C41.1464 148.549 41.6481 148.985 42.1476 149.145C43.1951 149.48 43.9088 148.969 43.9865 149.131C44.1019 149.193 43.4827 150.147 41.9881 149.98C41.2702 149.89 40.4096 149.318 39.9772 148.332C39.7589 147.846 39.6371 147.253 39.6917 146.646C39.7463 146.053 39.9226 145.539 40.0401 145.069C40.7412 143.196 38.766 142.684 37.813 143.221C36.7634 143.708 36.1106 144.277 36.0078 144.115Z" fill="#FCF2FC"/>
<path fill-rule="evenodd" clip-rule="evenodd" d="M57.5049 171.99C57.4059 172.062 56.5819 171.751 55.6299 170.712C55.1805 170.199 54.7746 169.304 55.1443 168.364C55.3134 167.904 55.7242 167.399 56.3935 167.152C57.0507 166.902 57.7659 166.962 58.324 167.052C59.4863 167.277 60.2136 167.387 60.9119 167.058C61.5981 166.763 61.9992 166.252 62.1176 165.764C62.3616 164.741 61.7575 164.102 61.917 164.015C61.9726 163.901 63.0261 164.418 62.9995 165.853C62.9802 166.543 62.4728 167.405 61.4893 167.892C61.0061 168.137 60.4044 168.298 59.7666 168.29C59.1432 168.283 58.5923 168.155 58.0921 168.079C56.0745 167.551 55.7411 169.473 56.3959 170.337C57.0048 171.3 57.662 171.88 57.5049 171.99Z" fill="#FCF2FC"/>
<path fill-rule="evenodd" clip-rule="evenodd" d="M71.9942 193.183C72.0579 193.286 71.6029 193.985 70.3389 194.673C69.7168 194.993 68.6902 195.202 67.7273 194.695C67.2547 194.458 66.7689 193.992 66.5974 193.333C66.4238 192.688 66.593 192.043 66.7733 191.55C67.1844 190.524 67.4086 189.878 67.1558 189.182C66.936 188.5 66.4435 188.041 65.9313 187.846C64.863 187.441 64.0826 187.88 64.0123 187.718C63.8957 187.647 64.6102 186.775 66.1578 187.055C66.9008 187.196 67.7603 187.815 68.1428 188.803C68.3363 189.289 68.4242 189.869 68.3231 190.452C68.2241 191.019 68.0043 191.503 67.8482 191.946C66.9843 193.696 69.0133 194.35 70.0465 193.902C71.1742 193.517 71.8975 193.019 71.9942 193.183Z" fill="#FCF2FC"/>
<path fill-rule="evenodd" clip-rule="evenodd" d="M88.9942 159.184C89.0579 159.287 88.6029 159.988 87.3389 160.674C86.7168 160.992 85.6902 161.202 84.7273 160.696C84.2547 160.459 83.7689 159.992 83.5974 159.336C83.4238 158.688 83.593 158.043 83.7733 157.55C84.1844 156.526 84.4086 155.881 84.1558 155.182C83.936 154.501 83.4435 154.041 82.9313 153.846C81.863 153.441 81.0826 153.878 81.0123 153.719C80.8957 153.647 81.6102 152.775 83.1578 153.055C83.9008 153.196 84.7603 153.815 85.1428 154.803C85.3385 155.289 85.4242 155.87 85.3231 156.452C85.2241 157.019 85.0043 157.503 84.8482 157.947C83.9843 159.699 86.0133 160.349 87.0465 159.903C88.1742 159.517 88.8975 159.02 88.9942 159.184Z" fill="#FCF2FC"/>
<path fill-rule="evenodd" clip-rule="evenodd" d="M98.9534 155.021C99.0306 154.93 99.8826 155.118 101.013 156.042C101.549 156.503 102.127 157.364 101.975 158.396C101.912 158.897 101.629 159.486 101.044 159.849C100.47 160.212 99.7773 160.265 99.2249 160.26C98.0709 160.214 97.3546 160.216 96.7601 160.668C96.1702 161.084 95.8963 161.675 95.887 162.201C95.8753 163.296 96.5869 163.862 96.4534 163.976C96.4253 164.105 95.3112 163.738 95.0279 162.249C94.9015 161.531 95.1988 160.558 96.0321 159.897C96.4394 159.566 96.9801 159.304 97.5887 159.209C98.1833 159.118 98.7357 159.163 99.2296 159.161C101.261 159.384 101.172 157.345 100.362 156.553C99.576 155.654 98.827 155.16 98.9534 155.021Z" fill="#FCF2FC"/>
<path fill-rule="evenodd" clip-rule="evenodd" d="M52.9942 211.184C53.0579 211.287 52.6029 211.986 51.3389 212.674C50.7168 212.992 49.6902 213.202 48.7274 212.696C48.2547 212.456 47.7689 211.992 47.5974 211.334C47.4238 210.688 47.593 210.043 47.7711 209.55C48.1844 208.524 48.4086 207.879 48.1558 207.182C47.936 206.501 47.4436 206.041 46.9314 205.846C45.8608 205.441 45.0804 205.88 45.0123 205.719C44.8958 205.647 45.608 204.775 47.1578 205.055C47.9008 205.196 48.7603 205.815 49.1428 206.803C49.3363 207.289 49.422 207.87 49.3231 208.452C49.2242 209.019 49.0043 209.503 48.8483 209.944C47.9843 211.697 50.0133 212.349 51.0443 211.903C52.1742 211.517 52.8975 211.02 52.9942 211.184Z" fill="#FCF2FC"/>
<path fill-rule="evenodd" clip-rule="evenodd" d="M77.9854 177.993C77.8827 178.061 77.1499 177.644 76.3965 176.444C76.0426 175.854 75.7846 174.864 76.2572 173.906C76.4787 173.439 76.933 172.947 77.5928 172.755C78.2434 172.558 78.9078 172.697 79.4192 172.851C80.4785 173.21 81.1451 173.403 81.846 173.127C82.5286 172.887 82.9761 172.389 83.1519 171.884C83.5172 170.828 83.0354 170.088 83.1975 170.013C83.266 169.897 84.1838 170.554 83.9669 172.07C83.855 172.8 83.2637 173.66 82.2752 174.072C81.7889 174.282 81.2022 174.389 80.604 174.314C80.0219 174.241 79.5196 174.047 79.063 173.914C77.2412 173.144 76.6681 175.142 77.1681 176.128C77.6087 177.21 78.1475 177.892 77.9854 177.993Z" fill="#FCF2FC"/>
<path fill-rule="evenodd" clip-rule="evenodd" d="M82.9842 194.993C82.8837 195.06 82.1486 194.645 81.3953 193.443C81.0437 192.854 80.7835 191.862 81.2583 190.906C81.4775 190.437 81.9318 189.948 82.5938 189.755C83.2444 189.558 83.9064 189.695 84.4178 189.851C85.4771 190.211 86.1459 190.403 86.8445 190.127C87.5271 189.886 87.9745 189.389 88.1503 188.885C88.5155 187.826 88.0361 187.088 88.196 187.013C88.2644 186.897 89.1821 187.552 88.9676 189.068C88.8557 189.798 88.2622 190.66 87.2737 191.073C86.7897 191.282 86.2007 191.387 85.6026 191.312C85.0205 191.239 84.5205 191.047 84.0617 190.914C82.24 190.144 81.667 192.142 82.1669 193.128C82.6075 194.21 83.1485 194.893 82.9842 194.993Z" fill="#FCF2FC"/>
<path fill-rule="evenodd" clip-rule="evenodd" d="M47.191 188.999C47.0789 188.982 46.8568 188.09 47.1329 186.504C47.2803 185.739 47.7515 184.698 48.694 184.221C49.1487 183.977 49.7735 183.885 50.3444 184.206C50.9112 184.514 51.2682 185.118 51.5111 185.625C51.9907 186.708 52.3145 187.362 52.9643 187.637C53.5829 187.931 54.2057 187.826 54.6541 187.521C55.5904 186.88 55.7502 185.893 55.908 185.945C56.0284 185.896 56.2173 187.136 55.0839 188.281C54.5337 188.825 53.5726 189.133 52.6384 188.763C52.1734 188.589 51.7083 188.251 51.3554 187.749C51.0108 187.262 50.7991 186.728 50.5769 186.276C49.8524 184.285 48.1647 185.585 47.8574 186.795C47.4484 188.05 47.3654 189.034 47.191 188.999Z" fill="#FCF2FC"/>
<path fill-rule="evenodd" clip-rule="evenodd" d="M79.192 210.999C79.0798 210.982 78.8556 210.09 79.1338 208.504C79.2792 207.739 79.7525 206.698 80.6951 206.221C81.1477 205.977 81.7747 205.885 82.3456 206.206C82.9124 206.514 83.2674 207.118 83.5124 207.625C83.992 208.708 84.3158 209.362 84.9657 209.637C85.5823 209.931 86.2072 209.826 86.6556 209.521C87.592 208.88 87.7518 207.893 87.9075 207.945C88.0279 207.896 88.2189 209.136 87.0833 210.281C86.5331 210.825 85.5719 211.133 84.6397 210.763C84.1747 210.589 83.7096 210.251 83.3567 209.749C83.012 209.262 82.8003 208.728 82.5781 208.276C81.8536 206.285 80.1636 207.585 79.8584 208.798C79.4494 210.05 79.3664 211.034 79.192 210.999Z" fill="#FCF2FC"/>
<path fill-rule="evenodd" clip-rule="evenodd" d="M79.192 143.999C79.0798 143.982 78.8556 143.087 79.1338 141.504C79.2792 140.739 79.7525 139.695 80.6951 139.221C81.1477 138.977 81.7747 138.885 82.3456 139.206C82.9124 139.512 83.2674 140.118 83.5124 140.622C83.992 141.708 84.3158 142.362 84.9657 142.638C85.5823 142.928 86.2072 142.826 86.6556 142.521C87.592 141.88 87.7518 140.893 87.9075 140.945C88.0279 140.893 88.2189 142.133 87.0833 143.279C86.5331 143.825 85.5719 144.131 84.6397 143.763C84.1747 143.587 83.7096 143.249 83.3567 142.749C83.012 142.26 82.8003 141.726 82.5781 141.276C81.8536 139.283 80.1636 140.583 79.8584 141.795C79.4494 143.05 79.3664 144.032 79.192 143.999Z" fill="#FCF2FC"/>
<path fill-rule="evenodd" clip-rule="evenodd" d="M67.7607 218.968C67.6896 219.065 66.745 218.975 65.3891 218.205C64.7416 217.82 63.9926 217.05 64.0002 216.035C63.9926 215.544 64.2084 214.943 64.7848 214.527C65.346 214.113 66.0849 213.986 66.679 213.928C67.9283 213.848 68.6977 213.765 69.2715 213.263C69.8428 212.796 70.0485 212.195 69.98 211.687C69.8276 210.625 68.977 210.155 69.1039 210.03C69.1141 209.904 70.3684 210.135 70.8966 211.545C71.1429 212.224 70.9677 213.197 70.1704 213.93C69.7819 214.294 69.2411 214.609 68.5986 214.766C67.9715 214.92 67.3697 214.938 66.8415 214.992C64.6198 215 65.0235 216.964 66.0138 217.639C66.9939 218.423 67.875 218.818 67.7607 218.968Z" fill="#FCF2FC"/>
<path fill-rule="evenodd" clip-rule="evenodd" d="M30.3904 153.005C30.4932 152.943 31.1521 153.458 31.7518 154.809C32.0298 155.473 32.1764 156.55 31.6292 157.524C31.3731 158 30.8916 158.48 30.2415 158.619C29.6002 158.764 28.9808 158.551 28.5081 158.338C27.5319 157.851 26.9146 157.581 26.2208 157.805C25.5445 157.995 25.0695 158.482 24.8506 159.001C24.3954 160.09 24.7806 160.925 24.6186 160.989C24.5442 161.105 23.7322 160.314 24.0911 158.722C24.2706 157.958 24.9207 157.101 25.9056 156.758C26.3893 156.584 26.9606 156.527 27.5231 156.666C28.0703 156.799 28.5299 157.055 28.9546 157.243C30.6158 158.238 31.3622 156.168 30.9835 155.07C30.6705 153.874 30.224 153.096 30.3904 153.005Z" fill="#FCF2FC"/>
<path fill-rule="evenodd" clip-rule="evenodd" d="M66.3904 148.005C66.4933 147.943 67.1521 148.458 67.7518 149.809C68.0298 150.473 68.1764 151.552 67.6292 152.524C67.3731 153 66.8916 153.48 66.2415 153.619C65.6002 153.763 64.9808 153.551 64.508 153.338C63.5319 152.851 62.9146 152.581 62.2208 152.805C61.5445 152.995 61.0695 153.482 60.8506 154.001C60.3954 155.09 60.7806 155.925 60.6186 155.989C60.5442 156.105 59.7322 155.316 60.0911 153.722C60.2706 152.958 60.9207 152.101 61.9056 151.76C62.3893 151.584 62.9606 151.527 63.5231 151.666C64.0703 151.799 64.5299 152.055 64.9546 152.243C66.6158 153.237 67.3622 151.168 66.9835 150.07C66.6705 148.874 66.224 148.096 66.3904 148.005Z" fill="#FCF2FC"/>
<path fill-rule="evenodd" clip-rule="evenodd" d="M44.088 187C44.0081 186.991 44.0214 186.158 44.1124 184.662C44.2034 183.163 44.3721 181 44.6052 178.33C45.0691 172.993 45.8016 165.62 46.6607 157.502C46.856 155.486 46.9559 153.524 46.6851 151.695C46.4343 149.863 45.7395 148.217 44.7295 146.88C42.6917 144.181 39.7994 142.778 37.3399 142.176C34.8471 141.565 32.7227 141.595 31.2754 141.636C29.8215 141.688 29.0135 141.781 29 141.69C28.9868 141.62 29.7704 141.372 31.2377 141.177C32.7005 140.993 34.8759 140.828 37.5197 141.361C40.1235 141.888 43.28 143.284 45.5686 146.212C46.7073 147.656 47.5197 149.527 47.8061 151.518C48.1146 153.509 48.0081 155.57 47.8105 157.617C46.9493 165.76 46.0902 173.102 45.4176 178.421C45.0802 181.079 44.7872 183.229 44.5586 184.709C44.3322 186.194 44.1679 187.009 44.088 187Z" fill="#241352"/>
<path fill-rule="evenodd" clip-rule="evenodd" d="M47 185.048C47.0332 185.216 39.4503 185.779 30.061 186.304C20.6718 186.831 13.0334 187.121 13 186.952C12.9668 186.785 20.5497 186.221 29.9412 185.696C39.326 185.17 46.9666 184.879 47 185.048Z" fill="#241352"/>
<path fill-rule="evenodd" clip-rule="evenodd" d="M89.7033 179.999C89.3453 179.965 91.0767 173.495 89.1004 165.788C87.2476 158.048 82.7129 153.209 83.0143 153.005C83.0981 152.917 84.3438 153.975 85.8888 156.12C87.4339 158.252 89.1695 161.553 90.1576 165.515C91.1332 169.478 91.1437 173.227 90.7794 175.855C90.4193 178.496 89.8185 180.036 89.7033 179.999Z" fill="#241352"/>
<path fill-rule="evenodd" clip-rule="evenodd" d="M176.233 180.243C176.509 178.431 176.456 176.708 177.485 175.111C179.534 171.927 182.453 172.719 185.28 174.119C188.15 175.54 190.85 176.393 193.971 175.065C198.887 172.97 201.064 165.807 196.489 162.346C195.005 161.224 193.478 163.072 193.699 164.457C194.01 166.409 194.975 168.563 193.276 170.239C191.005 172.484 188.338 170.605 186.069 169.595C183.628 168.508 181.037 168.267 178.515 169.268C174.174 170.991 171.018 176.784 174.467 180.701C174.954 181.255 176.117 181.003 176.233 180.243Z" fill="#7E2E84"/>
<path fill-rule="evenodd" clip-rule="evenodd" d="M189.009 95.5583C189.458 98.5967 192.471 105.008 195.648 105.892C197.333 106.362 198.585 105.2 199.894 104.256C202.278 102.537 204.633 100.779 206.992 99.0204C207.844 98.387 208.349 97.1659 207.715 96.1437C205.627 92.782 203.541 89.4203 201.454 86.0608C200.901 85.1718 199.625 84.6235 198.704 85.3072C196.097 87.236 193.306 89.025 190.926 91.2573C189.299 92.7864 191.377 95.3901 193.203 94.346C195.853 92.83 198.268 90.7637 200.734 88.9398C199.815 88.6886 198.898 88.4374 197.982 88.1862C200.068 91.5457 202.155 94.9073 204.241 98.2668C204.483 97.3079 204.723 96.3468 204.963 95.3879C203.548 96.4429 202.128 97.4914 200.717 98.5508C200.009 99.0816 197.114 101.847 196.345 101.666C195.433 101.452 193.961 98.7015 193.385 97.9829C192.383 96.7378 191.446 95.5604 190.151 94.6387C189.529 94.1931 188.917 94.927 189.009 95.5583Z" fill="#FBC580"/>
<path fill-rule="evenodd" clip-rule="evenodd" d="M159.435 126.927C155.918 130.082 154.579 134.993 157.935 138.781C161.092 142.35 167.208 143.107 171.153 140.264C180.681 133.398 170.75 120.73 160.47 123.352C158.567 123.837 159.041 126.371 160.922 126.471C163.927 126.63 167.145 126.739 169.545 128.704C172.125 130.818 172.181 134.391 170.067 136.82C164.462 143.254 154.729 133.78 160.615 128.029C161.357 127.303 160.212 126.231 159.435 126.927Z" fill="#7CABFF"/>
<path fill-rule="evenodd" clip-rule="evenodd" d="M237.03 156.7C235.897 162.995 234.931 169.302 234.03 175.639C233.814 177.163 234.795 178.191 236.208 177.97C241.771 177.104 247.318 176.306 252.808 175.008C253.864 174.758 254.292 173.367 253.791 172.421C250.68 166.562 246.718 158.4 240.864 155.204C239.382 154.394 237.283 156.145 238.391 157.85C240.132 160.532 242.71 162.543 244.738 164.999C247.073 167.828 249.266 170.873 250.949 174.199C251.422 173.315 251.897 172.432 252.369 171.55C246.62 172.157 240.96 173.264 235.267 174.317C236.016 174.926 236.762 175.534 237.509 176.145C238.194 169.774 238.807 163.415 239.252 157.022C239.348 155.674 237.272 155.356 237.03 156.7Z" fill="#FF7081"/>
<path fill-rule="evenodd" clip-rule="evenodd" d="M209.753 145.175C211.367 139.21 212.676 132.794 212.998 126.686C213.098 124.78 209.338 124.305 208.906 126.228C207.545 132.274 207.055 138.73 207 144.868C206.99 146.146 209.401 146.468 209.753 145.175Z" fill="#FF957E"/>
<path fill-rule="evenodd" clip-rule="evenodd" d="M276.792 144.378C282.547 145.466 288.619 146.225 294.429 145.94C296.563 145.837 296.483 141.831 294.429 141.543C288.758 140.746 282.767 140.918 277.083 141.471C275.942 141.582 275.489 144.132 276.792 144.378Z" fill="#FBC580"/>
<path fill-rule="evenodd" clip-rule="evenodd" d="M227.542 67.978C232.693 70.6292 238.339 73.213 243.92 74.9269C245.679 75.4679 246.873 72.8543 245.191 72.0499C239.942 69.5374 234.028 67.5995 228.397 66.0421C227.201 65.7132 226.422 67.4014 227.542 67.978Z" fill="#FF7081"/>
<path fill-rule="evenodd" clip-rule="evenodd" d="M244.883 116.403C244.768 116.302 244.653 116.202 244.538 116.099C243.031 114.766 240.557 114.507 239.091 116.099C237.609 117.709 237.664 119.92 239.091 121.533C239.192 121.646 239.293 121.761 239.396 121.876C240.744 123.397 243.525 123.352 244.883 121.876C246.234 120.409 246.505 117.836 244.883 116.403Z" fill="#241352"/>
<path fill-rule="evenodd" clip-rule="evenodd" d="M109.617 5.59254C103.532 7.69157 98.4963 12.8736 96.2927 19.2062C94.0892 25.5411 94.7408 32.8888 97.9565 38.7216C104.145 49.9519 120.036 53.568 130.076 46.0315C140.115 38.495 142.055 21.4918 133.998 11.6631C125.938 1.83651 109.687 1.38339 101.147 10.7501" fill="#D1D69D"/>
</g>
<defs>
<clipPath id="clip0_0_73">
<rect width="330" height="303" fill="white"/>
</clipPath>
</defs>
</svg>
