<svg width="283" height="314" viewBox="0 0 283 314" fill="none" xmlns="http://www.w3.org/2000/svg">
<g clip-path="url(#clip0_0_5)">
<path fill-rule="evenodd" clip-rule="evenodd" d="M123.756 114.919C120.421 118.074 119.154 122.985 122.332 126.774C125.325 130.343 131.119 131.1 134.856 128.254C143.88 121.39 134.475 108.722 124.736 111.344C122.93 111.829 123.382 114.363 125.162 114.463C128.011 114.622 131.057 114.731 133.333 116.696C135.777 118.81 135.83 122.383 133.825 124.813C128.518 131.246 119.297 121.773 124.871 116.021C125.576 115.295 124.492 114.223 123.756 114.919Z" fill="#7CABFF"/>
<path fill-rule="evenodd" clip-rule="evenodd" d="M217.528 126.307C218.72 130.866 220.029 135.376 221.389 139.884C221.718 140.969 222.713 141.308 223.615 140.675C227.164 138.185 230.718 135.738 234.079 132.982C234.726 132.452 234.585 131.384 233.945 130.93C230.008 128.14 224.689 124.022 219.692 123.992C218.422 123.986 217.533 125.831 218.821 126.599C220.84 127.799 223.254 128.227 225.407 129.152C227.895 130.218 230.357 131.469 232.549 133.089C232.601 132.341 232.648 131.59 232.698 130.842C228.938 133.234 225.401 135.911 221.825 138.579C222.529 138.724 223.233 138.871 223.937 139.016C222.411 134.564 220.846 130.141 219.155 125.753C218.798 124.828 217.274 125.335 217.528 126.307Z" fill="#3A6B35"/>
<path fill-rule="evenodd" clip-rule="evenodd" d="M242.912 148.882C248.33 146.335 253.874 143.407 258.755 139.969C260.546 138.706 258.781 136.242 256.892 137.214C251.674 139.896 246.588 143.363 241.933 146.899C241.001 147.609 241.687 149.459 242.912 148.882Z" fill="#FBC580"/>
<path fill-rule="evenodd" clip-rule="evenodd" d="M42.4774 166.902C41.3478 161.266 39.8776 155.416 37.7348 150.053C36.9479 148.082 34.0753 149.105 34.5533 151.093C35.867 156.58 37.9844 162.139 40.2796 167.317C40.7407 168.356 42.7334 168.178 42.4774 166.902Z" fill="#FF957E"/>
<path fill-rule="evenodd" clip-rule="evenodd" d="M60.3819 113.394L60.0389 113.092C58.5309 111.759 56.0583 111.498 54.5908 113.092C53.1091 114.703 53.1639 116.916 54.5908 118.527C54.6933 118.641 54.7933 118.753 54.8934 118.869C56.2441 120.388 59.0241 120.345 60.3819 118.869C61.7326 117.4 62.0065 114.827 60.3819 113.394Z" fill="#241352"/>
<path fill-rule="evenodd" clip-rule="evenodd" d="M203.502 267.182C203.502 267.182 146.425 280.413 123.5 257.565L131.703 202.993C134.196 187.306 132.71 157.126 144.764 146.419C147.096 144.346 149.342 143.315 149.342 143.315C157.798 139.245 172.841 137.047 187.287 136.992C204.834 136.925 222.894 150.147 227.5 167.02L208.508 211.291L203.502 267.182Z" fill="#3A6B35"/>
<path fill-rule="evenodd" clip-rule="evenodd" d="M198.835 173.775C198.835 173.775 224.435 222.741 211.726 225.348C169.904 233.926 145.632 240.961 145.632 240.961L143.5 257.085C144.123 259.523 228.107 257.417 238.055 246.212C245.078 238.301 254.416 220.02 234.551 180.452L228.516 166.992L198.835 173.775Z" fill="#FFAFA7"/>
<path fill-rule="evenodd" clip-rule="evenodd" d="M151.5 146.899L87.6659 171.341L85.6682 138.22L72.0018 132.992C72.0018 132.992 52.1848 186.156 76.9683 196.054C101.752 205.954 129.677 187.662 129.677 187.662L151.5 146.899Z" fill="#FFAFA7"/>
<path fill-rule="evenodd" clip-rule="evenodd" d="M158.5 139.992C136.53 147.044 123.428 155.309 92.5 168.307L108.382 203.992L135.755 195.137L158.5 139.992Z" fill="#3A6B35"/>
<path fill-rule="evenodd" clip-rule="evenodd" d="M195.506 166.399L211.478 203.992L247.5 197.329L223.232 154.992L194.5 166.399" fill="#3A6B35"/>
<path fill-rule="evenodd" clip-rule="evenodd" d="M175.935 191.726C183.66 191.32 191.29 191.636 199.009 191.732C199.684 191.742 199.643 190.84 199.009 190.768C191.402 189.908 183.548 190.252 175.935 190.87C175.361 190.918 175.349 191.758 175.935 191.726Z" fill="#002C68"/>
<path fill-rule="evenodd" clip-rule="evenodd" d="M210.184 147.993C184.213 150.36 201.977 189.007 208.633 200.707C209.001 201.359 209.997 200.775 209.631 200.119C203.015 188.298 185.312 152.332 210.269 148.633C210.627 148.58 210.547 147.959 210.184 147.993Z" fill="#002C68"/>
<path fill-rule="evenodd" clip-rule="evenodd" d="M137.826 170.236C134.53 183.03 132.317 196.335 131.501 209.509C131.466 210.054 132.412 210.192 132.493 209.64C134.409 196.542 136.336 183.48 138.495 170.413C138.564 169.997 137.937 169.805 137.826 170.236Z" fill="#002C68"/>
<path fill-rule="evenodd" clip-rule="evenodd" d="M199.797 98.992C200.198 93.4418 200.604 87.8915 201.006 82.3413C205.381 81.1119 207.657 75.5319 205.909 71.3474C204.164 67.1628 199.207 64.8128 194.705 65.4541C197.545 63.5259 197.329 58.9216 194.998 56.4054C192.667 53.8891 189.016 53.0731 185.582 52.941C182.149 52.8089 178.675 53.2244 175.297 52.6001C172.306 52.044 169.375 50.6783 166.356 51.0576C163.337 51.4389 160.451 54.8266 162.079 57.3897C157.725 56.7527 153.014 56.1732 149.144 58.2675C145.275 60.3619 143.333 66.3212 146.657 69.1976C144.461 70.314 143.912 73.4844 145.147 75.6128C146.382 77.7392 148.911 78.8577 151.368 79.0346C153.828 79.2093 156.267 78.5893 158.654 77.9735" fill="#241352"/>
<path fill-rule="evenodd" clip-rule="evenodd" d="M198.945 88.249L198.08 99.7394C198.08 99.7394 207.764 101.057 205.006 109.967C202.243 118.877 195.619 114.979 195.619 114.979C195.619 114.979 193.961 137.814 170.771 130.574C152.314 124.81 153.442 100.705 155.785 80.1537C156.694 72.1921 164.16 66.7174 171.959 68.2495L185.901 70.9889C193.961 72.5719 199.567 79.9924 198.945 88.249Z" fill="#FFAFA7"/>
<path fill-rule="evenodd" clip-rule="evenodd" d="M197.5 109.992L191.205 143.142C189.785 150.61 182.33 155.388 174.843 153.626C167.906 151.991 163.463 145.3 164.709 138.366L168.126 119.366L197.5 109.992Z" fill="#FFAFA7"/>
<path fill-rule="evenodd" clip-rule="evenodd" d="M171.478 110.081C171.515 110.068 171.584 110.567 170.91 110.912C170.211 111.24 169.089 110.525 168.801 109.351C168.427 108.22 168.483 106.851 168.544 105.445C168.618 103.95 168.695 102.425 168.774 100.825C169.166 94.2709 169.719 88.9745 170.02 88.992C170.315 89.0139 170.242 94.3409 169.854 100.897C169.742 102.493 169.639 104.019 169.535 105.513C169.417 106.932 169.307 108.17 169.533 109.123C169.697 110.086 170.364 110.558 170.798 110.486C171.242 110.407 171.404 110.02 171.478 110.081Z" fill="#241352"/>
<path fill-rule="evenodd" clip-rule="evenodd" d="M163.505 128.007C163.613 127.88 164.747 128.57 166.743 129.348C168.721 130.129 171.634 130.928 174.933 130.988C178.237 131.049 181.183 130.36 183.198 129.651C185.229 128.948 186.395 128.301 186.495 128.432C186.579 128.526 185.56 129.394 183.529 130.298C181.52 131.203 178.421 132.054 174.909 131.988C171.4 131.925 168.346 130.959 166.379 129.981C164.395 129.002 163.42 128.097 163.505 128.007Z" fill="#241352"/>
<path fill-rule="evenodd" clip-rule="evenodd" d="M168.521 114.786C168.654 114.684 169.187 115.139 170.203 115.537C171.194 115.94 172.763 116.237 174.313 115.8C175.862 115.354 176.941 114.305 177.483 113.468C178.044 112.62 178.176 111.977 178.354 111.992C178.488 111.99 178.656 112.702 178.213 113.772C177.794 114.815 176.61 116.198 174.664 116.762C172.708 117.307 170.837 116.793 169.808 116.161C168.742 115.521 168.409 114.854 168.521 114.786Z" fill="#241352"/>
<path fill-rule="evenodd" clip-rule="evenodd" d="M198.5 110.785C198.486 110.62 199.066 110.538 199.709 110.143C200.03 109.939 200.308 109.649 200.41 109.243C200.513 108.83 200.395 108.445 200.072 108.342C199.806 108.239 199.553 108.325 199.494 108.422L198.559 107.941C199.435 106.141 200.218 104.897 200.448 104.998C200.674 105.099 200.277 106.51 199.524 108.365L198.591 107.882C198.983 107.218 199.842 107.067 200.463 107.319C200.918 107.468 201.319 107.922 201.427 108.351C201.555 108.788 201.501 109.21 201.37 109.559C201.114 110.271 200.509 110.689 200.043 110.842C199.068 111.149 198.496 110.909 198.5 110.785Z" fill="#241352"/>
<path fill-rule="evenodd" clip-rule="evenodd" d="M180.507 88.6895C180.408 88.4315 181.436 87.8255 182.735 88.2115C184.035 88.5895 184.662 89.6815 184.464 89.8535C184.271 90.0575 183.519 89.5035 182.497 89.2195C181.486 88.9055 180.583 88.9735 180.507 88.6895Z" fill="#241352"/>
<path fill-rule="evenodd" clip-rule="evenodd" d="M159.51 84.1683C159.382 83.9203 160.51 83.1683 162.088 83.3143C163.667 83.4483 164.649 84.3883 164.481 84.6083C164.322 84.8583 163.294 84.4523 162 84.3523C160.705 84.2223 159.624 84.4423 159.51 84.1683Z" fill="#241352"/>
<path fill-rule="evenodd" clip-rule="evenodd" d="M197.468 100.371C190.985 93.9263 189.08 83.1892 187.321 74.1364C181.318 78.594 173.058 79.6897 166.136 76.9485C163.962 79.5522 161.41 81.8251 158.589 83.6704C157.786 84.1946 156.834 84.7059 155.922 84.4245C154.834 84.0893 154.35 82.8176 154.091 81.6897C153.262 78.0785 153.233 74.2116 154.468 70.7249C155.704 67.2361 158.292 64.1726 161.686 62.8343C165.311 61.4014 169.392 62.0244 173.155 63.019C178.825 64.5185 184.291 66.8215 189.348 69.8398C194.308 72.8023 199.074 76.7229 201.177 82.1795C203.282 87.634 203.273 98.2336 198.199 100.992" fill="#241352"/>
<path fill-rule="evenodd" clip-rule="evenodd" d="M182.382 96.9916C182.094 96.9736 181.916 96.286 181.98 95.4577C182.046 94.6294 182.332 93.9743 182.618 93.9924C182.906 94.0104 183.086 94.698 183.018 95.5263C182.954 96.3528 182.668 97.0097 182.382 96.9916Z" fill="#241352"/>
<path fill-rule="evenodd" clip-rule="evenodd" d="M163.381 94.9916C163.093 94.9736 162.915 94.286 162.981 93.4577C163.045 92.6294 163.331 91.9743 163.617 91.9924C163.905 92.0104 164.085 92.698 164.019 93.5263C163.953 94.3528 163.669 95.0097 163.381 94.9916Z" fill="#241352"/>
<path fill-rule="evenodd" clip-rule="evenodd" d="M70.5 134.523C70.5 134.523 73.3263 117.058 76.7047 117.246C80.0831 117.434 86.8356 117.246 86.8356 117.246C86.8356 117.246 87.4005 100.634 89.2776 103.277C91.1526 105.92 91.7429 128.27 84.5062 138.992L70.5 134.523Z" fill="#FFAFA7"/>
<path fill-rule="evenodd" clip-rule="evenodd" d="M145.5 240.992C145.5 240.992 115.928 246.255 116.508 250.157C117.085 254.058 119.162 257.992 119.162 257.992L145.5 257.362V240.992Z" fill="#FFAFA7"/>
<path fill-rule="evenodd" clip-rule="evenodd" d="M178.5 258.683L178.271 254.507L115.89 250.71L94.9687 194.992L26.5 198.739L49.8595 258.992L178.5 258.683Z" fill="#5E7B5B"/>
<path fill-rule="evenodd" clip-rule="evenodd" d="M64.5076 225.266C64.6603 228.023 67.0178 230.135 69.777 229.984C72.534 229.832 74.6468 227.475 74.492 224.716C74.3414 221.959 71.9839 219.847 69.2268 220C66.4677 220.152 64.357 222.51 64.5076 225.266Z" fill="white"/>
<path fill-rule="evenodd" clip-rule="evenodd" d="M62.5109 225.377C62.7242 229.237 66.0264 232.194 69.8849 231.981C73.7455 231.77 76.7006 228.468 76.4893 224.607C76.2781 220.747 72.9759 217.79 69.1153 218.003C65.2547 218.214 62.2975 221.516 62.5109 225.377Z" fill="white"/>
<mask id="mask0_0_5" style="mask-type:luminance" maskUnits="userSpaceOnUse" x="16" y="256" width="284" height="32">
<path d="M16.5 256.927H299.479V287.992H16.5V256.927Z" fill="#E2D3F5"/>
</mask>
<g mask="url(#mask0_0_5)">
<path fill-rule="evenodd" clip-rule="evenodd" d="M16.4991 260.18L283.825 256.927L299.479 264.941C299.479 264.941 94.2619 319.849 16.4991 260.18Z" fill="#CBD18F"/>
</g>
<path fill-rule="evenodd" clip-rule="evenodd" d="M174.532 -0.950888C174.532 -0.950888 160.954 -0.27563 160.5 14.1209C160.5 14.1209 160.728 21.9934 165.028 24.9167C169.327 27.8401 169.1 30.992 169.1 30.992H180.414C180.414 30.992 179.963 26.9425 181.773 24.6924C183.583 22.4422 188.109 17.7195 187.432 10.7467C186.752 3.77177 181.545 -1.62615 174.532 -0.950888Z" fill="#FFBC7A"/>
<path fill-rule="evenodd" clip-rule="evenodd" d="M168.958 34.6645C172.955 34.4845 176.999 34.9105 180.971 34.6865C181.543 34.6525 181.739 33.7865 181.113 33.6605C177.252 32.8845 172.839 33.3145 168.958 33.7385C168.363 33.8025 168.332 34.6925 168.958 34.6645Z" fill="#5E7B5B"/>
<path fill-rule="evenodd" clip-rule="evenodd" d="M170.986 38.6807C172.641 38.5907 174.308 38.5267 175.967 38.5427C177.618 38.5587 179.31 38.8147 180.951 38.7027C181.554 38.6607 181.74 37.8327 181.1 37.6767C177.924 36.9007 174.062 37.3487 170.853 37.7707C170.304 37.8447 170.432 38.7107 170.986 38.6807Z" fill="#5E7B5B"/>
<path fill-rule="evenodd" clip-rule="evenodd" d="M171.935 40.2636C173.258 40.3576 174.624 40.7416 175.942 40.7136C176.594 40.6976 176.713 39.7536 176.093 39.5536C174.813 39.1396 173.262 39.2836 171.935 39.3376C171.351 39.3616 171.359 40.2216 171.935 40.2636Z" fill="#5E7B5B"/>
<path fill-rule="evenodd" clip-rule="evenodd" d="M172.611 30.3433C172.937 26.2694 171.525 21.7619 170.809 17.7641C170.397 17.9333 169.988 18.1004 169.577 18.2696C170.171 19.2151 171.155 21.9438 172.667 21.8465C174.23 21.7449 174.811 19.0353 175.029 17.9312H173.682C173.984 19.1897 174.021 22.2251 176.054 21.9374C177.776 21.6942 178.936 19.2109 179.462 17.8487C178.999 17.7239 178.531 17.5991 178.063 17.4743C177.023 21.4594 176.524 26.5042 177.564 30.5189C177.752 31.2423 178.931 31.0985 178.909 30.3433C178.781 26.1213 178.174 21.9882 179.462 17.8487C179.741 16.9603 178.396 16.6451 178.063 17.4743C177.871 17.9439 176.759 20.6175 175.706 20.2727C175.44 20.186 175.09 17.8022 175.029 17.5716C174.874 16.9476 173.806 16.899 173.682 17.5716C173.529 18.3902 173.179 20.6196 172.186 19.9533C171.612 19.5684 171.105 18.1956 170.741 17.6076C170.326 16.9349 169.396 17.4108 169.509 18.1131C170.16 22.1109 170.339 26.7686 171.991 30.5083C172.134 30.8298 172.589 30.6268 172.611 30.3433Z" fill="#5E7B5B"/>
<path fill-rule="evenodd" clip-rule="evenodd" d="M132.125 25.9693C138.469 24.2528 145.016 22.7736 151.21 20.6966C151.705 20.5304 151.524 19.8916 150.986 20.0055C144.529 21.369 138.19 23.4011 131.853 25.1344C131.233 25.3044 131.497 26.1393 132.125 25.9693Z" fill="#FFBC7A"/>
<path fill-rule="evenodd" clip-rule="evenodd" d="M140.044 7.68436C143.985 7.61036 148.086 7.81836 151.996 7.35636C152.653 7.27836 152.683 6.43836 151.996 6.39236C148.066 6.11836 143.982 6.52637 140.044 6.64437C139.322 6.66637 139.315 7.69836 140.044 7.68436Z" fill="#FFBC7A"/>
<path fill-rule="evenodd" clip-rule="evenodd" d="M158.31 1.0369C153.896 -2.88606 149.682 -7.78152 144.653 -10.886C143.865 -11.3723 143.132 -10.292 143.704 -9.62969C147.561 -5.16988 152.973 -1.85637 157.51 1.85318C158.069 2.31082 158.869 1.53195 158.31 1.0369Z" fill="#FFBC7A"/>
<path fill-rule="evenodd" clip-rule="evenodd" d="M190.088 -0.0481243C192.933 -1.24082 195.612 -2.79113 198.319 -4.26288C200.991 -5.71397 203.984 -6.97695 206.312 -8.9448C206.786 -9.34788 206.281 -10.1685 205.706 -9.9804C202.981 -9.09569 200.516 -7.35729 198.036 -5.94341C195.23 -4.34143 192.341 -2.82213 189.708 -0.943167C189.297 -0.649643 189.533 0.183388 190.088 -0.0481243Z" fill="#FFBC7A"/>
<path fill-rule="evenodd" clip-rule="evenodd" d="M191.945 8.66099C194.32 9.41305 198.402 8.85801 200.245 7.25643C200.887 6.69927 200.203 5.88153 199.44 6.0044C198.173 6.20354 197.004 6.80943 195.742 7.07636C194.486 7.34117 193.201 7.33693 191.945 7.56996C191.297 7.69072 191.409 8.48939 191.945 8.66099Z" fill="#FFBC7A"/>
<path fill-rule="evenodd" clip-rule="evenodd" d="M193.984 19.164C202.063 20.9716 210.4 23.0379 218.665 23.9855C219.663 24.099 219.798 22.701 218.898 22.4608C210.979 20.3536 202.477 19.2608 194.342 18.0024C193.506 17.874 193.129 18.9723 193.984 19.164Z" fill="#FFBC7A"/>
<path fill-rule="evenodd" clip-rule="evenodd" d="M76.7287 162.234C77.0051 160.424 76.9515 158.7 77.9801 157.103C80.0308 153.922 82.9407 154.723 85.7585 156.121C88.6298 157.547 91.3319 158.4 94.454 157.07C99.3289 154.989 101.615 147.741 96.9653 144.332C95.4589 143.227 93.9761 145.05 94.1775 146.446C94.4583 148.396 95.4397 150.54 93.7447 152.217C91.4798 154.459 88.8227 152.577 86.562 151.571C84.1192 150.485 81.5243 150.247 79.0043 151.25C74.6673 152.98 71.5217 158.778 74.9673 162.693C75.4516 163.246 76.6108 162.997 76.7287 162.234Z" fill="#7E2E84"/>
<path fill-rule="evenodd" clip-rule="evenodd" d="M120.39 217.663C126.476 218.021 132.873 218.165 138.95 217.69C141.183 217.514 140.907 215.103 138.741 215.037C132.757 214.851 126.486 215.265 120.556 215.895C119.367 216.021 119.011 217.581 120.39 217.663Z" fill="#7E2E84"/>
<path fill-rule="evenodd" clip-rule="evenodd" d="M225.654 61.4037C224.844 62.9863 227.494 103.87 227.494 103.87L247.492 102.198L245.16 112.992L254.932 101.897L274.5 99.6224L273.312 59.992L225.654 61.4037Z" fill="#CBD18F"/>
<path fill-rule="evenodd" clip-rule="evenodd" d="M236.5 79.406L240.735 93.992L246.662 92.8467L246.083 89.9105L247.764 88.9091L250.939 92.0211L260.979 90.0819L262.28 86.2777L259.423 85.6447L263.111 84.4232L262.31 80.3481L259.12 80.6254L263.5 79.442L262.504 74.3845L252.302 76.3554C252.302 76.3554 252.96 69.2889 249.948 66.992L247.642 67.4387C247.642 67.4387 248.42 69.6573 248.347 71.0249C248.277 72.3924 246.271 78.7032 246.271 78.7032L243.138 80.1554L242.395 78.0977L236.5 79.406Z" fill="white"/>
<path fill-rule="evenodd" clip-rule="evenodd" d="M30.5 51.992L33.9065 92.6771H108.732L112.873 106.992L117.242 91.2936L131.5 90.4643L124.928 54.0236L30.5 51.992Z" fill="#CBD18F"/>
<path fill-rule="evenodd" clip-rule="evenodd" d="M40.0976 66.828C65.7213 65.8521 91.2541 65.9175 116.814 67.989C117.726 68.0619 117.731 66.7887 116.814 66.727C91.2837 65.0127 65.6684 64.3602 40.0976 65.7324C39.3061 65.7754 39.2955 66.8579 40.0976 66.828Z" fill="white"/>
<path fill-rule="evenodd" clip-rule="evenodd" d="M42.0976 75.828C67.7199 74.8522 93.2555 74.9176 118.814 76.989C119.726 77.0619 119.731 75.7888 118.814 75.7252C93.2851 74.0128 67.6691 73.3603 42.0976 74.7325C41.3061 74.7755 41.2955 75.8579 42.0976 75.828Z" fill="white"/>
<path fill-rule="evenodd" clip-rule="evenodd" d="M42.1019 82.1708C59.4101 82.7228 76.5183 81.5348 93.8095 82.9888C94.727 83.0668 94.7334 81.6988 93.8095 81.6388C76.5374 80.5288 59.3952 81.2388 42.1019 80.9988C41.2972 80.9868 41.3015 82.1448 42.1019 82.1708Z" fill="white"/>
</g>
<defs>
<clipPath id="clip0_0_5">
<rect width="283" height="314" fill="white"/>
</clipPath>
</defs>
</svg>
